<svg xmlns:xlink="http://www.w3.org/1999/xlink" xmlns="http://www.w3.org/2000/svg" width="16" height="16" viewBox="0 0 16 16" fill="none">
<path d="M13.8929 0.5H2.10714C1.21987 0.5 0.5 1.21987 0.5 2.10714V13.8929C0.5 14.7801 1.21987 15.5 2.10714 15.5H13.8929C14.7801 15.5 15.5 14.7801 15.5 13.8929V2.10714C15.5 1.21987 14.7801 0.5 13.8929 0.5ZM4.75223 12.3025C4.56808 12.6239 4.15625 12.731 3.83817 12.5469C3.51674 12.3627 3.4096 11.9509 3.59375 11.6328L4.07254 10.8058C4.61161 10.6417 5.05357 10.769 5.39844 11.1875L4.75223 12.3025ZM9.4029 10.4978H3.3125C2.9442 10.4978 2.64286 10.1964 2.64286 9.82812C2.64286 9.45982 2.9442 9.15848 3.3125 9.15848H5.02009L7.20982 5.3683L6.52344 4.18304C6.33929 3.86161 6.44978 3.45312 6.76786 3.26897C7.08929 3.08482 7.49777 3.19531 7.68192 3.51339L7.97991 4.02902L8.2779 3.51339C8.46205 3.19196 8.87388 3.08482 9.19196 3.26897C9.51339 3.45312 9.62053 3.86496 9.43638 4.18304L6.56362 9.15848H8.64286C9.3192 9.15848 9.69754 9.95201 9.4029 10.4978ZM12.6875 10.4978H11.7165L12.3728 11.6328C12.5569 11.9542 12.4464 12.3627 12.1283 12.5469C11.8069 12.731 11.3984 12.6205 11.2143 12.3025C10.1127 10.3973 9.28906 8.96428 8.73661 8.01339C8.17745 7.04241 8.57589 6.07143 8.97433 5.7433C9.41295 6.50335 10.0692 7.64174 10.9464 9.15848H12.6875C13.0558 9.15848 13.3571 9.45982 13.3571 9.82812C13.3571 10.1998 13.0558 10.4978 12.6875 10.4978Z" fill="#404040"/>
</svg>