<svg xmlns:xlink="http://www.w3.org/1999/xlink" xmlns="http://www.w3.org/2000/svg" width="32" height="32" viewBox="0 0 32 32" fill="none">
<path d="M28.728 10.0513L25.9182 5.56593C25.6671 5.16329 25.2211 4.9165 24.7449 4.9165H7.2536C6.77736 4.9165 6.33142 5.16329 6.0803 5.56593L3.27044 10.0513C1.82005 12.3676 3.10592 15.5888 5.8162 15.9568C6.01103 15.9828 6.21019 15.9957 6.40935 15.9957C7.69089 15.9957 8.82522 15.4329 9.60453 14.5627C10.3838 15.4329 11.5225 15.9957 12.7997 15.9957C14.0813 15.9957 15.2156 15.4329 15.9949 14.5627C16.7742 15.4329 17.9129 15.9957 19.1901 15.9957C20.4716 15.9957 21.606 15.4329 22.3853 14.5627C23.1689 15.4329 24.3033 15.9957 25.5805 15.9957C25.784 15.9957 25.9788 15.9828 26.1736 15.9568C28.8926 15.5931 30.1827 12.3719 28.728 10.0513V10.0513ZM25.5891 17.3855C25.1562 17.3855 24.7276 17.3206 24.3119 17.221V21.5419H7.68656V17.221C7.27092 17.3163 6.8423 17.3855 6.40935 17.3855C6.14958 17.3855 5.88547 17.3682 5.63003 17.3336C5.38758 17.2989 5.14946 17.2427 4.91999 17.1777V25.6982C4.91999 26.4645 5.53911 27.0837 6.30544 27.0837H25.7017C26.468 27.0837 27.0871 26.4645 27.0871 25.6982V17.1777C26.8533 17.247 26.6196 17.3033 26.3771 17.3336C26.113 17.3682 25.8532 17.3855 25.5891 17.3855Z" fill="#16212F"/>
</svg>