<svg xmlns:xlink="http://www.w3.org/1999/xlink" xmlns="http://www.w3.org/2000/svg" width="32" height="32" viewBox="0 0 32 32" fill="none">
<path d="M28.5729 21.5101L22.7395 19.0101C22.4903 18.9039 22.2133 18.8815 21.9503 18.9463C21.6873 19.0111 21.4525 19.1596 21.2811 19.3694L18.6978 22.5258C14.6434 20.6142 11.3805 17.3513 9.46895 13.2969L12.6253 10.7136C12.8355 10.5426 12.9843 10.3077 13.0492 10.0446C13.114 9.78143 13.0914 9.50432 12.9846 9.25521L10.4846 3.42177C10.3675 3.15323 10.1603 2.93398 9.89883 2.80181C9.63736 2.66965 9.33796 2.63287 9.05228 2.6978L3.63551 3.94782C3.36008 4.01143 3.11433 4.16652 2.93839 4.38777C2.76244 4.60903 2.66668 4.88339 2.66675 5.16608C2.66675 18.5257 13.4951 29.3332 26.8338 29.3332C27.1166 29.3333 27.3911 29.2376 27.6125 29.0617C27.8338 28.8857 27.989 28.6399 28.0526 28.3644L29.3026 22.9476C29.3671 22.6606 29.3296 22.36 29.1964 22.0976C29.0632 21.8352 28.8427 21.6275 28.5729 21.5101V21.5101Z" fill="#16212F"/>
</svg>