<svg xmlns:xlink="http://www.w3.org/1999/xlink" xmlns="http://www.w3.org/2000/svg" width="16" height="16" viewBox="0 0 16 16" fill="none">
<path d="M0.5 7.88627V1.90625C0.5 1.12959 1.12959 0.5 1.90625 0.5H7.88627C8.25923 0.500002 8.61692 0.648161 8.88064 0.911885L15.0881 7.11937C15.6373 7.66854 15.6373 8.55893 15.0881 9.1081L9.1081 15.0881C8.55893 15.6373 7.66854 15.6373 7.11937 15.0881L0.911885 8.88064C0.648161 8.61692 0.500002 8.25923 0.5 7.88627H0.5ZM3.78125 2.375C3.00459 2.375 2.375 3.00459 2.375 3.78125C2.375 4.55791 3.00459 5.1875 3.78125 5.1875C4.55791 5.1875 5.1875 4.55791 5.1875 3.78125C5.1875 3.00459 4.55791 2.375 3.78125 2.375Z" fill="#404040"/>
</svg>