<svg xmlns:xlink="http://www.w3.org/1999/xlink" xmlns="http://www.w3.org/2000/svg" width="32" height="32" viewBox="0 0 32 32" fill="none">
<path d="M28.8282 12.6042C29.0313 12.4427 29.3334 12.5937 29.3334 12.849V23.5C29.3334 24.8802 28.2136 26 26.8334 26H5.16675C3.78654 26 2.66675 24.8802 2.66675 23.5V12.8542C2.66675 12.5938 2.96362 12.4479 3.17196 12.6094C4.33862 13.5156 5.8855 14.6667 11.198 18.526C12.297 19.3281 14.1511 21.0156 16.0001 21.0052C17.8595 21.0208 19.7501 19.2969 20.8074 18.526C26.1199 14.6667 27.6615 13.5104 28.8282 12.6042ZM16.0001 19.3333C17.2084 19.3542 18.948 17.8125 19.823 17.1771C26.7345 12.1615 27.2605 11.724 28.8542 10.474C29.1563 10.2396 29.3334 9.875 29.3334 9.48958V8.5C29.3334 7.11979 28.2136 6 26.8334 6H5.16675C3.78654 6 2.66675 7.11979 2.66675 8.5V9.48958C2.66675 9.875 2.84383 10.2344 3.14591 10.474C4.73966 11.7187 5.26571 12.1615 12.1772 17.1771C13.0522 17.8125 14.7917 19.3542 16.0001 19.3333Z" fill="#16212F"/>
</svg>