<svg xmlns:xlink="http://www.w3.org/1999/xlink" xmlns="http://www.w3.org/2000/svg" width="32" height="32" viewBox="0 0 32 32" fill="none">
<path d="M26.8334 26H5.16675C3.78602 26 2.66675 24.8807 2.66675 23.5V8.5C2.66675 7.11927 3.78602 6 5.16675 6H26.8334C28.2141 6 29.3334 7.11927 29.3334 8.5V23.5C29.3334 24.8807 28.2141 26 26.8334 26ZM8.50008 8.91667C6.88925 8.91667 5.58341 10.2225 5.58341 11.8333C5.58341 13.4442 6.88925 14.75 8.50008 14.75C10.1109 14.75 11.4167 13.4442 11.4167 11.8333C11.4167 10.2225 10.1109 8.91667 8.50008 8.91667ZM6.00008 22.6667H26.0001V16.8333L21.442 12.2753C21.1979 12.0312 20.8022 12.0312 20.5581 12.2753L13.5001 19.3333L10.6087 16.4419C10.3646 16.1979 9.96888 16.1979 9.72477 16.4419L6.00008 20.1667V22.6667Z" fill="#16212F"/>
</svg>