<svg xmlns:xlink="http://www.w3.org/1999/xlink" xmlns="http://www.w3.org/2000/svg" width="32" height="32" viewBox="0 0 32 32" fill="none">
<path d="M14.9723 28.7951C7.40469 17.8244 6 16.6984 6 12.6665C6 7.14364 10.4771 2.6665 16 2.6665C21.5229 2.6665 26 7.14364 26 12.6665C26 16.6984 24.5953 17.8244 17.0277 28.7951C16.5311 29.5125 15.4689 29.5125 14.9723 28.7951ZM16 16.8332C18.3012 16.8332 20.1667 14.9677 20.1667 12.6665C20.1667 10.3653 18.3012 8.49984 16 8.49984C13.6988 8.49984 11.8333 10.3653 11.8333 12.6665C11.8333 14.9677 13.6988 16.8332 16 16.8332Z" fill="#16212F"/>
</svg>