<svg xmlns:xlink="http://www.w3.org/1999/xlink" xmlns="http://www.w3.org/2000/svg" width="32" height="32" viewBox="0 0 32 32" fill="none">
<path d="M27.1657 2.74458L10.5006 7.66593C10.1623 7.7722 9.86674 7.98358 9.65683 8.26936C9.44692 8.55514 9.33363 8.90041 9.33342 9.25499V22.8701C8.78766 22.7376 8.22834 22.6691 7.66675 22.6659C4.90633 22.6659 2.66675 24.1586 2.66675 25.9993C2.66675 27.8399 4.90633 29.3326 7.66675 29.3326C10.4272 29.3326 12.6667 27.8399 12.6667 25.9993V13.8284L26.0001 9.92218V19.5373C25.4544 19.4044 24.895 19.3357 24.3334 19.3326C21.573 19.3326 19.3334 20.8253 19.3334 22.6659C19.3334 24.5066 21.573 25.9993 24.3334 25.9993C27.0938 25.9993 29.3334 24.5071 29.3334 22.6659V4.3326C29.3332 4.07095 29.2713 3.81304 29.1529 3.57973C29.0345 3.34643 28.8628 3.14428 28.6517 2.98966C28.4406 2.83503 28.1961 2.73227 27.938 2.6897C27.6798 2.64712 27.4153 2.66592 27.1657 2.74458V2.74458Z" fill="#16212F"/>
</svg>