<svg xmlns:xlink="http://www.w3.org/1999/xlink" xmlns="http://www.w3.org/2000/svg" width="32" height="32" viewBox="0 0 32 32" fill="none">
<path d="M15.474 16.005C15.2135 15.1717 15.2187 13.5623 15.3698 13.5623C15.8073 13.5623 15.7656 15.4842 15.474 16.005ZM15.3854 18.4634C14.9844 19.5155 14.4844 20.7186 13.9062 21.729C14.8594 21.3644 15.9375 20.8332 17.1823 20.5884C16.5208 20.0884 15.8854 19.3696 15.3854 18.4634ZM10.4844 24.9634C10.4844 25.005 11.1719 24.6821 12.3021 22.8696C11.9531 23.1978 10.7865 24.1457 10.4844 24.9634ZM18.9167 10.9998H26V28.0832C26 28.7759 25.4427 29.3332 24.75 29.3332H7.25C6.55729 29.3332 6 28.7759 6 28.0832V3.9165C6 3.2238 6.55729 2.6665 7.25 2.6665H17.6667V9.74984C17.6667 10.4373 18.2292 10.9998 18.9167 10.9998ZM18.5 19.9478C17.4583 19.3123 16.7656 18.4373 16.276 17.1457C16.5104 16.1821 16.8802 14.7186 16.599 13.8019C16.3542 12.2707 14.3906 12.4217 14.1094 13.4478C13.849 14.4009 14.0885 15.7446 14.5312 17.4582C13.9271 18.8957 13.0365 20.8228 12.4062 21.9269C12.401 21.9269 12.401 21.9321 12.3958 21.9321C10.9844 22.6561 8.5625 24.2498 9.55729 25.4738C9.84896 25.8332 10.3906 25.9946 10.6771 25.9946C11.6094 25.9946 12.5365 25.0571 13.8594 22.7759C15.2031 22.3332 16.6771 21.7811 17.974 21.5675C19.1042 22.1821 20.4271 22.5832 21.3073 22.5832C22.8281 22.5832 22.9323 20.9165 22.3333 20.3228C21.6094 19.6144 19.5052 19.8175 18.5 19.9478V19.9478ZM25.6354 8.13525L20.5312 3.03109C20.2969 2.79671 19.9792 2.6665 19.6458 2.6665H19.3333V9.33317H26V9.01546C26 8.68734 25.8698 8.36963 25.6354 8.13525ZM21.776 21.4321C21.9896 21.2915 21.6458 20.8123 19.5469 20.9634C21.4792 21.7863 21.776 21.4321 21.776 21.4321Z" fill="#16212F"/>
</svg>