<svg xmlns:xlink="http://www.w3.org/1999/xlink" xmlns="http://www.w3.org/2000/svg" width="32" height="32" viewBox="0 0 32 32" fill="none">
<path d="M28.8969 11.6016L29.3221 9.22061C29.4003 8.78281 29.0636 8.38079 28.6189 8.38079H24.166L25.0364 3.50632C25.1145 3.06853 24.7779 2.6665 24.3332 2.6665H21.9147C21.747 2.66651 21.5847 2.72549 21.4561 2.83313C21.3276 2.94077 21.241 3.0902 21.2115 3.25525L20.2962 8.38079H14.4251L15.2955 3.50632C15.3737 3.06853 15.0371 2.6665 14.5923 2.6665H12.1738C12.0061 2.66651 11.8438 2.72549 11.7152 2.83313C11.5867 2.94077 11.5001 3.0902 11.4706 3.25525L10.5553 8.38079H5.84723C5.67956 8.38079 5.51724 8.43977 5.38869 8.54741C5.26013 8.65505 5.17354 8.80448 5.14407 8.96954L4.7189 11.3505C4.64074 11.7883 4.97735 12.1903 5.42205 12.1903H9.87503L8.51449 19.8094H3.8064C3.63873 19.8094 3.47641 19.8683 3.34786 19.976C3.2193 20.0836 3.13271 20.233 3.10324 20.3981L2.67806 22.7791C2.59991 23.2169 2.93652 23.6189 3.38122 23.6189H7.83419L6.96378 28.4933C6.88562 28.9311 7.22223 29.3332 7.66693 29.3332H10.0855C10.2532 29.3332 10.4155 29.2742 10.544 29.1665C10.6726 29.0589 10.7592 28.9095 10.7887 28.7444L11.704 23.6189H17.5751L16.7047 28.4933C16.6265 28.9311 16.9631 29.3332 17.4078 29.3332H19.8264C19.9941 29.3332 20.1564 29.2742 20.2849 29.1665C20.4135 29.0589 20.5001 28.9095 20.5295 28.7444L21.4448 23.6189H26.1529C26.3206 23.6189 26.4829 23.5599 26.6115 23.4522C26.74 23.3446 26.8266 23.1952 26.8561 23.0301L27.2813 20.6492C27.3594 20.2114 27.0228 19.8094 26.5781 19.8094H22.1251L23.4857 12.1903H28.1938C28.3614 12.1903 28.5238 12.1313 28.6523 12.0237C28.7809 11.916 28.8675 11.7666 28.8969 11.6016V11.6016ZM18.2554 19.8094H12.3843L13.7448 12.1903H19.6159L18.2554 19.8094Z" fill="#16212F"/>
</svg>