<svg xmlns:xlink="http://www.w3.org/1999/xlink" xmlns="http://www.w3.org/2000/svg" width="27" height="27" viewBox="0 0 27 27" fill="none">
<path d="M17.011 9.65579C20.1229 12.7708 20.0801 17.765 17.0298 20.8323C17.0241 20.8386 17.0173 20.8454 17.011 20.8516L13.511 24.3516C10.4241 27.4386 5.40173 27.4381 2.31523 24.3516C-0.771743 21.2651 -0.771743 16.2422 2.31523 13.1558L4.24783 11.2232C4.76033 10.7107 5.64293 11.0513 5.66939 11.7756C5.70314 12.6986 5.86866 13.6259 6.17408 14.5215C6.27751 14.8247 6.20361 15.1601 5.97705 15.3867L5.29543 16.0683C3.83575 17.528 3.78997 19.9047 5.23528 21.3787C6.69486 22.8672 9.09391 22.876 10.5647 21.4052L14.0647 17.9058C15.533 16.4375 15.5268 14.0643 14.0647 12.6021C13.8719 12.4097 13.6778 12.2603 13.5261 12.1558C13.4188 12.0822 13.3302 11.9844 13.2674 11.8704C13.2046 11.7564 13.1693 11.6293 13.1643 11.4993C13.1436 10.9489 13.3386 10.3818 13.7735 9.94688L14.8701 8.85027C15.1577 8.56272 15.6087 8.52741 15.9422 8.76011C16.324 9.02675 16.6817 9.32647 17.011 9.65579ZM24.3514 2.31507C21.2649 -0.771483 16.2425 -0.7719 13.1556 2.31507L9.65558 5.81507C9.64933 5.82132 9.64256 5.82809 9.63683 5.83434C6.58652 8.90162 6.54376 13.8958 9.65558 17.0109C9.98489 17.3402 10.3425 17.6399 10.7244 17.9065C11.0578 18.1392 11.509 18.1038 11.7965 17.8163L12.893 16.7197C13.3279 16.2848 13.5229 15.7177 13.5023 15.1673C13.4973 15.0373 13.462 14.9102 13.3992 14.7962C13.3364 14.6822 13.2478 14.5845 13.1405 14.5108C12.9888 14.4064 12.7946 14.2569 12.6019 14.0645C11.1397 12.6023 11.1336 10.2291 12.6019 8.76084L16.1019 5.26137C17.5726 3.79059 19.9717 3.79945 21.4313 5.28793C22.8766 6.76189 22.8309 9.13866 21.3711 10.5983L20.6895 11.28C20.463 11.5065 20.389 11.8419 20.4925 12.1452C20.7979 13.0407 20.9634 13.968 20.9972 14.891C21.0237 15.6153 21.9062 15.9559 22.4187 15.4434L24.3513 13.5108C27.4384 10.4244 27.4384 5.40153 24.3514 2.31507Z" fill="#16212F"/>
</svg>