<?xml version="1.0" encoding="utf-8"?>
<svg xmlns="http://www.w3.org/2000/svg" fill="none" height="24" viewBox="0 0 24 24" width="24">
<path d="M12.0022 3H11.9978C7.03538 3 3 7.0365 3 12C3 13.9688 3.6345 15.7935 4.71338 17.2751L3.59175 20.6186L7.05113 19.5128C8.47425 20.4555 10.1719 21 12.0022 21C16.9646 21 21 16.9624 21 12C21 7.03763 16.9646 3 12.0022 3Z" fill="#43C554"/>
<path d="M17.2396 15.7091C17.0225 16.3222 16.1607 16.8307 15.4734 16.9792C15.0031 17.0793 14.3889 17.1592 12.3211 16.302C9.67623 15.2062 7.97298 12.5186 7.84023 12.3442C7.71311 12.1698 6.77148 10.9211 6.77148 9.62958C6.77148 8.33808 7.42736 7.70921 7.69173 7.43921C7.90886 7.21758 8.26773 7.11633 8.61198 7.11633C8.72336 7.11633 8.82348 7.12196 8.91348 7.12646C9.17786 7.13771 9.31061 7.15346 9.48498 7.57083C9.70211 8.09396 10.2309 9.38546 10.2939 9.51821C10.358 9.65096 10.4221 9.83096 10.3321 10.0053C10.2477 10.1853 10.1735 10.2652 10.0407 10.4182C9.90798 10.5712 9.78198 10.6882 9.64923 10.8525C9.52773 10.9953 9.39048 11.1483 9.54348 11.4127C9.69648 11.6715 10.2252 12.5343 11.0037 13.2273C12.0084 14.1217 12.8229 14.4075 13.1142 14.529C13.3314 14.619 13.5901 14.5976 13.7487 14.4288C13.9501 14.2117 14.1987 13.8517 14.4519 13.4973C14.6319 13.2431 14.8591 13.2116 15.0976 13.3016C15.3406 13.386 16.6265 14.0216 16.8909 14.1532C17.1552 14.286 17.3296 14.349 17.3937 14.4603C17.4567 14.5717 17.4567 15.0948 17.2396 15.7091Z" fill="#FAFAFA"/>
</svg>