<?xml version="1.0" encoding="UTF-8"?>
<svg xmlns="http://www.w3.org/2000/svg" version="1.1" width="250" height="250" viewBox="0 0 250 250"><rect x="0" y="0" width="250" height="250" fill="#ffffff"/><g transform="scale(10)"><g transform="translate(0,0)"><path fill-rule="evenodd" d="M8 0L8 4L9 4L9 5L8 5L8 7L9 7L9 6L10 6L10 9L11 9L11 10L9 10L9 11L8 11L8 10L6 10L6 9L7 9L7 8L4 8L4 10L5 10L5 11L4 11L4 12L2 12L2 11L3 11L3 10L2 10L2 8L0 8L0 9L1 9L1 10L0 10L0 11L1 11L1 12L0 12L0 14L1 14L1 12L2 12L2 14L3 14L3 13L5 13L5 14L4 14L4 16L3 16L3 15L2 15L2 16L0 16L0 17L2 17L2 16L3 16L3 17L4 17L4 16L5 16L5 17L8 17L8 18L9 18L9 15L7 15L7 14L6 14L6 13L7 13L7 12L5 12L5 11L8 11L8 14L10 14L10 15L12 15L12 16L10 16L10 18L11 18L11 19L14 19L14 18L15 18L15 17L16 17L16 21L13 21L13 20L12 20L12 21L11 21L11 20L10 20L10 19L8 19L8 21L9 21L9 22L10 22L10 23L12 23L12 24L11 24L11 25L13 25L13 23L12 23L12 21L13 21L13 22L14 22L14 23L15 23L15 24L14 24L14 25L16 25L16 23L18 23L18 24L22 24L22 25L25 25L25 24L24 24L24 22L25 22L25 21L24 21L24 19L21 19L21 17L23 17L23 16L24 16L24 15L23 15L23 14L24 14L24 13L25 13L25 12L24 12L24 11L23 11L23 10L24 10L24 9L25 9L25 8L21 8L21 9L20 9L20 8L19 8L19 9L20 9L20 10L19 10L19 11L18 11L18 12L17 12L17 13L15 13L15 14L14 14L14 13L13 13L13 10L15 10L15 11L14 11L14 12L16 12L16 11L17 11L17 10L18 10L18 9L13 9L13 6L14 6L14 7L15 7L15 8L16 8L16 7L17 7L17 4L16 4L16 3L17 3L17 2L16 2L16 3L15 3L15 1L17 1L17 0L15 0L15 1L14 1L14 0L13 0L13 1L11 1L11 2L12 2L12 3L13 3L13 4L12 4L12 5L13 5L13 6L12 6L12 8L11 8L11 3L10 3L10 2L9 2L9 0ZM13 1L13 3L14 3L14 1ZM13 4L13 5L14 5L14 4ZM15 5L15 7L16 7L16 5ZM22 9L22 10L23 10L23 9ZM1 10L1 11L2 11L2 10ZM10 11L10 12L9 12L9 13L11 13L11 11ZM20 11L20 12L19 12L19 13L18 13L18 14L16 14L16 15L14 15L14 14L13 14L13 13L12 13L12 14L13 14L13 17L12 17L12 18L13 18L13 17L15 17L15 16L18 16L18 15L19 15L19 14L20 14L20 13L21 13L21 14L23 14L23 13L21 13L21 12L22 12L22 11ZM6 15L6 16L7 16L7 15ZM21 15L21 16L22 16L22 15ZM17 17L17 20L20 20L20 17ZM18 18L18 19L19 19L19 18ZM10 21L10 22L11 22L11 21ZM17 21L17 22L18 22L18 21ZM20 21L20 22L19 22L19 23L21 23L21 22L22 22L22 23L23 23L23 22L22 22L22 21ZM8 23L8 25L10 25L10 24L9 24L9 23ZM0 0L0 7L7 7L7 0ZM1 1L1 6L6 6L6 1ZM2 2L2 5L5 5L5 2ZM18 0L18 7L25 7L25 0ZM19 1L19 6L24 6L24 1ZM20 2L20 5L23 5L23 2ZM0 18L0 25L7 25L7 18ZM1 19L1 24L6 24L6 19ZM2 20L2 23L5 23L5 20Z" fill="#1a1919"/></g></g></svg>
