<?xml version="1.0" encoding="UTF-8"?>
<svg xmlns="http://www.w3.org/2000/svg" version="1.1" width="250" height="250" viewBox="0 0 250 250"><rect x="0" y="0" width="250" height="250" fill="#ffffff"/><g transform="scale(5.102)"><g transform="translate(0,0)"><path fill-rule="evenodd" d="M8 0L8 1L10 1L10 2L9 2L9 4L10 4L10 3L11 3L11 4L12 4L12 5L10 5L10 7L9 7L9 6L8 6L8 8L11 8L11 9L12 9L12 7L13 7L13 9L14 9L14 8L15 8L15 9L16 9L16 11L17 11L17 12L16 12L16 13L17 13L17 12L18 12L18 11L17 11L17 9L19 9L19 10L20 10L20 11L19 11L19 12L20 12L20 13L18 13L18 15L17 15L17 14L16 14L16 18L17 18L17 20L16 20L16 19L15 19L15 15L14 15L14 14L15 14L15 13L13 13L13 15L12 15L12 16L11 16L11 15L10 15L10 14L9 14L9 16L11 16L11 17L9 17L9 18L8 18L8 17L7 17L7 16L8 16L8 11L7 11L7 10L6 10L6 11L7 11L7 12L5 12L5 8L3 8L3 9L4 9L4 11L3 11L3 10L1 10L1 11L0 11L0 14L2 14L2 15L1 15L1 17L0 17L0 20L1 20L1 18L2 18L2 19L3 19L3 18L4 18L4 20L2 20L2 23L0 23L0 25L1 25L1 24L3 24L3 23L4 23L4 25L3 25L3 26L0 26L0 27L2 27L2 28L3 28L3 29L4 29L4 28L3 28L3 26L4 26L4 27L5 27L5 28L6 28L6 29L7 29L7 30L6 30L6 31L5 31L5 32L6 32L6 33L7 33L7 34L5 34L5 33L4 33L4 34L5 34L5 35L7 35L7 36L5 36L5 37L7 37L7 38L5 38L5 39L7 39L7 40L6 40L6 41L8 41L8 42L10 42L10 43L12 43L12 44L10 44L10 45L9 45L9 44L8 44L8 46L9 46L9 47L8 47L8 49L9 49L9 47L10 47L10 49L12 49L12 48L13 48L13 49L16 49L16 48L18 48L18 49L20 49L20 48L18 48L18 47L16 47L16 48L13 48L13 44L14 44L14 47L15 47L15 44L14 44L14 43L13 43L13 41L12 41L12 39L11 39L11 38L12 38L12 37L14 37L14 38L13 38L13 39L14 39L14 42L15 42L15 43L16 43L16 46L17 46L17 45L18 45L18 46L19 46L19 47L21 47L21 48L22 48L22 49L23 49L23 47L21 47L21 45L20 45L20 46L19 46L19 45L18 45L18 44L17 44L17 43L16 43L16 42L18 42L18 41L19 41L19 43L20 43L20 44L22 44L22 46L23 46L23 45L25 45L25 46L24 46L24 48L25 48L25 49L26 49L26 45L27 45L27 43L28 43L28 47L29 47L29 48L27 48L27 49L31 49L31 47L32 47L32 49L35 49L35 48L36 48L36 49L42 49L42 48L45 48L45 47L46 47L46 48L48 48L48 49L49 49L49 47L48 47L48 46L47 46L47 45L46 45L46 43L45 43L45 42L47 42L47 43L48 43L48 45L49 45L49 42L48 42L48 41L49 41L49 38L48 38L48 39L47 39L47 37L46 37L46 36L48 36L48 37L49 37L49 34L48 34L48 35L47 35L47 34L46 34L46 30L48 30L48 32L47 32L47 33L49 33L49 30L48 30L48 29L47 29L47 27L48 27L48 28L49 28L49 26L47 26L47 25L49 25L49 24L47 24L47 23L45 23L45 22L47 22L47 21L48 21L48 19L49 19L49 18L48 18L48 17L45 17L45 16L48 16L48 15L49 15L49 14L47 14L47 13L46 13L46 12L47 12L47 11L46 11L46 10L47 10L47 9L45 9L45 10L44 10L44 13L43 13L43 12L42 12L42 10L43 10L43 8L42 8L42 9L40 9L40 8L41 8L41 6L40 6L40 7L39 7L39 5L38 5L38 2L39 2L39 4L40 4L40 3L41 3L41 0L40 0L40 1L38 1L38 0L34 0L34 2L36 2L36 1L37 1L37 3L36 3L36 7L37 7L37 5L38 5L38 7L39 7L39 8L38 8L38 9L37 9L37 8L35 8L35 6L34 6L34 7L33 7L33 6L32 6L32 7L31 7L31 6L30 6L30 5L31 5L31 3L32 3L32 5L33 5L33 4L34 4L34 3L33 3L33 2L32 2L32 1L33 1L33 0L32 0L32 1L31 1L31 0L20 0L20 1L18 1L18 0L15 0L15 1L14 1L14 0L13 0L13 1L12 1L12 0L11 0L11 1L10 1L10 0ZM11 1L11 3L13 3L13 4L14 4L14 3L15 3L15 5L12 5L12 6L11 6L11 7L12 7L12 6L13 6L13 7L14 7L14 6L15 6L15 7L16 7L16 6L17 6L17 8L16 8L16 9L17 9L17 8L18 8L18 6L19 6L19 8L21 8L21 7L22 7L22 5L21 5L21 4L22 4L22 3L25 3L25 4L26 4L26 2L27 2L27 1L26 1L26 2L24 2L24 1L23 1L23 2L22 2L22 1L20 1L20 2L19 2L19 4L20 4L20 5L18 5L18 3L17 3L17 5L16 5L16 3L15 3L15 2L18 2L18 1L15 1L15 2L12 2L12 1ZM28 1L28 3L29 3L29 4L27 4L27 10L25 10L25 9L23 9L23 10L25 10L25 11L24 11L24 12L26 12L26 11L27 11L27 17L26 17L26 18L28 18L28 17L29 17L29 16L30 16L30 15L31 15L31 16L33 16L33 17L32 17L32 18L30 18L30 19L27 19L27 20L26 20L26 19L24 19L24 16L25 16L25 14L24 14L24 16L23 16L23 17L21 17L21 16L22 16L22 15L21 15L21 14L23 14L23 12L22 12L22 13L21 13L21 14L19 14L19 17L18 17L18 16L17 16L17 18L19 18L19 20L20 20L20 22L19 22L19 23L16 23L16 25L14 25L14 26L13 26L13 25L12 25L12 24L15 24L15 23L14 23L14 22L13 22L13 23L12 23L12 22L11 22L11 21L10 21L10 20L14 20L14 21L15 21L15 20L14 20L14 19L13 19L13 18L14 18L14 15L13 15L13 17L12 17L12 18L11 18L11 19L10 19L10 20L9 20L9 19L8 19L8 18L7 18L7 17L6 17L6 16L7 16L7 15L6 15L6 14L7 14L7 13L4 13L4 12L3 12L3 11L1 11L1 12L3 12L3 13L2 13L2 14L5 14L5 15L4 15L4 16L3 16L3 17L4 17L4 18L5 18L5 19L6 19L6 20L7 20L7 21L6 21L6 22L7 22L7 21L8 21L8 22L9 22L9 24L10 24L10 22L11 22L11 23L12 23L12 24L11 24L11 25L10 25L10 26L9 26L9 28L8 28L8 30L7 30L7 31L6 31L6 32L7 32L7 33L8 33L8 34L7 34L7 35L8 35L8 36L9 36L9 35L11 35L11 36L10 36L10 37L11 37L11 36L13 36L13 35L14 35L14 36L16 36L16 35L17 35L17 36L18 36L18 35L17 35L17 34L19 34L19 33L20 33L20 32L19 32L19 33L17 33L17 32L18 32L18 30L17 30L17 31L16 31L16 29L19 29L19 31L20 31L20 30L21 30L21 31L22 31L22 32L21 32L21 34L22 34L22 35L23 35L23 36L24 36L24 37L25 37L25 38L24 38L24 39L25 39L25 40L28 40L28 41L27 41L27 42L28 42L28 41L29 41L29 40L30 40L30 39L31 39L31 40L32 40L32 39L31 39L31 38L34 38L34 39L33 39L33 41L32 41L32 42L30 42L30 43L31 43L31 44L32 44L32 46L34 46L34 45L35 45L35 46L37 46L37 45L39 45L39 46L38 46L38 48L39 48L39 47L40 47L40 48L41 48L41 46L42 46L42 45L39 45L39 44L37 44L37 43L40 43L40 42L39 42L39 41L38 41L38 42L36 42L36 43L35 43L35 42L34 42L34 43L35 43L35 44L33 44L33 43L32 43L32 42L33 42L33 41L35 41L35 40L38 40L38 37L39 37L39 36L37 36L37 35L40 35L40 37L41 37L41 38L42 38L42 36L44 36L44 37L45 37L45 35L46 35L46 34L45 34L45 35L44 35L44 34L43 34L43 35L42 35L42 36L41 36L41 32L42 32L42 33L43 33L43 31L41 31L41 27L40 27L40 29L38 29L38 28L37 28L37 27L39 27L39 26L40 26L40 22L37 22L37 21L41 21L41 22L42 22L42 19L43 19L43 21L45 21L45 19L46 19L46 20L47 20L47 19L48 19L48 18L47 18L47 19L46 19L46 18L45 18L45 17L44 17L44 18L42 18L42 19L40 19L40 18L39 18L39 16L40 16L40 17L41 17L41 16L40 16L40 15L39 15L39 16L38 16L38 19L40 19L40 20L37 20L37 19L35 19L35 18L34 18L34 19L35 19L35 20L33 20L33 17L34 17L34 16L33 16L33 14L32 14L32 15L31 15L31 14L30 14L30 13L29 13L29 15L28 15L28 12L29 12L29 10L30 10L30 11L31 11L31 12L32 12L32 11L31 11L31 10L30 10L30 9L31 9L31 7L30 7L30 6L29 6L29 4L30 4L30 2L31 2L31 1L30 1L30 2L29 2L29 1ZM20 3L20 4L21 4L21 3ZM17 5L17 6L18 6L18 5ZM20 5L20 7L21 7L21 5ZM23 5L23 8L26 8L26 5ZM24 6L24 7L25 7L25 6ZM28 6L28 10L29 10L29 9L30 9L30 8L29 8L29 6ZM32 7L32 9L35 9L35 11L34 11L34 12L35 12L35 13L34 13L34 15L35 15L35 16L37 16L37 15L35 15L35 14L36 14L36 12L37 12L37 14L38 14L38 13L39 13L39 12L37 12L37 11L39 11L39 10L37 10L37 11L36 11L36 9L35 9L35 8L33 8L33 7ZM0 8L0 9L2 9L2 8ZM6 8L6 9L7 9L7 8ZM48 8L48 9L49 9L49 8ZM8 9L8 10L10 10L10 11L9 11L9 13L11 13L11 14L12 14L12 12L11 12L11 10L10 10L10 9ZM12 10L12 11L14 11L14 12L15 12L15 11L14 11L14 10ZM21 10L21 11L20 11L20 12L21 12L21 11L22 11L22 10ZM40 10L40 14L41 14L41 15L42 15L42 16L43 16L43 15L44 15L44 16L45 16L45 15L47 15L47 14L42 14L42 13L41 13L41 10ZM48 10L48 11L49 11L49 10ZM35 11L35 12L36 12L36 11ZM48 12L48 13L49 13L49 12ZM5 15L5 16L6 16L6 15ZM20 15L20 16L21 16L21 15ZM5 17L5 18L6 18L6 19L7 19L7 18L6 18L6 17ZM19 17L19 18L20 18L20 20L22 20L22 19L23 19L23 20L24 20L24 22L21 22L21 23L19 23L19 24L18 24L18 25L19 25L19 24L21 24L21 25L20 25L20 28L19 28L19 29L21 29L21 25L22 25L22 27L24 27L24 30L25 30L25 29L26 29L26 31L25 31L25 32L26 32L26 34L25 34L25 33L24 33L24 36L25 36L25 37L26 37L26 38L29 38L29 37L30 37L30 38L31 38L31 37L33 37L33 36L34 36L34 35L35 35L35 36L36 36L36 37L35 37L35 39L36 39L36 38L37 38L37 36L36 36L36 35L37 35L37 34L40 34L40 32L41 32L41 31L40 31L40 30L39 30L39 31L38 31L38 30L35 30L35 27L36 27L36 26L34 26L34 25L33 25L33 24L34 24L34 23L35 23L35 25L37 25L37 24L39 24L39 23L37 23L37 24L36 24L36 23L35 23L35 22L36 22L36 21L37 21L37 20L35 20L35 21L32 21L32 19L30 19L30 22L28 22L28 21L29 21L29 20L28 20L28 21L26 21L26 20L24 20L24 19L23 19L23 18L20 18L20 17ZM44 18L44 19L45 19L45 18ZM4 20L4 21L3 21L3 22L5 22L5 20ZM8 20L8 21L9 21L9 20ZM17 20L17 21L16 21L16 22L17 22L17 21L18 21L18 20ZM31 21L31 22L30 22L30 23L31 23L31 26L30 26L30 25L27 25L27 26L29 26L29 27L25 27L25 28L26 28L26 29L28 29L28 30L27 30L27 31L26 31L26 32L28 32L28 30L29 30L29 28L30 28L30 27L31 27L31 30L30 30L30 31L29 31L29 34L28 34L28 33L27 33L27 34L28 34L28 35L27 35L27 37L28 37L28 36L29 36L29 34L30 34L30 35L31 35L31 36L32 36L32 35L33 35L33 31L32 31L32 32L31 32L31 34L30 34L30 31L31 31L31 30L33 30L33 29L34 29L34 28L33 28L33 26L32 26L32 21ZM27 22L27 24L29 24L29 23L28 23L28 22ZM48 22L48 23L49 23L49 22ZM5 23L5 26L8 26L8 23ZM23 23L23 26L26 26L26 23ZM41 23L41 26L44 26L44 23ZM6 24L6 25L7 25L7 24ZM24 24L24 25L25 25L25 24ZM42 24L42 25L43 25L43 24ZM45 24L45 25L47 25L47 24ZM38 25L38 26L39 26L39 25ZM12 26L12 28L11 28L11 27L10 27L10 28L9 28L9 32L8 32L8 31L7 31L7 32L8 32L8 33L9 33L9 34L8 34L8 35L9 35L9 34L11 34L11 33L9 33L9 32L12 32L12 34L13 34L13 33L14 33L14 32L15 32L15 34L14 34L14 35L16 35L16 34L17 34L17 33L16 33L16 32L15 32L15 30L12 30L12 31L10 31L10 30L11 30L11 29L14 29L14 28L13 28L13 26ZM14 26L14 27L15 27L15 28L17 28L17 27L18 27L18 26L17 26L17 27L15 27L15 26ZM31 26L31 27L32 27L32 26ZM6 27L6 28L7 28L7 27ZM42 27L42 29L43 29L43 28L44 28L44 30L46 30L46 29L45 29L45 28L44 28L44 27ZM0 28L0 30L2 30L2 31L4 31L4 30L2 30L2 29L1 29L1 28ZM10 28L10 29L11 29L11 28ZM32 28L32 29L33 29L33 28ZM36 28L36 29L37 29L37 28ZM34 30L34 33L35 33L35 34L36 34L36 32L37 32L37 31L35 31L35 30ZM23 31L23 32L22 32L22 33L23 33L23 32L24 32L24 31ZM0 32L0 34L3 34L3 33L2 33L2 32ZM38 32L38 33L39 33L39 32ZM31 34L31 35L32 35L32 34ZM0 35L0 36L1 36L1 35ZM19 35L19 36L21 36L21 35ZM25 35L25 36L26 36L26 35ZM2 36L2 37L0 37L0 38L1 38L1 40L0 40L0 41L3 41L3 40L4 40L4 39L2 39L2 38L3 38L3 37L4 37L4 36ZM19 37L19 38L21 38L21 39L20 39L20 40L19 40L19 39L17 39L17 38L16 38L16 40L15 40L15 41L16 41L16 40L19 40L19 41L20 41L20 43L21 43L21 41L22 41L22 40L23 40L23 38L22 38L22 37ZM8 38L8 41L10 41L10 42L11 42L11 41L10 41L10 39L9 39L9 38ZM14 38L14 39L15 39L15 38ZM39 38L39 39L40 39L40 38ZM43 38L43 39L41 39L41 40L43 40L43 39L44 39L44 40L46 40L46 39L45 39L45 38ZM21 39L21 40L22 40L22 39ZM47 40L47 41L48 41L48 40ZM23 41L23 44L26 44L26 41ZM41 41L41 44L44 44L44 41ZM24 42L24 43L25 43L25 42ZM42 42L42 43L43 43L43 42ZM29 44L29 45L30 45L30 44ZM36 44L36 45L37 45L37 44ZM10 45L10 47L12 47L12 45ZM45 45L45 46L46 46L46 47L47 47L47 46L46 46L46 45ZM30 46L30 47L31 47L31 46ZM34 47L34 48L35 48L35 47ZM36 47L36 48L37 48L37 47ZM0 0L0 7L7 7L7 0ZM1 1L1 6L6 6L6 1ZM2 2L2 5L5 5L5 2ZM42 0L42 7L49 7L49 0ZM43 1L43 6L48 6L48 1ZM44 2L44 5L47 5L47 2ZM0 42L0 49L7 49L7 42ZM1 43L1 48L6 48L6 43ZM2 44L2 47L5 47L5 44Z" fill="#159d74"/></g></g></svg>
