<?xml version="1.0" encoding="UTF-8"?>
<svg xmlns="http://www.w3.org/2000/svg" version="1.1" width="250" height="250" viewBox="0 0 250 250"><rect x="0" y="0" width="250" height="250" fill="#ffffff"/><g transform="scale(4.098)"><g transform="translate(0,0)"><path fill-rule="evenodd" d="M8 0L8 1L9 1L9 2L10 2L10 3L11 3L11 2L12 2L12 3L13 3L13 4L10 4L10 7L11 7L11 8L10 8L10 12L9 12L9 9L8 9L8 10L4 10L4 11L3 11L3 10L2 10L2 11L3 11L3 12L4 12L4 13L5 13L5 14L6 14L6 15L5 15L5 16L4 16L4 15L3 15L3 13L2 13L2 14L1 14L1 9L2 9L2 8L0 8L0 14L1 14L1 15L0 15L0 16L1 16L1 18L0 18L0 20L2 20L2 21L1 21L1 23L2 23L2 21L3 21L3 20L4 20L4 21L5 21L5 22L4 22L4 23L3 23L3 24L1 24L1 25L0 25L0 27L3 27L3 26L2 26L2 25L3 25L3 24L4 24L4 23L5 23L5 25L9 25L9 24L8 24L8 23L10 23L10 24L11 24L11 22L12 22L12 21L11 21L11 19L10 19L10 18L12 18L12 17L13 17L13 18L14 18L14 19L13 19L13 20L14 20L14 19L15 19L15 18L14 18L14 17L15 17L15 16L17 16L17 17L16 17L16 19L17 19L17 18L18 18L18 17L19 17L19 19L18 19L18 21L20 21L20 22L19 22L19 24L20 24L20 25L18 25L18 28L17 28L17 26L16 26L16 25L15 25L15 24L18 24L18 23L17 23L17 21L16 21L16 20L15 20L15 21L13 21L13 23L14 23L14 26L15 26L15 27L14 27L14 28L12 28L12 29L13 29L13 30L14 30L14 31L13 31L13 35L14 35L14 37L16 37L16 35L17 35L17 37L20 37L20 38L18 38L18 39L17 39L17 38L16 38L16 39L14 39L14 40L13 40L13 39L12 39L12 38L11 38L11 37L13 37L13 36L12 36L12 32L11 32L11 31L12 31L12 30L11 30L11 27L10 27L10 26L12 26L12 27L13 27L13 26L12 26L12 25L13 25L13 24L12 24L12 25L10 25L10 26L5 26L5 28L4 28L4 30L2 30L2 28L1 28L1 29L0 29L0 31L1 31L1 32L2 32L2 31L4 31L4 33L3 33L3 35L2 35L2 33L0 33L0 34L1 34L1 35L0 35L0 36L1 36L1 35L2 35L2 37L3 37L3 38L2 38L2 40L1 40L1 39L0 39L0 40L1 40L1 41L0 41L0 44L1 44L1 42L2 42L2 43L3 43L3 41L4 41L4 42L5 42L5 43L7 43L7 44L5 44L5 45L4 45L4 44L2 44L2 48L1 48L1 46L0 46L0 50L2 50L2 51L0 51L0 53L4 53L4 52L5 52L5 51L7 51L7 52L6 52L6 53L7 53L7 52L8 52L8 54L9 54L9 51L10 51L10 52L11 52L11 54L10 54L10 56L11 56L11 57L9 57L9 56L8 56L8 58L9 58L9 59L8 59L8 61L10 61L10 60L12 60L12 58L11 58L11 57L13 57L13 56L11 56L11 54L12 54L12 55L13 55L13 53L12 53L12 52L13 52L13 51L14 51L14 52L15 52L15 51L14 51L14 49L15 49L15 48L16 48L16 49L17 49L17 50L16 50L16 55L17 55L17 54L18 54L18 53L19 53L19 54L20 54L20 55L19 55L19 56L20 56L20 55L21 55L21 56L22 56L22 57L23 57L23 59L22 59L22 58L21 58L21 57L20 57L20 58L19 58L19 57L18 57L18 56L17 56L17 57L16 57L16 56L15 56L15 59L14 59L14 60L13 60L13 61L15 61L15 60L18 60L18 61L19 61L19 60L18 60L18 59L16 59L16 58L17 58L17 57L18 57L18 58L19 58L19 59L21 59L21 60L22 60L22 61L24 61L24 60L25 60L25 61L29 61L29 60L25 60L25 59L26 59L26 58L28 58L28 57L29 57L29 59L30 59L30 60L31 60L31 61L33 61L33 60L35 60L35 58L36 58L36 59L38 59L38 58L39 58L39 57L38 57L38 58L36 58L36 57L37 57L37 56L40 56L40 58L43 58L43 57L44 57L44 59L43 59L43 60L42 60L42 59L41 59L41 60L40 60L40 61L43 61L43 60L44 60L44 61L45 61L45 60L46 60L46 61L47 61L47 60L48 60L48 61L49 61L49 60L50 60L50 59L49 59L49 58L48 58L48 57L49 57L49 56L48 56L48 57L47 57L47 56L46 56L46 54L47 54L47 53L48 53L48 55L50 55L50 58L51 58L51 59L52 59L52 60L51 60L51 61L54 61L54 60L56 60L56 61L57 61L57 60L60 60L60 61L61 61L61 54L60 54L60 53L61 53L61 52L60 52L60 51L61 51L61 50L60 50L60 51L59 51L59 50L58 50L58 48L59 48L59 47L58 47L58 48L57 48L57 49L56 49L56 50L57 50L57 52L52 52L52 50L53 50L53 49L54 49L54 51L55 51L55 48L56 48L56 47L57 47L57 46L58 46L58 45L57 45L57 44L58 44L58 43L59 43L59 44L60 44L60 45L61 45L61 41L60 41L60 40L61 40L61 38L60 38L60 40L59 40L59 39L57 39L57 41L58 41L58 43L57 43L57 42L56 42L56 38L58 38L58 37L56 37L56 35L55 35L55 34L57 34L57 29L58 29L58 31L59 31L59 32L61 32L61 30L60 30L60 29L59 29L59 28L60 28L60 27L61 27L61 26L60 26L60 27L59 27L59 26L58 26L58 25L57 25L57 24L59 24L59 22L60 22L60 23L61 23L61 22L60 22L60 21L61 21L61 18L60 18L60 17L59 17L59 15L61 15L61 14L59 14L59 15L58 15L58 16L56 16L56 17L58 17L58 19L57 19L57 18L55 18L55 17L54 17L54 18L53 18L53 16L55 16L55 15L53 15L53 14L52 14L52 15L51 15L51 13L52 13L52 12L53 12L53 11L54 11L54 12L55 12L55 13L54 13L54 14L55 14L55 13L56 13L56 14L58 14L58 13L57 13L57 12L59 12L59 11L60 11L60 12L61 12L61 10L60 10L60 9L61 9L61 8L60 8L60 9L58 9L58 11L57 11L57 9L55 9L55 8L54 8L54 10L53 10L53 9L52 9L52 7L53 7L53 6L52 6L52 7L51 7L51 5L52 5L52 4L53 4L53 0L51 0L51 2L49 2L49 0L48 0L48 2L47 2L47 0L45 0L45 1L44 1L44 2L42 2L42 1L43 1L43 0L42 0L42 1L41 1L41 0L40 0L40 2L38 2L38 1L39 1L39 0L33 0L33 1L32 1L32 2L30 2L30 1L31 1L31 0L30 0L30 1L29 1L29 0L28 0L28 1L27 1L27 3L26 3L26 4L23 4L23 3L22 3L22 2L24 2L24 3L25 3L25 1L26 1L26 0L22 0L22 1L21 1L21 0L19 0L19 1L18 1L18 0L17 0L17 1L16 1L16 2L17 2L17 3L18 3L18 4L17 4L17 5L16 5L16 4L15 4L15 0ZM10 1L10 2L11 2L11 1ZM19 1L19 2L18 2L18 3L19 3L19 4L18 4L18 5L20 5L20 4L21 4L21 2L20 2L20 1ZM28 1L28 2L29 2L29 3L27 3L27 4L26 4L26 5L27 5L27 7L26 7L26 6L25 6L25 7L24 7L24 6L23 6L23 7L22 7L22 5L21 5L21 8L20 8L20 6L19 6L19 8L20 8L20 10L18 10L18 11L17 11L17 10L15 10L15 9L18 9L18 8L15 8L15 7L16 7L16 5L15 5L15 4L13 4L13 5L12 5L12 6L11 6L11 7L12 7L12 6L13 6L13 8L11 8L11 9L12 9L12 10L11 10L11 12L10 12L10 14L9 14L9 15L11 15L11 16L12 16L12 14L13 14L13 13L12 13L12 14L11 14L11 12L12 12L12 11L13 11L13 12L15 12L15 13L14 13L14 15L16 15L16 14L17 14L17 16L18 16L18 15L19 15L19 17L20 17L20 19L21 19L21 18L22 18L22 16L25 16L25 15L23 15L23 14L21 14L21 16L20 16L20 14L19 14L19 13L17 13L17 12L18 12L18 11L22 11L22 12L20 12L20 13L22 13L22 12L23 12L23 11L24 11L24 13L25 13L25 14L26 14L26 16L28 16L28 17L27 17L27 18L25 18L25 17L23 17L23 18L24 18L24 20L23 20L23 19L22 19L22 20L21 20L21 23L20 23L20 24L21 24L21 23L22 23L22 22L23 22L23 24L24 24L24 25L23 25L23 26L24 26L24 27L26 27L26 25L25 25L25 24L24 24L24 21L26 21L26 22L25 22L25 23L26 23L26 24L28 24L28 23L26 23L26 22L27 22L27 18L28 18L28 22L29 22L29 19L30 19L30 17L29 17L29 16L28 16L28 15L30 15L30 16L32 16L32 15L33 15L33 14L34 14L34 15L35 15L35 16L37 16L37 18L34 18L34 20L33 20L33 21L32 21L32 19L31 19L31 20L30 20L30 22L31 22L31 21L32 21L32 22L34 22L34 21L35 21L35 19L36 19L36 20L37 20L37 21L38 21L38 19L39 19L39 20L40 20L40 18L41 18L41 19L43 19L43 18L44 18L44 21L45 21L45 18L46 18L46 20L47 20L47 19L48 19L48 20L49 20L49 19L50 19L50 21L53 21L53 22L54 22L54 24L55 24L55 25L56 25L56 27L55 27L55 26L54 26L54 25L53 25L53 23L52 23L52 24L51 24L51 22L49 22L49 21L48 21L48 22L47 22L47 23L48 23L48 24L49 24L49 27L48 27L48 25L47 25L47 24L45 24L45 25L46 25L46 27L43 27L43 26L44 26L44 23L45 23L45 22L42 22L42 21L43 21L43 20L42 20L42 21L41 21L41 22L40 22L40 21L39 21L39 22L38 22L38 23L36 23L36 22L35 22L35 23L32 23L32 24L35 24L35 25L33 25L33 26L34 26L34 29L33 29L33 30L34 30L34 31L33 31L33 33L32 33L32 36L31 36L31 37L33 37L33 38L36 38L36 36L37 36L37 39L35 39L35 41L36 41L36 40L37 40L37 39L38 39L38 37L39 37L39 39L40 39L40 40L38 40L38 41L37 41L37 42L36 42L36 43L35 43L35 42L33 42L33 41L34 41L34 40L33 40L33 41L30 41L30 42L32 42L32 43L31 43L31 44L32 44L32 45L33 45L33 46L34 46L34 45L33 45L33 44L37 44L37 45L40 45L40 44L37 44L37 42L38 42L38 43L40 43L40 42L39 42L39 41L41 41L41 42L42 42L42 43L44 43L44 46L42 46L42 47L43 47L43 49L44 49L44 51L43 51L43 50L42 50L42 52L41 52L41 51L40 51L40 48L41 48L41 49L42 49L42 48L41 48L41 46L37 46L37 47L36 47L36 45L35 45L35 47L34 47L34 52L35 52L35 53L34 53L34 54L36 54L36 52L37 52L37 53L38 53L38 55L40 55L40 54L41 54L41 53L42 53L42 52L43 52L43 53L44 53L44 54L42 54L42 55L41 55L41 56L43 56L43 55L44 55L44 57L46 57L46 56L45 56L45 55L44 55L44 54L45 54L45 53L44 53L44 52L45 52L45 50L46 50L46 51L47 51L47 52L49 52L49 53L50 53L50 55L51 55L51 56L52 56L52 54L51 54L51 52L50 52L50 51L49 51L49 50L48 50L48 49L44 49L44 46L45 46L45 47L46 47L46 48L47 48L47 47L46 47L46 46L45 46L45 43L44 43L44 42L42 42L42 41L41 41L41 38L42 38L42 39L43 39L43 40L46 40L46 41L47 41L47 42L46 42L46 44L49 44L49 42L50 42L50 43L52 43L52 42L54 42L54 41L55 41L55 39L53 39L53 38L52 38L52 37L51 37L51 38L52 38L52 39L53 39L53 40L54 40L54 41L51 41L51 40L50 40L50 36L51 36L51 34L52 34L52 36L53 36L53 34L54 34L54 33L53 33L53 34L52 34L52 31L51 31L51 29L52 29L52 27L54 27L54 28L57 28L57 25L56 25L56 22L57 22L57 19L56 19L56 22L54 22L54 21L55 21L55 20L54 20L54 21L53 21L53 19L52 19L52 18L51 18L51 17L52 17L52 16L53 16L53 15L52 15L52 16L51 16L51 15L48 15L48 14L47 14L47 13L48 13L48 12L49 12L49 13L51 13L51 10L50 10L50 12L49 12L49 10L47 10L47 11L48 11L48 12L47 12L47 13L46 13L46 16L45 16L45 15L44 15L44 14L42 14L42 12L44 12L44 11L46 11L46 10L45 10L45 7L46 7L46 6L47 6L47 7L48 7L48 8L46 8L46 9L48 9L48 8L50 8L50 9L51 9L51 8L50 8L50 5L49 5L49 4L47 4L47 3L46 3L46 4L45 4L45 5L44 5L44 3L43 3L43 5L42 5L42 6L41 6L41 8L42 8L42 6L43 6L43 7L44 7L44 8L43 8L43 10L42 10L42 11L41 11L41 9L40 9L40 10L38 10L38 9L39 9L39 8L40 8L40 6L39 6L39 7L38 7L38 3L37 3L37 2L36 2L36 1L35 1L35 4L34 4L34 5L33 5L33 7L34 7L34 8L33 8L33 10L34 10L34 8L38 8L38 9L35 9L35 10L37 10L37 11L36 11L36 12L33 12L33 11L32 11L32 10L31 10L31 9L29 9L29 10L27 10L27 11L26 11L26 8L27 8L27 9L28 9L28 8L27 8L27 7L28 7L28 5L27 5L27 4L31 4L31 3L30 3L30 2L29 2L29 1ZM33 1L33 2L32 2L32 3L34 3L34 1ZM40 2L40 3L41 3L41 4L42 4L42 2ZM48 2L48 3L49 3L49 2ZM36 3L36 4L37 4L37 3ZM51 3L51 4L52 4L52 3ZM39 4L39 5L40 5L40 4ZM29 5L29 8L32 8L32 5ZM35 5L35 6L34 6L34 7L35 7L35 6L36 6L36 7L37 7L37 5ZM45 5L45 6L44 6L44 7L45 7L45 6L46 6L46 5ZM47 5L47 6L48 6L48 7L49 7L49 5ZM8 6L8 8L9 8L9 6ZM14 6L14 7L15 7L15 6ZM17 6L17 7L18 7L18 6ZM30 6L30 7L31 7L31 6ZM25 7L25 8L26 8L26 7ZM3 8L3 9L5 9L5 8ZM6 8L6 9L7 9L7 8ZM13 8L13 9L14 9L14 8ZM21 8L21 9L23 9L23 8ZM24 9L24 11L25 11L25 13L27 13L27 12L26 12L26 11L25 11L25 9ZM14 10L14 11L15 11L15 12L17 12L17 11L15 11L15 10ZM30 10L30 12L31 12L31 14L32 14L32 13L33 13L33 12L32 12L32 11L31 11L31 10ZM43 10L43 11L44 11L44 10ZM52 10L52 11L53 11L53 10ZM54 10L54 11L55 11L55 12L56 12L56 11L55 11L55 10ZM6 11L6 12L7 12L7 11ZM28 11L28 13L29 13L29 14L30 14L30 13L29 13L29 11ZM38 11L38 14L35 14L35 15L38 15L38 17L39 17L39 18L40 18L40 16L39 16L39 14L40 14L40 15L42 15L42 16L43 16L43 15L42 15L42 14L40 14L40 13L41 13L41 12L39 12L39 11ZM36 12L36 13L37 13L37 12ZM6 13L6 14L7 14L7 15L6 15L6 16L7 16L7 17L5 17L5 18L7 18L7 19L6 19L6 20L5 20L5 19L4 19L4 18L2 18L2 19L4 19L4 20L5 20L5 21L6 21L6 22L9 22L9 21L6 21L6 20L7 20L7 19L8 19L8 18L9 18L9 16L8 16L8 14L7 14L7 13ZM15 13L15 14L16 14L16 13ZM27 14L27 15L28 15L28 14ZM2 16L2 17L3 17L3 16ZM13 16L13 17L14 17L14 16ZM33 16L33 17L34 17L34 16ZM44 16L44 17L45 17L45 16ZM47 16L47 17L46 17L46 18L47 18L47 17L49 17L49 18L48 18L48 19L49 19L49 18L50 18L50 17L51 17L51 16ZM28 17L28 18L29 18L29 17ZM31 17L31 18L32 18L32 17ZM42 17L42 18L43 18L43 17ZM37 18L37 19L38 19L38 18ZM54 18L54 19L55 19L55 18ZM9 19L9 20L10 20L10 19ZM25 19L25 20L26 20L26 19ZM58 19L58 22L59 22L59 21L60 21L60 19ZM22 20L22 21L23 21L23 20ZM15 21L15 22L14 22L14 23L16 23L16 21ZM39 22L39 23L40 23L40 22ZM41 22L41 24L36 24L36 25L35 25L35 28L36 28L36 30L35 30L35 29L34 29L34 30L35 30L35 31L34 31L34 33L33 33L33 35L35 35L35 34L36 34L36 35L38 35L38 34L41 34L41 36L39 36L39 37L41 37L41 36L42 36L42 38L43 38L43 37L45 37L45 38L46 38L46 37L48 37L48 38L49 38L49 36L50 36L50 35L49 35L49 34L51 34L51 31L50 31L50 30L49 30L49 31L50 31L50 32L48 32L48 34L47 34L47 33L46 33L46 34L45 34L45 33L44 33L44 31L45 31L45 32L46 32L46 31L45 31L45 30L48 30L48 29L49 29L49 28L50 28L50 29L51 29L51 28L50 28L50 27L51 27L51 26L52 26L52 25L51 25L51 24L50 24L50 23L49 23L49 22L48 22L48 23L49 23L49 24L50 24L50 27L49 27L49 28L48 28L48 29L45 29L45 28L44 28L44 29L42 29L42 26L43 26L43 25L41 25L41 24L43 24L43 23L42 23L42 22ZM6 23L6 24L7 24L7 23ZM30 24L30 25L31 25L31 24ZM60 24L60 25L61 25L61 24ZM24 25L24 26L25 26L25 25ZM27 25L27 26L29 26L29 27L28 27L28 28L29 28L29 27L31 27L31 28L33 28L33 27L32 27L32 26L29 26L29 25ZM19 26L19 28L20 28L20 30L19 30L19 29L18 29L18 30L17 30L17 31L18 31L18 32L19 32L19 33L18 33L18 34L19 34L19 33L20 33L20 30L21 30L21 29L22 29L22 30L23 30L23 31L22 31L22 32L23 32L23 31L26 31L26 28L24 28L24 29L23 29L23 27L22 27L22 28L20 28L20 27L21 27L21 26ZM6 27L6 28L8 28L8 27ZM36 27L36 28L37 28L37 29L38 29L38 31L37 31L37 30L36 30L36 31L35 31L35 33L36 33L36 34L38 34L38 33L39 33L39 32L40 32L40 31L39 31L39 30L41 30L41 31L44 31L44 30L42 30L42 29L41 29L41 27L38 27L38 28L37 28L37 27ZM46 27L46 28L47 28L47 27ZM9 28L9 30L10 30L10 28ZM14 28L14 29L15 29L15 28ZM5 29L5 32L8 32L8 29ZM24 29L24 30L25 30L25 29ZM29 29L29 32L32 32L32 29ZM53 29L53 32L56 32L56 29ZM1 30L1 31L2 31L2 30ZM6 30L6 31L7 31L7 30ZM18 30L18 31L19 31L19 30ZM27 30L27 31L28 31L28 30ZM30 30L30 31L31 31L31 30ZM54 30L54 31L55 31L55 30ZM59 30L59 31L60 31L60 30ZM14 31L14 32L16 32L16 31ZM9 32L9 34L7 34L7 33L6 33L6 34L7 34L7 35L6 35L6 36L5 36L5 34L4 34L4 35L3 35L3 37L4 37L4 36L5 36L5 38L7 38L7 37L8 37L8 38L9 38L9 39L6 39L6 40L4 40L4 38L3 38L3 40L4 40L4 41L5 41L5 42L7 42L7 43L9 43L9 42L8 42L8 41L9 41L9 39L10 39L10 40L12 40L12 41L11 41L11 42L10 42L10 44L9 44L9 45L8 45L8 44L7 44L7 45L6 45L6 46L7 46L7 47L6 47L6 48L5 48L5 46L4 46L4 45L3 45L3 48L2 48L2 49L3 49L3 48L4 48L4 50L5 50L5 49L6 49L6 50L7 50L7 51L8 51L8 50L9 50L9 49L8 49L8 48L9 48L9 46L11 46L11 45L10 45L10 44L11 44L11 43L12 43L12 41L13 41L13 42L15 42L15 43L14 43L14 44L13 44L13 45L14 45L14 44L16 44L16 45L18 45L18 46L19 46L19 47L17 47L17 49L18 49L18 50L20 50L20 51L18 51L18 52L20 52L20 54L21 54L21 55L22 55L22 54L23 54L23 55L24 55L24 53L25 53L25 54L26 54L26 53L25 53L25 52L26 52L26 51L25 51L25 50L27 50L27 49L26 49L26 48L28 48L28 47L27 47L27 46L28 46L28 45L29 45L29 48L30 48L30 46L31 46L31 45L30 45L30 43L29 43L29 44L28 44L28 43L26 43L26 42L27 42L27 41L29 41L29 40L28 40L28 39L30 39L30 40L32 40L32 38L31 38L31 39L30 39L30 38L28 38L28 39L26 39L26 38L27 38L27 37L28 37L28 35L27 35L27 37L26 37L26 36L24 36L24 37L26 37L26 38L21 38L21 41L22 41L22 42L20 42L20 43L19 43L19 42L18 42L18 41L17 41L17 43L16 43L16 42L15 42L15 41L16 41L16 40L17 40L17 39L16 39L16 40L15 40L15 41L13 41L13 40L12 40L12 39L11 39L11 38L9 38L9 37L10 37L10 36L9 36L9 34L10 34L10 35L11 35L11 33L10 33L10 32ZM25 32L25 34L27 34L27 32ZM36 32L36 33L37 33L37 32ZM41 32L41 33L42 33L42 32ZM16 33L16 34L17 34L17 33ZM23 33L23 34L22 34L22 36L21 36L21 35L20 35L20 37L22 37L22 36L23 36L23 35L24 35L24 33ZM29 33L29 34L31 34L31 33ZM58 33L58 35L57 35L57 36L61 36L61 34L59 34L59 33ZM14 34L14 35L15 35L15 34ZM42 34L42 35L43 35L43 36L44 36L44 35L43 35L43 34ZM29 35L29 36L30 36L30 35ZM45 35L45 37L46 37L46 36L47 36L47 35ZM48 35L48 36L49 36L49 35ZM54 35L54 37L55 37L55 35ZM6 36L6 37L7 37L7 36ZM8 36L8 37L9 37L9 36ZM34 36L34 37L35 37L35 36ZM0 37L0 38L1 38L1 37ZM24 39L24 40L23 40L23 42L22 42L22 43L23 43L23 44L22 44L22 45L23 45L23 44L25 44L25 45L24 45L24 46L22 46L22 47L23 47L23 50L22 50L22 52L24 52L24 51L23 51L23 50L24 50L24 49L25 49L25 48L26 48L26 47L25 47L25 45L26 45L26 44L25 44L25 41L26 41L26 40L25 40L25 39ZM6 40L6 41L7 41L7 40ZM19 40L19 41L20 41L20 40ZM24 40L24 41L25 41L25 40ZM47 40L47 41L48 41L48 42L47 42L47 43L48 43L48 42L49 42L49 41L50 41L50 40ZM59 41L59 42L60 42L60 41ZM23 42L23 43L24 43L24 42ZM55 42L55 43L53 43L53 44L52 44L52 45L51 45L51 44L50 44L50 45L49 45L49 46L48 46L48 48L49 48L49 49L50 49L50 48L51 48L51 46L52 46L52 47L53 47L53 48L52 48L52 49L53 49L53 48L55 48L55 47L54 47L54 46L55 46L55 45L56 45L56 42ZM17 43L17 44L18 44L18 45L19 45L19 46L20 46L20 47L19 47L19 48L18 48L18 49L20 49L20 50L21 50L21 49L20 49L20 47L21 47L21 44L20 44L20 45L19 45L19 43ZM32 43L32 44L33 44L33 43ZM42 44L42 45L43 45L43 44ZM53 44L53 45L52 45L52 46L54 46L54 45L55 45L55 44ZM50 45L50 46L51 46L51 45ZM12 46L12 47L10 47L10 51L11 51L11 48L12 48L12 51L13 51L13 48L14 48L14 46ZM15 46L15 47L16 47L16 46ZM60 46L60 47L61 47L61 46ZM31 47L31 49L28 49L28 52L31 52L31 49L32 49L32 48L33 48L33 47ZM35 47L35 52L36 52L36 50L37 50L37 49L38 49L38 51L37 51L37 52L38 52L38 53L39 53L39 54L40 54L40 52L39 52L39 49L38 49L38 48L39 48L39 47L37 47L37 48L36 48L36 47ZM49 47L49 48L50 48L50 47ZM6 48L6 49L7 49L7 50L8 50L8 49L7 49L7 48ZM60 48L60 49L61 49L61 48ZM29 50L29 51L30 51L30 50ZM47 50L47 51L48 51L48 50ZM3 51L3 52L4 52L4 51ZM59 52L59 53L57 53L57 54L59 54L59 53L60 53L60 52ZM14 53L14 55L15 55L15 53ZM27 53L27 55L28 55L28 53ZM29 53L29 56L32 56L32 53ZM53 53L53 56L56 56L56 53ZM30 54L30 55L31 55L31 54ZM54 54L54 55L55 55L55 54ZM25 55L25 56L23 56L23 57L25 57L25 56L26 56L26 57L27 57L27 56L26 56L26 55ZM33 55L33 57L35 57L35 56L37 56L37 55ZM58 55L58 57L59 57L59 58L58 58L58 59L59 59L59 58L60 58L60 57L59 57L59 55ZM30 57L30 58L31 58L31 60L32 60L32 58L31 58L31 57ZM51 57L51 58L52 58L52 59L53 59L53 60L54 60L54 59L56 59L56 58L57 58L57 57L54 57L54 59L53 59L53 57ZM24 58L24 59L23 59L23 60L24 60L24 59L25 59L25 58ZM33 58L33 59L34 59L34 58ZM45 58L45 59L46 59L46 58ZM47 58L47 59L48 59L48 60L49 60L49 59L48 59L48 58ZM36 60L36 61L37 61L37 60ZM0 0L0 7L7 7L7 0ZM1 1L1 6L6 6L6 1ZM2 2L2 5L5 5L5 2ZM54 0L54 7L61 7L61 0ZM55 1L55 6L60 6L60 1ZM56 2L56 5L59 5L59 2ZM0 54L0 61L7 61L7 54ZM1 55L1 60L6 60L6 55ZM2 56L2 59L5 59L5 56Z" fill="#eb0f0f"/></g></g></svg>
