<?xml version="1.0" encoding="UTF-8"?>
<svg xmlns="http://www.w3.org/2000/svg" version="1.1" width="250" height="250" viewBox="0 0 250 250"><rect x="0" y="0" width="250" height="250" fill="#ffffff"/><g transform="scale(3.425)"><g transform="translate(0,0)"><path fill-rule="evenodd" d="M11 0L11 3L10 3L10 2L8 2L8 3L10 3L10 4L11 4L11 6L10 6L10 5L9 5L9 6L8 6L8 8L4 8L4 9L3 9L3 8L0 8L0 10L1 10L1 11L2 11L2 12L1 12L1 15L0 15L0 19L1 19L1 20L2 20L2 23L1 23L1 24L0 24L0 28L1 28L1 30L2 30L2 31L0 31L0 33L3 33L3 34L4 34L4 33L7 33L7 34L5 34L5 37L4 37L4 40L5 40L5 42L6 42L6 43L4 43L4 46L3 46L3 41L2 41L2 40L3 40L3 38L2 38L2 37L3 37L3 35L1 35L1 34L0 34L0 36L1 36L1 37L0 37L0 40L1 40L1 41L2 41L2 44L1 44L1 45L0 45L0 53L1 53L1 54L0 54L0 57L1 57L1 58L3 58L3 59L2 59L2 60L0 60L0 61L1 61L1 62L0 62L0 63L2 63L2 62L3 62L3 64L4 64L4 65L5 65L5 63L7 63L7 64L6 64L6 65L8 65L8 69L9 69L9 68L10 68L10 70L11 70L11 72L10 72L10 71L9 71L9 70L8 70L8 73L11 73L11 72L12 72L12 73L15 73L15 72L12 72L12 71L16 71L16 73L17 73L17 72L18 72L18 71L19 71L19 73L21 73L21 72L22 72L22 73L23 73L23 72L24 72L24 73L25 73L25 72L24 72L24 71L25 71L25 70L26 70L26 71L27 71L27 72L28 72L28 73L29 73L29 72L30 72L30 73L31 73L31 72L32 72L32 73L33 73L33 72L34 72L34 73L43 73L43 72L44 72L44 73L46 73L46 71L47 71L47 70L48 70L48 71L49 71L49 72L48 72L48 73L49 73L49 72L50 72L50 73L51 73L51 70L52 70L52 71L53 71L53 72L52 72L52 73L53 73L53 72L54 72L54 73L55 73L55 72L54 72L54 71L55 71L55 70L56 70L56 71L59 71L59 70L60 70L60 73L65 73L65 72L66 72L66 69L67 69L67 71L68 71L68 73L69 73L69 71L70 71L70 69L69 69L69 68L70 68L70 67L71 67L71 70L72 70L72 71L71 71L71 73L73 73L73 72L72 72L72 71L73 71L73 70L72 70L72 69L73 69L73 68L72 68L72 67L73 67L73 64L72 64L72 63L73 63L73 61L72 61L72 60L73 60L73 56L72 56L72 57L71 57L71 56L70 56L70 57L69 57L69 58L68 58L68 57L67 57L67 55L68 55L68 56L69 56L69 55L68 55L68 54L67 54L67 52L66 52L66 53L65 53L65 51L66 51L66 50L67 50L67 49L69 49L69 50L68 50L68 52L70 52L70 51L71 51L71 50L72 50L72 51L73 51L73 48L72 48L72 47L73 47L73 44L72 44L72 45L71 45L71 46L69 46L69 44L70 44L70 43L69 43L69 42L68 42L68 41L69 41L69 40L70 40L70 39L69 39L69 38L70 38L70 37L69 37L69 36L70 36L70 35L71 35L71 36L72 36L72 39L71 39L71 40L72 40L72 41L71 41L71 43L73 43L73 32L72 32L72 31L73 31L73 28L72 28L72 27L73 27L73 25L72 25L72 23L73 23L73 16L72 16L72 15L73 15L73 12L72 12L72 11L73 11L73 10L70 10L70 11L71 11L71 12L72 12L72 13L71 13L71 14L69 14L69 15L71 15L71 16L72 16L72 17L71 17L71 18L70 18L70 17L69 17L69 16L68 16L68 15L67 15L67 14L66 14L66 13L69 13L69 12L68 12L68 9L67 9L67 8L64 8L64 7L65 7L65 6L64 6L64 7L63 7L63 5L65 5L65 4L64 4L64 3L61 3L61 2L63 2L63 0L62 0L62 1L61 1L61 0L60 0L60 1L59 1L59 0L58 0L58 1L59 1L59 2L58 2L58 3L57 3L57 2L56 2L56 1L57 1L57 0L56 0L56 1L55 1L55 0L54 0L54 1L55 1L55 2L54 2L54 3L53 3L53 2L52 2L52 1L53 1L53 0L52 0L52 1L51 1L51 0L50 0L50 1L51 1L51 2L48 2L48 1L49 1L49 0L48 0L48 1L47 1L47 0L45 0L45 1L44 1L44 2L45 2L45 1L47 1L47 2L46 2L46 3L45 3L45 4L44 4L44 3L43 3L43 0L41 0L41 2L42 2L42 3L41 3L41 4L40 4L40 1L39 1L39 0L38 0L38 1L37 1L37 0L36 0L36 1L35 1L35 0L32 0L32 1L31 1L31 0L28 0L28 1L27 1L27 2L26 2L26 3L27 3L27 4L24 4L24 5L23 5L23 4L22 4L22 3L25 3L25 2L22 2L22 1L23 1L23 0L20 0L20 1L19 1L19 2L20 2L20 3L21 3L21 4L20 4L20 5L19 5L19 6L18 6L18 7L17 7L17 3L18 3L18 2L17 2L17 1L18 1L18 0L17 0L17 1L16 1L16 0ZM24 0L24 1L25 1L25 0ZM64 0L64 1L65 1L65 0ZM28 1L28 2L27 2L27 3L28 3L28 2L29 2L29 3L30 3L30 4L29 4L29 5L30 5L30 4L31 4L31 5L32 5L32 6L31 6L31 7L30 7L30 6L29 6L29 7L30 7L30 8L29 8L29 9L28 9L28 10L27 10L27 11L26 11L26 10L25 10L25 9L24 9L24 8L23 8L23 7L24 7L24 6L23 6L23 7L22 7L22 6L21 6L21 5L20 5L20 6L19 6L19 7L18 7L18 8L17 8L17 7L16 7L16 5L15 5L15 4L13 4L13 3L14 3L14 2L12 2L12 3L11 3L11 4L13 4L13 8L14 8L14 5L15 5L15 9L14 9L14 10L13 10L13 11L14 11L14 12L15 12L15 13L12 13L12 14L11 14L11 15L10 15L10 13L11 13L11 11L12 11L12 10L11 10L11 11L9 11L9 10L10 10L10 9L11 9L11 7L12 7L12 6L11 6L11 7L10 7L10 6L9 6L9 8L10 8L10 9L5 9L5 10L4 10L4 12L5 12L5 13L2 13L2 18L1 18L1 19L2 19L2 20L5 20L5 21L3 21L3 22L4 22L4 24L7 24L7 23L5 23L5 22L8 22L8 21L10 21L10 20L12 20L12 19L10 19L10 18L13 18L13 19L15 19L15 18L16 18L16 16L15 16L15 15L17 15L17 19L18 19L18 20L16 20L16 21L14 21L14 20L13 20L13 23L12 23L12 22L11 22L11 25L10 25L10 22L9 22L9 23L8 23L8 24L9 24L9 26L12 26L12 27L11 27L11 28L12 28L12 27L13 27L13 28L14 28L14 29L13 29L13 30L12 30L12 34L11 34L11 32L10 32L10 30L9 30L9 32L7 32L7 31L6 31L6 32L7 32L7 33L9 33L9 34L7 34L7 35L6 35L6 36L7 36L7 37L5 37L5 39L6 39L6 40L7 40L7 41L6 41L6 42L7 42L7 41L8 41L8 43L6 43L6 44L8 44L8 43L9 43L9 42L10 42L10 43L12 43L12 44L13 44L13 45L14 45L14 42L15 42L15 43L16 43L16 44L15 44L15 48L13 48L13 47L12 47L12 48L10 48L10 47L11 47L11 45L10 45L10 44L9 44L9 46L10 46L10 47L9 47L9 48L10 48L10 49L9 49L9 50L7 50L7 49L6 49L6 50L7 50L7 51L5 51L5 50L4 50L4 47L3 47L3 46L2 46L2 45L1 45L1 46L2 46L2 49L1 49L1 50L2 50L2 51L3 51L3 54L4 54L4 52L9 52L9 53L6 53L6 54L9 54L9 55L8 55L8 56L7 56L7 55L4 55L4 56L5 56L5 57L6 57L6 58L5 58L5 59L3 59L3 60L2 60L2 61L3 61L3 62L4 62L4 63L5 63L5 62L4 62L4 61L6 61L6 62L8 62L8 63L9 63L9 64L8 64L8 65L9 65L9 64L12 64L12 62L13 62L13 63L14 63L14 64L15 64L15 63L16 63L16 64L17 64L17 66L16 66L16 65L14 65L14 67L15 67L15 68L14 68L14 69L15 69L15 68L16 68L16 69L17 69L17 68L18 68L18 67L17 67L17 66L18 66L18 64L17 64L17 62L19 62L19 61L18 61L18 60L19 60L19 59L20 59L20 58L21 58L21 59L22 59L22 60L21 60L21 61L20 61L20 63L21 63L21 66L19 66L19 67L20 67L20 68L21 68L21 69L20 69L20 70L19 70L19 71L20 71L20 72L21 72L21 71L22 71L22 72L23 72L23 71L24 71L24 70L22 70L22 69L24 69L24 68L23 68L23 67L24 67L24 66L23 66L23 67L22 67L22 68L21 68L21 66L22 66L22 63L21 63L21 62L23 62L23 65L24 65L24 64L25 64L25 63L26 63L26 62L28 62L28 63L27 63L27 64L29 64L29 67L30 67L30 68L29 68L29 69L26 69L26 70L27 70L27 71L30 71L30 72L31 72L31 71L32 71L32 69L30 69L30 68L31 68L31 65L30 65L30 63L32 63L32 62L33 62L33 65L32 65L32 67L34 67L34 68L33 68L33 69L34 69L34 70L33 70L33 71L34 71L34 72L35 72L35 69L34 69L34 68L35 68L35 65L36 65L36 62L37 62L37 64L39 64L39 63L40 63L40 62L41 62L41 65L40 65L40 67L39 67L39 65L37 65L37 67L38 67L38 68L37 68L37 69L38 69L38 70L36 70L36 71L37 71L37 72L38 72L38 71L39 71L39 72L40 72L40 71L42 71L42 72L43 72L43 71L44 71L44 72L45 72L45 71L44 71L44 70L45 70L45 69L44 69L44 68L43 68L43 67L44 67L44 66L43 66L43 65L44 65L44 64L47 64L47 63L46 63L46 62L49 62L49 61L50 61L50 62L51 62L51 63L50 63L50 64L49 64L49 63L48 63L48 64L49 64L49 65L50 65L50 66L51 66L51 68L50 68L50 70L51 70L51 69L52 69L52 70L53 70L53 69L54 69L54 70L55 70L55 69L56 69L56 70L57 70L57 69L58 69L58 70L59 70L59 69L60 69L60 70L61 70L61 69L62 69L62 70L63 70L63 71L62 71L62 72L63 72L63 71L64 71L64 67L62 67L62 68L60 68L60 66L61 66L61 65L62 65L62 66L63 66L63 65L64 65L64 64L67 64L67 63L66 63L66 61L65 61L65 60L64 60L64 58L65 58L65 59L66 59L66 58L67 58L67 59L68 59L68 61L67 61L67 62L69 62L69 63L68 63L68 64L69 64L69 65L70 65L70 66L69 66L69 67L70 67L70 66L71 66L71 67L72 67L72 64L71 64L71 63L72 63L72 62L71 62L71 60L72 60L72 59L70 59L70 58L71 58L71 57L70 57L70 58L69 58L69 59L68 59L68 58L67 58L67 57L66 57L66 58L65 58L65 57L64 57L64 56L65 56L65 55L66 55L66 54L64 54L64 53L62 53L62 52L64 52L64 51L65 51L65 50L64 50L64 47L63 47L63 46L64 46L64 44L67 44L67 42L66 42L66 41L67 41L67 39L68 39L68 38L69 38L69 37L68 37L68 36L67 36L67 35L65 35L65 33L64 33L64 32L65 32L65 29L64 29L64 28L63 28L63 27L64 27L64 26L63 26L63 25L62 25L62 24L63 24L63 23L64 23L64 24L65 24L65 23L66 23L66 22L68 22L68 23L67 23L67 24L71 24L71 23L69 23L69 21L70 21L70 22L71 22L71 20L72 20L72 19L70 19L70 18L69 18L69 17L68 17L68 16L67 16L67 15L65 15L65 14L62 14L62 16L61 16L61 15L60 15L60 14L61 14L61 13L60 13L60 12L61 12L61 11L59 11L59 10L58 10L58 11L59 11L59 13L58 13L58 14L59 14L59 17L58 17L58 16L57 16L57 15L56 15L56 14L57 14L57 13L56 13L56 12L57 12L57 11L56 11L56 10L57 10L57 9L60 9L60 6L59 6L59 5L58 5L58 4L59 4L59 3L58 3L58 4L57 4L57 3L56 3L56 4L55 4L55 3L54 3L54 4L53 4L53 3L52 3L52 4L51 4L51 5L50 5L50 4L49 4L49 3L48 3L48 2L47 2L47 4L49 4L49 7L50 7L50 8L49 8L49 9L48 9L48 10L47 10L47 11L46 11L46 9L45 9L45 11L43 11L43 10L44 10L44 8L43 8L43 7L44 7L44 6L43 6L43 7L42 7L42 6L41 6L41 5L42 5L42 4L43 4L43 5L44 5L44 4L43 4L43 3L42 3L42 4L41 4L41 5L40 5L40 4L39 4L39 3L38 3L38 2L37 2L37 1L36 1L36 2L35 2L35 3L34 3L34 4L35 4L35 7L34 7L34 6L33 6L33 1L32 1L32 4L31 4L31 3L30 3L30 1ZM60 1L60 2L61 2L61 1ZM15 2L15 3L16 3L16 2ZM21 2L21 3L22 3L22 2ZM37 3L37 4L36 4L36 5L37 5L37 6L36 6L36 7L35 7L35 8L36 8L36 9L38 9L38 7L39 7L39 10L40 10L40 11L38 11L38 12L37 12L37 11L35 11L35 12L33 12L33 11L34 11L34 9L33 9L33 8L34 8L34 7L33 7L33 6L32 6L32 7L31 7L31 8L30 8L30 9L29 9L29 10L28 10L28 11L27 11L27 12L26 12L26 11L25 11L25 10L24 10L24 9L23 9L23 8L22 8L22 7L21 7L21 6L20 6L20 7L19 7L19 9L18 9L18 10L20 10L20 7L21 7L21 8L22 8L22 9L23 9L23 10L22 10L22 11L19 11L19 12L18 12L18 11L17 11L17 12L18 12L18 13L19 13L19 14L17 14L17 13L16 13L16 14L17 14L17 15L18 15L18 16L20 16L20 15L21 15L21 16L22 16L22 18L21 18L21 20L19 20L19 22L20 22L20 23L18 23L18 25L19 25L19 26L18 26L18 27L17 27L17 28L15 28L15 29L14 29L14 31L15 31L15 32L13 32L13 34L14 34L14 33L15 33L15 32L16 32L16 34L15 34L15 36L13 36L13 37L14 37L14 38L13 38L13 39L14 39L14 40L13 40L13 42L12 42L12 40L11 40L11 39L10 39L10 34L9 34L9 38L8 38L8 37L7 37L7 38L6 38L6 39L7 39L7 40L8 40L8 39L10 39L10 40L9 40L9 41L10 41L10 42L12 42L12 43L13 43L13 42L14 42L14 40L15 40L15 42L16 42L16 43L17 43L17 44L18 44L18 45L19 45L19 46L16 46L16 48L15 48L15 49L14 49L14 50L15 50L15 52L13 52L13 50L11 50L11 49L10 49L10 50L9 50L9 51L11 51L11 52L10 52L10 53L9 53L9 54L10 54L10 55L11 55L11 56L9 56L9 57L7 57L7 56L6 56L6 57L7 57L7 58L6 58L6 59L5 59L5 60L6 60L6 61L8 61L8 62L9 62L9 63L10 63L10 61L9 61L9 59L10 59L10 60L11 60L11 61L12 61L12 59L13 59L13 60L15 60L15 62L17 62L17 61L16 61L16 60L18 60L18 59L19 59L19 58L20 58L20 57L21 57L21 56L22 56L22 57L23 57L23 58L22 58L22 59L25 59L25 60L24 60L24 61L23 61L23 60L22 60L22 61L23 61L23 62L24 62L24 63L25 63L25 62L26 62L26 61L29 61L29 60L28 60L28 57L29 57L29 58L30 58L30 57L31 57L31 58L32 58L32 59L31 59L31 60L30 60L30 61L31 61L31 62L32 62L32 61L33 61L33 60L34 60L34 59L33 59L33 58L34 58L34 57L35 57L35 58L36 58L36 59L35 59L35 60L36 60L36 61L35 61L35 62L34 62L34 64L35 64L35 62L36 62L36 61L39 61L39 62L40 62L40 61L41 61L41 54L42 54L42 53L43 53L43 54L44 54L44 53L45 53L45 54L46 54L46 55L47 55L47 56L46 56L46 57L45 57L45 56L44 56L44 57L45 57L45 58L46 58L46 59L47 59L47 60L46 60L46 61L45 61L45 60L44 60L44 59L43 59L43 60L42 60L42 61L43 61L43 64L42 64L42 65L43 65L43 64L44 64L44 61L45 61L45 62L46 62L46 61L47 61L47 60L48 60L48 58L46 58L46 57L48 57L48 55L49 55L49 56L50 56L50 57L49 57L49 60L50 60L50 61L51 61L51 62L52 62L52 63L53 63L53 64L52 64L52 65L51 65L51 64L50 64L50 65L51 65L51 66L52 66L52 67L53 67L53 68L52 68L52 69L53 69L53 68L54 68L54 69L55 69L55 68L54 68L54 67L55 67L55 66L56 66L56 67L57 67L57 68L56 68L56 69L57 69L57 68L58 68L58 69L59 69L59 68L58 68L58 67L59 67L59 66L60 66L60 65L61 65L61 64L62 64L62 65L63 65L63 64L62 64L62 61L61 61L61 60L63 60L63 61L64 61L64 60L63 60L63 59L62 59L62 58L63 58L63 56L62 56L62 55L63 55L63 54L62 54L62 53L61 53L61 54L60 54L60 53L59 53L59 52L58 52L58 51L59 51L59 50L60 50L60 52L62 52L62 51L63 51L63 50L62 50L62 49L63 49L63 47L62 47L62 44L60 44L60 45L59 45L59 44L58 44L58 43L62 43L62 42L64 42L64 41L65 41L65 40L64 40L64 39L63 39L63 38L64 38L64 37L66 37L66 39L67 39L67 38L68 38L68 37L67 37L67 36L62 36L62 35L64 35L64 34L62 34L62 33L63 33L63 32L62 32L62 30L64 30L64 29L62 29L62 28L60 28L60 29L59 29L59 30L58 30L58 28L56 28L56 29L55 29L55 28L54 28L54 27L55 27L55 26L56 26L56 27L58 27L58 26L59 26L59 24L58 24L58 23L59 23L59 22L60 22L60 27L62 27L62 25L61 25L61 24L62 24L62 23L63 23L63 22L64 22L64 23L65 23L65 22L66 22L66 20L67 20L67 21L69 21L69 20L70 20L70 19L69 19L69 20L67 20L67 18L68 18L68 17L67 17L67 16L66 16L66 17L65 17L65 18L64 18L64 15L63 15L63 16L62 16L62 17L61 17L61 16L60 16L60 17L59 17L59 18L58 18L58 17L57 17L57 16L56 16L56 17L55 17L55 16L54 16L54 15L55 15L55 14L56 14L56 13L55 13L55 12L54 12L54 11L55 11L55 10L56 10L56 9L57 9L57 8L58 8L58 7L59 7L59 6L58 6L58 7L57 7L57 6L56 6L56 5L57 5L57 4L56 4L56 5L55 5L55 4L54 4L54 5L55 5L55 6L54 6L54 7L53 7L53 6L52 6L52 5L53 5L53 4L52 4L52 5L51 5L51 6L50 6L50 7L51 7L51 6L52 6L52 7L53 7L53 8L52 8L52 9L51 9L51 8L50 8L50 9L49 9L49 10L48 10L48 11L47 11L47 12L46 12L46 11L45 11L45 12L46 12L46 13L47 13L47 14L46 14L46 15L45 15L45 13L43 13L43 12L42 12L42 11L41 11L41 10L42 10L42 9L41 9L41 6L40 6L40 7L39 7L39 4L38 4L38 3ZM60 3L60 4L61 4L61 7L62 7L62 8L61 8L61 9L62 9L62 10L63 10L63 11L62 11L62 12L63 12L63 13L65 13L65 12L66 12L66 11L64 11L64 10L66 10L66 9L64 9L64 10L63 10L63 7L62 7L62 5L63 5L63 4L61 4L61 3ZM37 4L37 5L38 5L38 4ZM25 5L25 8L28 8L28 5ZM45 5L45 8L48 8L48 5ZM26 6L26 7L27 7L27 6ZM37 6L37 7L38 7L38 6ZM46 6L46 7L47 7L47 6ZM55 6L55 7L54 7L54 8L53 8L53 9L52 9L52 10L51 10L51 9L50 9L50 10L51 10L51 11L50 11L50 12L49 12L49 11L48 11L48 12L49 12L49 13L48 13L48 14L47 14L47 15L46 15L46 16L45 16L45 15L44 15L44 14L43 14L43 13L42 13L42 12L41 12L41 13L40 13L40 12L39 12L39 13L38 13L38 14L36 14L36 13L32 13L32 12L30 12L30 11L32 11L32 10L33 10L33 9L32 9L32 8L31 8L31 9L30 9L30 10L29 10L29 11L28 11L28 12L27 12L27 13L28 13L28 14L27 14L27 15L26 15L26 14L25 14L25 13L26 13L26 12L25 12L25 11L24 11L24 12L23 12L23 11L22 11L22 12L21 12L21 15L22 15L22 16L23 16L23 17L24 17L24 16L25 16L25 17L26 17L26 16L27 16L27 19L26 19L26 18L25 18L25 19L26 19L26 20L25 20L25 21L24 21L24 20L23 20L23 21L22 21L22 20L21 20L21 21L20 21L20 22L21 22L21 23L20 23L20 26L19 26L19 27L18 27L18 28L17 28L17 30L16 30L16 29L15 29L15 31L16 31L16 32L17 32L17 34L16 34L16 35L17 35L17 36L16 36L16 37L15 37L15 38L14 38L14 39L15 39L15 40L17 40L17 41L16 41L16 42L17 42L17 43L18 43L18 44L19 44L19 45L20 45L20 47L19 47L19 48L21 48L21 51L18 51L18 47L17 47L17 48L16 48L16 49L15 49L15 50L17 50L17 51L16 51L16 52L17 52L17 53L16 53L16 55L13 55L13 57L12 57L12 56L11 56L11 57L12 57L12 58L10 58L10 59L12 59L12 58L14 58L14 56L16 56L16 55L17 55L17 53L18 53L18 56L17 56L17 59L18 59L18 57L19 57L19 55L20 55L20 56L21 56L21 55L22 55L22 56L23 56L23 57L24 57L24 54L25 54L25 55L26 55L26 54L27 54L27 55L28 55L28 56L27 56L27 57L26 57L26 56L25 56L25 57L26 57L26 58L25 58L25 59L26 59L26 58L27 58L27 57L28 57L28 56L29 56L29 57L30 57L30 56L31 56L31 57L32 57L32 58L33 58L33 57L34 57L34 56L35 56L35 54L37 54L37 57L38 57L38 58L37 58L37 60L39 60L39 61L40 61L40 60L39 60L39 59L40 59L40 57L38 57L38 56L40 56L40 55L39 55L39 53L40 53L40 52L39 52L39 51L42 51L42 52L41 52L41 53L42 53L42 52L43 52L43 53L44 53L44 52L45 52L45 53L46 53L46 54L47 54L47 53L48 53L48 54L49 54L49 53L50 53L50 52L51 52L51 53L52 53L52 54L50 54L50 55L51 55L51 57L50 57L50 58L51 58L51 59L50 59L50 60L51 60L51 61L52 61L52 62L53 62L53 61L54 61L54 62L55 62L55 63L54 63L54 64L53 64L53 65L52 65L52 66L53 66L53 65L54 65L54 66L55 66L55 65L56 65L56 66L57 66L57 65L58 65L58 66L59 66L59 65L60 65L60 64L61 64L61 63L60 63L60 62L61 62L61 61L60 61L60 60L61 60L61 59L60 59L60 58L59 58L59 57L60 57L60 56L61 56L61 57L62 57L62 56L61 56L61 55L58 55L58 56L59 56L59 57L58 57L58 58L59 58L59 61L58 61L58 60L57 60L57 59L56 59L56 58L57 58L57 57L56 57L56 56L57 56L57 55L56 55L56 54L57 54L57 53L58 53L58 54L59 54L59 53L58 53L58 52L57 52L57 51L56 51L56 50L57 50L57 49L58 49L58 50L59 50L59 49L60 49L60 50L61 50L61 49L62 49L62 48L61 48L61 47L60 47L60 46L61 46L61 45L60 45L60 46L59 46L59 45L58 45L58 44L57 44L57 43L56 43L56 42L57 42L57 41L58 41L58 42L59 42L59 41L61 41L61 40L60 40L60 39L56 39L56 38L57 38L57 37L58 37L58 38L60 38L60 34L61 34L61 33L62 33L62 32L61 32L61 31L60 31L60 30L61 30L61 29L60 29L60 30L59 30L59 31L58 31L58 32L57 32L57 31L56 31L56 30L57 30L57 29L56 29L56 30L55 30L55 29L54 29L54 28L53 28L53 27L52 27L52 26L53 26L53 25L54 25L54 26L55 26L55 25L56 25L56 26L57 26L57 25L56 25L56 24L57 24L57 23L56 23L56 22L57 22L57 21L58 21L58 22L59 22L59 21L62 21L62 22L63 22L63 21L62 21L62 20L63 20L63 19L62 19L62 20L60 20L60 19L61 19L61 17L60 17L60 18L59 18L59 19L58 19L58 20L57 20L57 19L56 19L56 18L57 18L57 17L56 17L56 18L55 18L55 17L54 17L54 16L53 16L53 15L52 15L52 14L53 14L53 13L54 13L54 14L55 14L55 13L54 13L54 12L53 12L53 9L54 9L54 10L55 10L55 9L56 9L56 8L57 8L57 7L56 7L56 6ZM54 8L54 9L55 9L55 8ZM70 8L70 9L71 9L71 8ZM1 9L1 10L2 10L2 9ZM15 9L15 10L16 10L16 9ZM31 9L31 10L32 10L32 9ZM5 10L5 11L7 11L7 10ZM8 11L8 12L6 12L6 13L7 13L7 14L6 14L6 15L7 15L7 16L5 16L5 17L4 17L4 16L3 16L3 17L4 17L4 18L3 18L3 19L4 19L4 18L5 18L5 19L7 19L7 20L6 20L6 21L7 21L7 20L10 20L10 19L8 19L8 18L10 18L10 17L9 17L9 16L8 16L8 15L9 15L9 14L8 14L8 12L9 12L9 11ZM63 11L63 12L64 12L64 11ZM19 12L19 13L20 13L20 12ZM22 12L22 13L23 13L23 14L22 14L22 15L23 15L23 16L24 16L24 15L25 15L25 16L26 16L26 15L25 15L25 14L24 14L24 13L25 13L25 12L24 12L24 13L23 13L23 12ZM50 12L50 13L49 13L49 14L48 14L48 15L47 15L47 16L46 16L46 17L47 17L47 18L46 18L46 19L45 19L45 16L44 16L44 15L42 15L42 17L43 17L43 19L44 19L44 20L42 20L42 19L39 19L39 20L38 20L38 19L37 19L37 16L38 16L38 17L39 17L39 16L40 16L40 18L41 18L41 14L42 14L42 13L41 13L41 14L40 14L40 13L39 13L39 14L40 14L40 15L39 15L39 16L38 16L38 15L36 15L36 14L35 14L35 16L34 16L34 17L35 17L35 18L36 18L36 20L35 20L35 19L33 19L33 18L32 18L32 17L33 17L33 14L32 14L32 13L31 13L31 14L32 14L32 15L31 15L31 16L32 16L32 17L31 17L31 20L30 20L30 18L29 18L29 20L30 20L30 21L29 21L29 22L30 22L30 21L31 21L31 20L32 20L32 21L37 21L37 22L36 22L36 24L35 24L35 23L34 23L34 22L31 22L31 24L30 24L30 23L28 23L28 24L24 24L24 23L25 23L25 22L28 22L28 21L27 21L27 20L28 20L28 19L27 19L27 20L26 20L26 21L25 21L25 22L22 22L22 23L21 23L21 24L22 24L22 25L23 25L23 26L22 26L22 27L21 27L21 28L22 28L22 29L23 29L23 30L21 30L21 31L20 31L20 30L18 30L18 32L19 32L19 33L18 33L18 34L17 34L17 35L18 35L18 36L17 36L17 37L16 37L16 39L17 39L17 40L18 40L18 43L19 43L19 44L20 44L20 45L21 45L21 44L22 44L22 45L23 45L23 44L24 44L24 47L23 47L23 46L21 46L21 47L22 47L22 48L24 48L24 49L22 49L22 51L21 51L21 52L19 52L19 54L20 54L20 55L21 55L21 54L20 54L20 53L21 53L21 52L22 52L22 55L23 55L23 54L24 54L24 53L25 53L25 54L26 54L26 53L27 53L27 54L28 54L28 53L29 53L29 54L30 54L30 53L32 53L32 54L31 54L31 56L32 56L32 57L33 57L33 56L34 56L34 55L32 55L32 54L34 54L34 53L33 53L33 51L32 51L32 50L33 50L33 49L34 49L34 48L33 48L33 47L35 47L35 48L36 48L36 49L37 49L37 48L38 48L38 47L37 47L37 46L36 46L36 45L38 45L38 44L37 44L37 43L36 43L36 42L37 42L37 40L38 40L38 39L37 39L37 38L38 38L38 37L39 37L39 38L40 38L40 43L39 43L39 44L40 44L40 45L39 45L39 46L40 46L40 47L39 47L39 49L43 49L43 48L44 48L44 50L47 50L47 52L46 52L46 53L47 53L47 52L48 52L48 53L49 53L49 52L48 52L48 51L51 51L51 50L52 50L52 51L53 51L53 52L52 52L52 53L53 53L53 54L52 54L52 55L53 55L53 56L52 56L52 57L51 57L51 58L52 58L52 59L53 59L53 60L52 60L52 61L53 61L53 60L54 60L54 61L55 61L55 62L56 62L56 63L57 63L57 64L56 64L56 65L57 65L57 64L58 64L58 65L59 65L59 64L58 64L58 63L59 63L59 62L60 62L60 61L59 61L59 62L58 62L58 61L57 61L57 60L56 60L56 61L55 61L55 60L54 60L54 59L55 59L55 58L56 58L56 57L55 57L55 56L54 56L54 55L55 55L55 54L56 54L56 53L57 53L57 52L56 52L56 53L55 53L55 52L54 52L54 51L55 51L55 50L56 50L56 49L57 49L57 48L58 48L58 49L59 49L59 48L58 48L58 47L59 47L59 46L58 46L58 45L57 45L57 44L56 44L56 45L55 45L55 44L54 44L54 43L55 43L55 42L56 42L56 41L57 41L57 40L56 40L56 41L55 41L55 40L54 40L54 39L55 39L55 38L56 38L56 37L57 37L57 36L58 36L58 37L59 37L59 36L58 36L58 35L59 35L59 34L60 34L60 33L61 33L61 32L60 32L60 33L59 33L59 32L58 32L58 33L57 33L57 32L56 32L56 33L55 33L55 32L54 32L54 31L55 31L55 30L54 30L54 29L53 29L53 28L52 28L52 29L51 29L51 28L50 28L50 27L51 27L51 26L52 26L52 25L53 25L53 24L54 24L54 25L55 25L55 24L54 24L54 23L55 23L55 22L56 22L56 21L57 21L57 20L56 20L56 21L55 21L55 20L54 20L54 19L55 19L55 18L54 18L54 17L53 17L53 16L52 16L52 17L51 17L51 16L50 16L50 15L51 15L51 14L52 14L52 13L53 13L53 12L52 12L52 13L51 13L51 12ZM29 13L29 14L28 14L28 15L27 15L27 16L28 16L28 15L29 15L29 17L30 17L30 13ZM50 13L50 14L51 14L51 13ZM59 13L59 14L60 14L60 13ZM4 14L4 15L5 15L5 14ZM7 14L7 15L8 15L8 14ZM12 14L12 15L11 15L11 17L15 17L15 16L12 16L12 15L14 15L14 14ZM19 14L19 15L20 15L20 14ZM71 14L71 15L72 15L72 14ZM48 15L48 18L47 18L47 19L46 19L46 20L45 20L45 23L44 23L44 22L43 22L43 21L42 21L42 20L41 20L41 21L38 21L38 20L37 20L37 21L38 21L38 22L37 22L37 23L38 23L38 24L39 24L39 25L36 25L36 26L38 26L38 28L37 28L37 29L36 29L36 28L35 28L35 24L34 24L34 23L33 23L33 25L32 25L32 24L31 24L31 25L30 25L30 24L29 24L29 25L30 25L30 26L29 26L29 29L30 29L30 30L29 30L29 31L28 31L28 30L27 30L27 29L24 29L24 30L23 30L23 31L24 31L24 32L23 32L23 33L24 33L24 34L23 34L23 35L24 35L24 37L23 37L23 36L22 36L22 35L20 35L20 36L21 36L21 37L20 37L20 38L19 38L19 39L18 39L18 38L17 38L17 39L18 39L18 40L19 40L19 39L20 39L20 38L21 38L21 39L22 39L22 40L21 40L21 41L20 41L20 42L19 42L19 43L20 43L20 44L21 44L21 43L22 43L22 44L23 44L23 43L24 43L24 44L25 44L25 43L26 43L26 44L27 44L27 43L28 43L28 41L30 41L30 42L29 42L29 44L30 44L30 45L29 45L29 47L32 47L32 46L35 46L35 47L36 47L36 46L35 46L35 45L36 45L36 43L35 43L35 42L36 42L36 41L34 41L34 40L35 40L35 39L36 39L36 38L35 38L35 35L36 35L36 34L35 34L35 33L36 33L36 32L34 32L34 31L33 31L33 32L34 32L34 33L30 33L30 32L31 32L31 31L32 31L32 30L35 30L35 29L36 29L36 31L40 31L40 30L41 30L41 29L42 29L42 31L41 31L41 32L42 32L42 33L41 33L41 34L40 34L40 35L42 35L42 36L41 36L41 37L40 37L40 38L41 38L41 39L42 39L42 41L41 41L41 45L40 45L40 46L41 46L41 47L42 47L42 48L43 48L43 47L44 47L44 45L42 45L42 43L44 43L44 44L47 44L47 43L48 43L48 44L49 44L49 45L50 45L50 46L51 46L51 47L50 47L50 48L49 48L49 49L48 49L48 50L49 50L49 49L50 49L50 50L51 50L51 49L52 49L52 50L53 50L53 49L54 49L54 50L55 50L55 49L56 49L56 48L57 48L57 47L56 47L56 46L57 46L57 45L56 45L56 46L55 46L55 45L54 45L54 44L53 44L53 43L52 43L52 42L53 42L53 41L54 41L54 42L55 42L55 41L54 41L54 40L53 40L53 39L52 39L52 38L53 38L53 37L54 37L54 38L55 38L55 37L56 37L56 36L57 36L57 35L56 35L56 34L57 34L57 33L56 33L56 34L55 34L55 33L54 33L54 32L53 32L53 31L52 31L52 30L53 30L53 29L52 29L52 30L51 30L51 29L50 29L50 28L49 28L49 29L46 29L46 30L47 30L47 31L48 31L48 32L47 32L47 33L46 33L46 32L45 32L45 29L44 29L44 30L43 30L43 29L42 29L42 28L44 28L44 26L43 26L43 25L44 25L44 24L45 24L45 23L46 23L46 22L47 22L47 23L48 23L48 24L49 24L49 25L50 25L50 26L51 26L51 25L52 25L52 24L53 24L53 23L52 23L52 22L53 22L53 21L54 21L54 22L55 22L55 21L54 21L54 20L53 20L53 19L52 19L52 18L53 18L53 17L52 17L52 18L51 18L51 17L50 17L50 16L49 16L49 15ZM35 16L35 17L36 17L36 16ZM43 16L43 17L44 17L44 16ZM5 17L5 18L8 18L8 17ZM18 17L18 18L19 18L19 19L20 19L20 17ZM49 17L49 18L48 18L48 19L47 19L47 20L46 20L46 21L47 21L47 22L48 22L48 23L49 23L49 24L50 24L50 25L51 25L51 24L50 24L50 22L52 22L52 21L53 21L53 20L52 20L52 21L50 21L50 20L48 20L48 19L51 19L51 18L50 18L50 17ZM62 17L62 18L63 18L63 17ZM66 17L66 18L65 18L65 19L64 19L64 20L66 20L66 18L67 18L67 17ZM58 20L58 21L59 21L59 20ZM16 21L16 23L15 23L15 22L14 22L14 23L13 23L13 24L12 24L12 26L13 26L13 27L14 27L14 26L15 26L15 27L16 27L16 26L17 26L17 25L16 25L16 26L15 26L15 24L16 24L16 23L17 23L17 22L18 22L18 21ZM41 21L41 22L42 22L42 21ZM48 21L48 22L49 22L49 21ZM64 21L64 22L65 22L65 21ZM2 23L2 24L1 24L1 26L2 26L2 25L3 25L3 26L4 26L4 25L3 25L3 23ZM14 23L14 24L13 24L13 26L14 26L14 24L15 24L15 23ZM22 23L22 24L23 24L23 25L24 25L24 24L23 24L23 23ZM39 23L39 24L40 24L40 25L41 25L41 24L42 24L42 25L43 25L43 24L44 24L44 23L43 23L43 24L42 24L42 23ZM5 25L5 28L8 28L8 25ZM25 25L25 28L28 28L28 25ZM31 25L31 26L32 26L32 27L30 27L30 29L31 29L31 30L32 30L32 29L33 29L33 26L34 26L34 25L33 25L33 26L32 26L32 25ZM45 25L45 28L48 28L48 25ZM65 25L65 28L68 28L68 25ZM6 26L6 27L7 27L7 26ZM23 26L23 27L22 27L22 28L23 28L23 27L24 27L24 26ZM26 26L26 27L27 27L27 26ZM39 26L39 28L40 28L40 29L39 29L39 30L40 30L40 29L41 29L41 28L42 28L42 27L40 27L40 26ZM46 26L46 27L47 27L47 26ZM66 26L66 27L67 27L67 26ZM71 26L71 27L69 27L69 28L70 28L70 29L66 29L66 34L67 34L67 31L68 31L68 30L69 30L69 33L68 33L68 34L69 34L69 35L70 35L70 34L71 34L71 33L72 33L72 32L71 32L71 31L72 31L72 30L70 30L70 29L71 29L71 27L72 27L72 26ZM1 27L1 28L2 28L2 30L3 30L3 31L5 31L5 30L8 30L8 29L5 29L5 30L3 30L3 28L4 28L4 27L3 27L3 28L2 28L2 27ZM9 28L9 29L10 29L10 28ZM18 28L18 29L19 29L19 28ZM31 28L31 29L32 29L32 28ZM34 28L34 29L35 29L35 28ZM49 29L49 30L48 30L48 31L49 31L49 32L48 32L48 33L49 33L49 34L48 34L48 35L47 35L47 34L46 34L46 33L45 33L45 32L44 32L44 31L42 31L42 32L43 32L43 34L44 34L44 35L43 35L43 36L42 36L42 37L41 37L41 38L42 38L42 37L43 37L43 39L44 39L44 38L45 38L45 40L43 40L43 42L44 42L44 43L47 43L47 42L46 42L46 41L47 41L47 40L48 40L48 41L49 41L49 42L48 42L48 43L49 43L49 44L50 44L50 45L51 45L51 46L52 46L52 47L53 47L53 48L52 48L52 49L53 49L53 48L54 48L54 49L55 49L55 48L54 48L54 47L55 47L55 46L54 46L54 45L53 45L53 44L52 44L52 45L51 45L51 44L50 44L50 43L51 43L51 42L52 42L52 41L53 41L53 40L52 40L52 41L51 41L51 40L50 40L50 37L49 37L49 36L50 36L50 35L51 35L51 34L52 34L52 35L53 35L53 36L52 36L52 37L51 37L51 38L52 38L52 37L53 37L53 36L54 36L54 37L55 37L55 36L54 36L54 35L55 35L55 34L54 34L54 33L53 33L53 32L52 32L52 33L51 33L51 32L50 32L50 31L51 31L51 30L50 30L50 29ZM24 30L24 31L25 31L25 32L26 32L26 33L25 33L25 34L24 34L24 35L25 35L25 36L26 36L26 37L25 37L25 38L23 38L23 37L22 37L22 39L23 39L23 40L22 40L22 41L23 41L23 42L22 42L22 43L23 43L23 42L24 42L24 43L25 43L25 42L26 42L26 41L28 41L28 40L26 40L26 39L25 39L25 38L26 38L26 37L27 37L27 38L28 38L28 39L29 39L29 40L30 40L30 41L31 41L31 42L32 42L32 43L30 43L30 44L32 44L32 45L31 45L31 46L32 46L32 45L35 45L35 44L34 44L34 43L33 43L33 42L34 42L34 41L33 41L33 40L34 40L34 37L33 37L33 35L34 35L34 34L32 34L32 35L31 35L31 36L30 36L30 34L29 34L29 32L28 32L28 31L27 31L27 32L26 32L26 30ZM19 31L19 32L20 32L20 31ZM21 31L21 33L20 33L20 34L22 34L22 31ZM3 32L3 33L4 33L4 32ZM27 32L27 33L26 33L26 34L25 34L25 35L26 35L26 36L27 36L27 37L28 37L28 36L29 36L29 37L30 37L30 38L29 38L29 39L30 39L30 40L31 40L31 41L32 41L32 42L33 42L33 41L32 41L32 40L31 40L31 37L30 37L30 36L29 36L29 35L28 35L28 34L27 34L27 33L28 33L28 32ZM37 32L37 34L38 34L38 36L37 36L37 37L38 37L38 36L39 36L39 33L38 33L38 32ZM49 32L49 33L50 33L50 34L51 34L51 33L50 33L50 32ZM44 33L44 34L45 34L45 33ZM52 33L52 34L53 34L53 33ZM58 33L58 34L59 34L59 33ZM69 33L69 34L70 34L70 33ZM7 35L7 36L8 36L8 35ZM11 35L11 36L12 36L12 35ZM27 35L27 36L28 36L28 35ZM46 35L46 36L44 36L44 37L46 37L46 38L47 38L47 39L46 39L46 40L45 40L45 41L44 41L44 42L45 42L45 41L46 41L46 40L47 40L47 39L48 39L48 40L49 40L49 41L50 41L50 42L51 42L51 41L50 41L50 40L49 40L49 37L48 37L48 36L49 36L49 35L48 35L48 36L47 36L47 35ZM46 36L46 37L47 37L47 36ZM61 36L61 37L62 37L62 38L63 38L63 37L62 37L62 36ZM32 37L32 38L33 38L33 37ZM1 38L1 40L2 40L2 38ZM24 39L24 40L23 40L23 41L24 41L24 42L25 42L25 41L26 41L26 40L25 40L25 39ZM62 39L62 40L63 40L63 41L64 41L64 40L63 40L63 39ZM58 40L58 41L59 41L59 40ZM20 42L20 43L21 43L21 42ZM65 42L65 43L66 43L66 42ZM63 43L63 44L64 44L64 43ZM5 45L5 48L8 48L8 45ZM25 45L25 48L28 48L28 45ZM45 45L45 48L48 48L48 45ZM52 45L52 46L53 46L53 45ZM65 45L65 48L68 48L68 45ZM6 46L6 47L7 47L7 46ZM26 46L26 47L27 47L27 46ZM46 46L46 47L47 47L47 46ZM66 46L66 47L67 47L67 46ZM71 46L71 47L69 47L69 48L70 48L70 50L69 50L69 51L70 51L70 50L71 50L71 49L72 49L72 48L71 48L71 47L72 47L72 46ZM12 48L12 49L13 49L13 48ZM50 48L50 49L51 49L51 48ZM60 48L60 49L61 49L61 48ZM2 49L2 50L3 50L3 49ZM24 49L24 50L23 50L23 53L24 53L24 52L25 52L25 53L26 53L26 51L24 51L24 50L26 50L26 49ZM27 49L27 51L28 51L28 52L27 52L27 53L28 53L28 52L29 52L29 53L30 53L30 52L31 52L31 50L32 50L32 49ZM35 50L35 51L34 51L34 52L35 52L35 53L37 53L37 54L38 54L38 53L39 53L39 52L38 52L38 51L36 51L36 50ZM17 51L17 52L18 52L18 51ZM29 51L29 52L30 52L30 51ZM35 51L35 52L36 52L36 51ZM43 51L43 52L44 52L44 51ZM1 52L1 53L2 53L2 52ZM11 52L11 53L10 53L10 54L14 54L14 53L13 53L13 52ZM37 52L37 53L38 53L38 52ZM53 52L53 53L54 53L54 54L55 54L55 53L54 53L54 52ZM71 52L71 54L70 54L70 53L69 53L69 54L70 54L70 55L72 55L72 52ZM1 55L1 56L2 56L2 57L3 57L3 58L4 58L4 57L3 57L3 56L2 56L2 55ZM29 55L29 56L30 56L30 55ZM42 55L42 57L43 57L43 55ZM53 56L53 57L52 57L52 58L53 58L53 57L54 57L54 58L55 58L55 57L54 57L54 56ZM7 58L7 59L6 59L6 60L7 60L7 59L8 59L8 58ZM15 59L15 60L16 60L16 59ZM3 60L3 61L4 61L4 60ZM25 60L25 61L24 61L24 62L25 62L25 61L26 61L26 60ZM31 60L31 61L32 61L32 60ZM43 60L43 61L44 61L44 60ZM56 61L56 62L57 62L57 61ZM69 61L69 62L70 62L70 61ZM64 62L64 63L65 63L65 62ZM0 64L0 65L1 65L1 64ZM54 64L54 65L55 65L55 64ZM10 65L10 66L9 66L9 67L10 67L10 68L11 68L11 69L13 69L13 66L12 66L12 65ZM25 65L25 68L28 68L28 65ZM45 65L45 68L48 68L48 65ZM65 65L65 68L68 68L68 65ZM26 66L26 67L27 67L27 66ZM42 66L42 67L40 67L40 68L38 68L38 69L41 69L41 70L42 70L42 69L43 69L43 68L42 68L42 67L43 67L43 66ZM46 66L46 67L47 67L47 66ZM66 66L66 67L67 67L67 66ZM41 68L41 69L42 69L42 68ZM62 68L62 69L63 69L63 68ZM29 69L29 70L30 70L30 69ZM46 69L46 70L47 70L47 69ZM48 69L48 70L49 70L49 69ZM17 70L17 71L18 71L18 70ZM20 70L20 71L21 71L21 70ZM56 72L56 73L58 73L58 72ZM0 0L0 7L7 7L7 0ZM1 1L1 6L6 6L6 1ZM2 2L2 5L5 5L5 2ZM66 0L66 7L73 7L73 0ZM67 1L67 6L72 6L72 1ZM68 2L68 5L71 5L71 2ZM0 66L0 73L7 73L7 66ZM1 67L1 72L6 72L6 67ZM2 68L2 71L5 71L5 68Z" fill="#0b49da"/></g></g></svg>
