<?xml version="1.0" encoding="UTF-8"?>
<svg xmlns="http://www.w3.org/2000/svg" version="1.1" width="250" height="250" viewBox="0 0 250 250"><rect x="0" y="0" width="250" height="250" fill="#ffffff"/><g transform="scale(6.757)"><g transform="translate(0,0)"><path fill-rule="evenodd" d="M9 0L9 1L8 1L8 2L9 2L9 3L8 3L8 4L10 4L10 7L11 7L11 4L12 4L12 5L14 5L14 7L15 7L15 6L16 6L16 8L17 8L17 9L16 9L16 10L14 10L14 13L12 13L12 11L13 11L13 10L11 10L11 11L10 11L10 9L11 9L11 8L6 8L6 9L5 9L5 8L0 8L0 10L1 10L1 11L0 11L0 13L3 13L3 12L1 12L1 11L4 11L4 10L6 10L6 11L7 11L7 10L6 10L6 9L9 9L9 10L8 10L8 12L9 12L9 13L8 13L8 14L9 14L9 15L8 15L8 16L5 16L5 15L7 15L7 14L5 14L5 13L7 13L7 12L5 12L5 13L4 13L4 15L3 15L3 14L2 14L2 15L3 15L3 19L5 19L5 20L6 20L6 21L4 21L4 24L3 24L3 25L2 25L2 26L3 26L3 27L4 27L4 29L7 29L7 28L5 28L5 25L8 25L8 26L9 26L9 29L8 29L8 31L9 31L9 29L10 29L10 30L11 30L11 29L12 29L12 30L14 30L14 28L15 28L15 29L16 29L16 26L14 26L14 28L13 28L13 29L12 29L12 27L13 27L13 26L9 26L9 25L11 25L11 23L9 23L9 25L8 25L8 24L6 24L6 23L8 23L8 22L9 22L9 20L8 20L8 21L7 21L7 20L6 20L6 19L7 19L7 18L8 18L8 17L10 17L10 14L9 14L9 13L12 13L12 14L13 14L13 15L12 15L12 17L15 17L15 16L13 16L13 15L16 15L16 16L17 16L17 17L16 17L16 18L15 18L15 19L14 19L14 20L13 20L13 21L12 21L12 19L13 19L13 18L9 18L9 19L11 19L11 20L10 20L10 22L11 22L11 21L12 21L12 22L14 22L14 24L13 24L13 23L12 23L12 25L16 25L16 24L17 24L17 25L18 25L18 27L19 27L19 28L20 28L20 29L19 29L19 30L20 30L20 33L18 33L18 32L19 32L19 31L18 31L18 32L17 32L17 31L16 31L16 30L15 30L15 31L14 31L14 32L13 32L13 31L12 31L12 33L13 33L13 34L11 34L11 31L10 31L10 32L8 32L8 37L9 37L9 36L11 36L11 37L13 37L13 36L12 36L12 35L14 35L14 36L15 36L15 37L16 37L16 34L15 34L15 33L14 33L14 32L15 32L15 31L16 31L16 32L17 32L17 34L18 34L18 36L17 36L17 37L19 37L19 34L21 34L21 36L23 36L23 34L24 34L24 37L26 37L26 36L25 36L25 33L26 33L26 32L27 32L27 33L28 33L28 35L27 35L27 37L28 37L28 36L30 36L30 37L31 37L31 35L29 35L29 34L31 34L31 33L32 33L32 34L33 34L33 35L34 35L34 34L33 34L33 30L34 30L34 29L37 29L37 26L35 26L35 27L36 27L36 28L31 28L31 26L30 26L30 27L29 27L29 25L33 25L33 27L34 27L34 25L33 25L33 23L32 23L32 22L31 22L31 24L30 24L30 22L29 22L29 24L27 24L27 23L28 23L28 22L26 22L26 20L29 20L29 21L31 21L31 19L30 19L30 18L29 18L29 17L31 17L31 16L32 16L32 17L37 17L37 14L35 14L35 13L37 13L37 9L36 9L36 8L35 8L35 9L34 9L34 8L33 8L33 9L34 9L34 10L32 10L32 8L31 8L31 10L30 10L30 8L29 8L29 6L28 6L28 5L29 5L29 4L28 4L28 3L29 3L29 1L26 1L26 0L25 0L25 1L24 1L24 0L23 0L23 1L21 1L21 0L18 0L18 1L21 1L21 2L20 2L20 3L22 3L22 4L23 4L23 5L22 5L22 7L21 7L21 4L16 4L16 3L17 3L17 2L16 2L16 1L17 1L17 0L16 0L16 1L15 1L15 2L14 2L14 3L13 3L13 4L12 4L12 2L13 2L13 1L14 1L14 0L13 0L13 1L11 1L11 2L10 2L10 0ZM23 1L23 2L22 2L22 3L23 3L23 4L24 4L24 3L26 3L26 2L24 2L24 1ZM15 2L15 3L16 3L16 2ZM10 3L10 4L11 4L11 3ZM14 4L14 5L15 5L15 4ZM26 4L26 5L25 5L25 8L27 8L27 7L28 7L28 6L27 6L27 7L26 7L26 5L28 5L28 4ZM8 5L8 7L9 7L9 5ZM17 5L17 8L18 8L18 9L19 9L19 8L18 8L18 6L19 6L19 7L20 7L20 5ZM23 5L23 9L22 9L22 8L20 8L20 9L22 9L22 10L21 10L21 11L20 11L20 10L18 10L18 11L17 11L17 12L16 12L16 11L15 11L15 12L16 12L16 13L14 13L14 14L16 14L16 13L17 13L17 14L18 14L18 15L17 15L17 16L18 16L18 17L20 17L20 18L18 18L18 19L17 19L17 18L16 18L16 19L17 19L17 20L15 20L15 21L14 21L14 22L16 22L16 23L17 23L17 24L18 24L18 25L19 25L19 24L20 24L20 25L21 25L21 26L19 26L19 27L20 27L20 28L21 28L21 29L22 29L22 32L21 32L21 34L22 34L22 33L24 33L24 30L23 30L23 29L24 29L24 26L23 26L23 25L24 25L24 22L21 22L21 21L22 21L22 20L21 20L21 16L20 16L20 15L22 15L22 14L23 14L23 17L24 17L24 14L23 14L23 13L24 13L24 10L23 10L23 9L24 9L24 5ZM12 6L12 9L15 9L15 8L13 8L13 6ZM28 8L28 9L26 9L26 10L28 10L28 9L29 9L29 8ZM35 9L35 10L34 10L34 11L33 11L33 12L35 12L35 10L36 10L36 9ZM22 10L22 11L21 11L21 12L22 12L22 13L23 13L23 10ZM19 11L19 12L20 12L20 11ZM25 11L25 12L26 12L26 11ZM27 11L27 13L25 13L25 14L28 14L28 13L29 13L29 12L28 12L28 11ZM17 12L17 13L18 13L18 14L21 14L21 13L18 13L18 12ZM31 12L31 13L30 13L30 14L29 14L29 15L27 15L27 16L28 16L28 17L26 17L26 18L28 18L28 17L29 17L29 16L30 16L30 14L33 14L33 15L32 15L32 16L36 16L36 15L34 15L34 13L32 13L32 12ZM0 14L0 15L1 15L1 14ZM25 15L25 16L26 16L26 15ZM0 16L0 17L1 17L1 18L0 18L0 23L1 23L1 24L2 24L2 23L1 23L1 22L2 22L2 21L3 21L3 20L2 20L2 21L1 21L1 19L2 19L2 16ZM4 17L4 18L5 18L5 19L6 19L6 18L7 18L7 17L6 17L6 18L5 18L5 17ZM23 18L23 21L24 21L24 18ZM34 18L34 19L35 19L35 20L32 20L32 21L34 21L34 23L35 23L35 24L36 24L36 25L37 25L37 24L36 24L36 23L37 23L37 22L35 22L35 21L36 21L36 19L37 19L37 18ZM25 19L25 20L26 20L26 19ZM29 19L29 20L30 20L30 19ZM19 20L19 22L18 22L18 24L19 24L19 22L20 22L20 20ZM6 21L6 22L5 22L5 23L6 23L6 22L7 22L7 21ZM16 21L16 22L17 22L17 21ZM20 23L20 24L22 24L22 25L23 25L23 24L22 24L22 23ZM25 23L25 24L26 24L26 25L25 25L25 26L28 26L28 25L27 25L27 24L26 24L26 23ZM0 25L0 29L1 29L1 25ZM6 26L6 27L7 27L7 26ZM21 26L21 28L22 28L22 27L23 27L23 26ZM25 27L25 28L26 28L26 29L27 29L27 30L26 30L26 31L25 31L25 32L26 32L26 31L27 31L27 32L28 32L28 29L27 29L27 28L26 28L26 27ZM28 27L28 28L29 28L29 27ZM2 28L2 29L3 29L3 28ZM10 28L10 29L11 29L11 28ZM17 28L17 29L18 29L18 28ZM29 29L29 32L32 32L32 29ZM30 30L30 31L31 31L31 30ZM36 30L36 31L35 31L35 32L34 32L34 33L35 33L35 35L36 35L36 36L32 36L32 37L37 37L37 33L36 33L36 31L37 31L37 30ZM9 33L9 34L10 34L10 35L11 35L11 34L10 34L10 33ZM14 34L14 35L15 35L15 34ZM0 0L0 7L7 7L7 0ZM1 1L1 6L6 6L6 1ZM2 2L2 5L5 5L5 2ZM30 0L30 7L37 7L37 0ZM31 1L31 6L36 6L36 1ZM32 2L32 5L35 5L35 2ZM0 30L0 37L7 37L7 30ZM1 31L1 36L6 36L6 31ZM2 32L2 35L5 35L5 32Z" fill="#6c0909"/></g></g></svg>
