<?xml version="1.0" encoding="UTF-8"?>
<svg xmlns="http://www.w3.org/2000/svg" version="1.1" width="250" height="250" viewBox="0 0 250 250"><rect x="0" y="0" width="250" height="250" fill="#ffffff"/><g transform="scale(4.098)"><g transform="translate(0,0)"><path fill-rule="evenodd" d="M8 0L8 1L9 1L9 2L8 2L8 5L9 5L9 6L8 6L8 7L9 7L9 6L10 6L10 9L12 9L12 10L11 10L11 11L12 11L12 10L13 10L13 9L14 9L14 11L13 11L13 12L14 12L14 11L15 11L15 10L16 10L16 9L14 9L14 8L15 8L15 6L14 6L14 5L13 5L13 3L14 3L14 2L15 2L15 4L17 4L17 5L16 5L16 7L17 7L17 5L19 5L19 6L18 6L18 7L19 7L19 6L20 6L20 8L19 8L19 9L17 9L17 11L16 11L16 12L15 12L15 13L17 13L17 14L16 14L16 15L15 15L15 16L14 16L14 14L13 14L13 13L12 13L12 12L10 12L10 13L8 13L8 11L10 11L10 10L9 10L9 8L8 8L8 9L7 9L7 8L6 8L6 9L4 9L4 8L0 8L0 11L1 11L1 10L2 10L2 11L3 11L3 12L2 12L2 13L1 13L1 14L0 14L0 16L1 16L1 15L2 15L2 17L0 17L0 18L2 18L2 17L4 17L4 18L5 18L5 19L7 19L7 20L5 20L5 22L6 22L6 23L7 23L7 24L6 24L6 25L7 25L7 24L8 24L8 25L9 25L9 24L10 24L10 23L11 23L11 21L12 21L12 19L11 19L11 18L13 18L13 20L14 20L14 21L13 21L13 22L12 22L12 23L13 23L13 22L14 22L14 21L15 21L15 22L16 22L16 21L15 21L15 18L13 18L13 17L10 17L10 18L8 18L8 16L6 16L6 15L7 15L7 14L8 14L8 15L9 15L9 16L10 16L10 15L9 15L9 14L10 14L10 13L12 13L12 14L11 14L11 15L13 15L13 16L14 16L14 17L16 17L16 18L17 18L17 17L18 17L18 19L17 19L17 20L18 20L18 19L19 19L19 21L21 21L21 19L22 19L22 22L20 22L20 23L19 23L19 22L18 22L18 24L17 24L17 23L16 23L16 24L15 24L15 25L17 25L17 26L16 26L16 27L15 27L15 26L14 26L14 24L12 24L12 25L13 25L13 26L11 26L11 27L9 27L9 26L6 26L6 27L5 27L5 28L4 28L4 27L2 27L2 26L5 26L5 24L4 24L4 25L2 25L2 24L3 24L3 23L4 23L4 19L3 19L3 21L2 21L2 23L1 23L1 22L0 22L0 24L1 24L1 25L0 25L0 29L2 29L2 28L3 28L3 30L1 30L1 31L2 31L2 32L0 32L0 33L2 33L2 34L4 34L4 35L5 35L5 34L6 34L6 35L8 35L8 36L9 36L9 37L7 37L7 36L5 36L5 38L4 38L4 39L2 39L2 40L1 40L1 38L0 38L0 40L1 40L1 42L0 42L0 43L2 43L2 44L1 44L1 45L0 45L0 47L1 47L1 48L0 48L0 50L1 50L1 49L2 49L2 51L0 51L0 53L4 53L4 52L5 52L5 51L7 51L7 52L6 52L6 53L8 53L8 54L9 54L9 56L10 56L10 57L11 57L11 55L12 55L12 56L13 56L13 57L12 57L12 59L11 59L11 58L9 58L9 57L8 57L8 61L17 61L17 59L18 59L18 58L19 58L19 60L18 60L18 61L19 61L19 60L20 60L20 61L22 61L22 60L23 60L23 59L25 59L25 58L26 58L26 60L25 60L25 61L26 61L26 60L27 60L27 61L28 61L28 60L27 60L27 59L28 59L28 58L26 58L26 56L28 56L28 57L29 57L29 59L30 59L30 57L31 57L31 59L32 59L32 60L30 60L30 61L32 61L32 60L33 60L33 61L35 61L35 60L36 60L36 61L38 61L38 59L37 59L37 60L36 60L36 58L38 58L38 57L40 57L40 58L39 58L39 61L40 61L40 58L41 58L41 60L43 60L43 61L44 61L44 60L45 60L45 58L46 58L46 61L49 61L49 60L50 60L50 61L51 61L51 60L53 60L53 59L54 59L54 58L55 58L55 57L56 57L56 59L55 59L55 60L56 60L56 59L57 59L57 58L58 58L58 57L57 57L57 56L58 56L58 55L59 55L59 56L60 56L60 55L61 55L61 53L60 53L60 52L61 52L61 51L60 51L60 52L58 52L58 51L59 51L59 50L61 50L61 48L60 48L60 49L59 49L59 47L60 47L60 46L59 46L59 47L58 47L58 48L57 48L57 47L56 47L56 45L57 45L57 46L58 46L58 45L57 45L57 43L58 43L58 42L60 42L60 43L61 43L61 42L60 42L60 40L61 40L61 39L60 39L60 40L59 40L59 41L58 41L58 42L57 42L57 43L56 43L56 44L55 44L55 42L56 42L56 41L53 41L53 44L52 44L52 43L51 43L51 42L52 42L52 41L51 41L51 40L50 40L50 39L51 39L51 37L53 37L53 38L52 38L52 40L53 40L53 38L54 38L54 37L55 37L55 36L56 36L56 38L55 38L55 39L56 39L56 38L57 38L57 37L59 37L59 38L61 38L61 36L60 36L60 37L59 37L59 35L60 35L60 34L59 34L59 35L58 35L58 36L56 36L56 35L57 35L57 34L58 34L58 33L57 33L57 31L58 31L58 30L59 30L59 29L60 29L60 31L59 31L59 32L60 32L60 31L61 31L61 29L60 29L60 27L59 27L59 26L61 26L61 24L60 24L60 25L59 25L59 23L60 23L60 22L59 22L59 23L58 23L58 21L57 21L57 22L56 22L56 23L55 23L55 21L56 21L56 20L55 20L55 19L54 19L54 21L53 21L53 23L52 23L52 22L51 22L51 23L50 23L50 21L49 21L49 23L48 23L48 22L46 22L46 23L45 23L45 21L44 21L44 24L43 24L43 26L42 26L42 23L43 23L43 21L42 21L42 17L44 17L44 18L43 18L43 19L45 19L45 20L46 20L46 21L48 21L48 20L49 20L49 18L50 18L50 20L51 20L51 21L52 21L52 20L51 20L51 19L53 19L53 17L54 17L54 16L55 16L55 14L56 14L56 17L55 17L55 18L56 18L56 17L57 17L57 16L58 16L58 18L57 18L57 19L58 19L58 18L59 18L59 17L60 17L60 19L59 19L59 20L60 20L60 19L61 19L61 17L60 17L60 16L61 16L61 15L60 15L60 16L58 16L58 15L59 15L59 14L61 14L61 12L59 12L59 11L58 11L58 12L57 12L57 10L58 10L58 9L59 9L59 10L60 10L60 9L61 9L61 8L60 8L60 9L59 9L59 8L56 8L56 9L54 9L54 8L53 8L53 9L54 9L54 10L53 10L53 11L52 11L52 13L53 13L53 14L51 14L51 11L50 11L50 13L49 13L49 10L50 10L50 9L51 9L51 10L52 10L52 9L51 9L51 5L52 5L52 4L53 4L53 0L51 0L51 2L49 2L49 1L50 1L50 0L49 0L49 1L48 1L48 0L47 0L47 1L45 1L45 2L44 2L44 1L43 1L43 0L41 0L41 2L39 2L39 4L37 4L37 2L36 2L36 1L35 1L35 2L34 2L34 1L33 1L33 0L32 0L32 2L31 2L31 3L32 3L32 2L34 2L34 3L35 3L35 2L36 2L36 5L33 5L33 4L29 4L29 2L30 2L30 1L31 1L31 0L29 0L29 2L28 2L28 0L26 0L26 2L25 2L25 5L26 5L26 7L27 7L27 4L28 4L28 9L27 9L27 8L26 8L26 9L27 9L27 10L26 10L26 11L25 11L25 12L26 12L26 11L28 11L28 12L29 12L29 11L30 11L30 10L32 10L32 11L33 11L33 10L34 10L34 12L33 12L33 14L34 14L34 15L33 15L33 17L32 17L32 16L31 16L31 17L32 17L32 18L30 18L30 19L29 19L29 18L28 18L28 17L30 17L30 15L32 15L32 14L31 14L31 13L30 13L30 15L29 15L29 16L25 16L25 15L26 15L26 14L25 14L25 15L24 15L24 13L22 13L22 12L24 12L24 11L22 11L22 12L21 12L21 11L20 11L20 14L19 14L19 12L18 12L18 13L17 13L17 11L18 11L18 10L25 10L25 8L24 8L24 7L25 7L25 6L24 6L24 7L23 7L23 5L24 5L24 4L22 4L22 3L23 3L23 1L22 1L22 3L20 3L20 2L19 2L19 3L18 3L18 4L17 4L17 3L16 3L16 2L18 2L18 1L17 1L17 0L16 0L16 2L15 2L15 1L14 1L14 2L11 2L11 1L9 1L9 0ZM12 0L12 1L13 1L13 0ZM19 0L19 1L20 1L20 0ZM24 0L24 1L25 1L25 0ZM39 0L39 1L40 1L40 0ZM47 1L47 2L48 2L48 1ZM10 3L10 4L9 4L9 5L10 5L10 6L11 6L11 7L12 7L12 6L13 6L13 8L14 8L14 6L13 6L13 5L10 5L10 4L12 4L12 3ZM19 3L19 5L20 5L20 6L21 6L21 8L20 8L20 9L21 9L21 8L23 8L23 7L22 7L22 6L21 6L21 5L20 5L20 3ZM26 3L26 4L27 4L27 3ZM40 3L40 5L39 5L39 7L38 7L38 5L37 5L37 7L38 7L38 9L37 9L37 8L35 8L35 7L36 7L36 6L35 6L35 7L34 7L34 6L33 6L33 9L32 9L32 10L33 10L33 9L34 9L34 10L36 10L36 11L35 11L35 12L34 12L34 14L35 14L35 12L36 12L36 13L38 13L38 15L36 15L36 16L35 16L35 17L38 17L38 18L36 18L36 19L37 19L37 20L33 20L33 18L34 18L34 17L33 17L33 18L32 18L32 21L31 21L31 22L30 22L30 20L31 20L31 19L30 19L30 20L29 20L29 19L28 19L28 21L27 21L27 19L26 19L26 17L25 17L25 16L24 16L24 17L25 17L25 18L22 18L22 17L21 17L21 14L22 14L22 15L23 15L23 14L22 14L22 13L21 13L21 14L20 14L20 15L19 15L19 14L18 14L18 15L19 15L19 16L18 16L18 17L19 17L19 18L20 18L20 19L21 19L21 18L22 18L22 19L23 19L23 22L22 22L22 23L23 23L23 24L21 24L21 23L20 23L20 25L19 25L19 24L18 24L18 26L17 26L17 27L16 27L16 28L15 28L15 30L16 30L16 31L14 31L14 29L13 29L13 27L12 27L12 28L9 28L9 27L8 27L8 28L9 28L9 31L10 31L10 32L11 32L11 31L13 31L13 33L9 33L9 34L8 34L8 35L9 35L9 34L11 34L11 35L13 35L13 34L15 34L15 35L14 35L14 36L13 36L13 37L14 37L14 38L15 38L15 39L16 39L16 40L15 40L15 42L14 42L14 43L13 43L13 41L14 41L14 40L13 40L13 39L12 39L12 38L11 38L11 37L12 37L12 36L10 36L10 37L9 37L9 38L8 38L8 39L4 39L4 42L5 42L5 43L4 43L4 44L2 44L2 45L1 45L1 47L3 47L3 48L2 48L2 49L3 49L3 50L4 50L4 49L5 49L5 50L8 50L8 49L13 49L13 46L14 46L14 45L16 45L16 46L15 46L15 47L14 47L14 48L15 48L15 49L14 49L14 50L17 50L17 51L16 51L16 52L15 52L15 51L13 51L13 50L11 50L11 51L13 51L13 52L10 52L10 51L8 51L8 53L9 53L9 54L10 54L10 53L12 53L12 54L13 54L13 52L14 52L14 55L15 55L15 57L16 57L16 58L14 58L14 57L13 57L13 58L14 58L14 59L12 59L12 60L16 60L16 59L17 59L17 58L18 58L18 57L17 57L17 54L18 54L18 55L19 55L19 58L21 58L21 59L20 59L20 60L22 60L22 59L23 59L23 58L21 58L21 57L22 57L22 56L21 56L21 54L22 54L22 55L23 55L23 57L24 57L24 56L25 56L25 55L28 55L28 54L25 54L25 53L26 53L26 51L27 51L27 52L28 52L28 51L29 51L29 52L31 52L31 51L32 51L32 52L33 52L33 53L34 53L34 55L33 55L33 57L34 57L34 58L33 58L33 60L35 60L35 59L34 59L34 58L36 58L36 57L38 57L38 54L39 54L39 53L41 53L41 55L43 55L43 56L42 56L42 57L41 57L41 58L42 58L42 57L43 57L43 58L45 58L45 57L46 57L46 58L47 58L47 60L48 60L48 58L47 58L47 57L49 57L49 58L50 58L50 60L51 60L51 57L52 57L52 55L51 55L51 56L48 56L48 55L50 55L50 54L52 54L52 52L51 52L51 51L53 51L53 52L57 52L57 55L58 55L58 52L57 52L57 51L58 51L58 50L59 50L59 49L57 49L57 50L56 50L56 47L55 47L55 46L54 46L54 47L53 47L53 45L52 45L52 44L48 44L48 46L47 46L47 45L45 45L45 43L44 43L44 42L46 42L46 40L47 40L47 42L48 42L48 43L50 43L50 42L51 42L51 41L50 41L50 40L49 40L49 37L51 37L51 35L52 35L52 36L53 36L53 37L54 37L54 35L56 35L56 34L57 34L57 33L55 33L55 34L54 34L54 33L52 33L52 31L51 31L51 32L50 32L50 30L51 30L51 29L52 29L52 28L54 28L54 27L52 27L52 26L53 26L53 25L54 25L54 26L55 26L55 28L56 28L56 27L58 27L58 28L57 28L57 30L58 30L58 28L59 28L59 27L58 27L58 26L59 26L59 25L58 25L58 24L56 24L56 25L54 25L54 24L55 24L55 23L53 23L53 25L51 25L51 27L52 27L52 28L51 28L51 29L49 29L49 26L48 26L48 25L46 25L46 24L48 24L48 23L46 23L46 24L44 24L44 26L43 26L43 27L45 27L45 28L46 28L46 29L47 29L47 28L48 28L48 30L49 30L49 32L48 32L48 33L45 33L45 31L43 31L43 30L45 30L45 29L44 29L44 28L42 28L42 26L41 26L41 28L39 28L39 27L37 27L37 26L38 26L38 25L41 25L41 24L39 24L39 21L38 21L38 24L37 24L37 25L36 25L36 22L37 22L37 20L38 20L38 18L40 18L40 19L39 19L39 20L40 20L40 21L41 21L41 18L40 18L40 17L42 17L42 16L44 16L44 14L45 14L45 13L46 13L46 16L45 16L45 17L46 17L46 16L47 16L47 18L48 18L48 17L50 17L50 18L51 18L51 17L53 17L53 16L54 16L54 14L55 14L55 13L57 13L57 15L58 15L58 14L59 14L59 13L57 13L57 12L56 12L56 11L53 11L53 13L54 13L54 14L53 14L53 16L52 16L52 15L48 15L48 14L49 14L49 13L48 13L48 10L49 10L49 9L50 9L50 6L49 6L49 4L47 4L47 3L46 3L46 5L45 5L45 7L44 7L44 4L45 4L45 3ZM51 3L51 4L52 4L52 3ZM29 5L29 8L32 8L32 5ZM40 5L40 9L41 9L41 10L39 10L39 11L38 11L38 13L39 13L39 12L40 12L40 11L41 11L41 12L42 12L42 13L41 13L41 14L40 14L40 15L39 15L39 16L38 16L38 17L39 17L39 16L42 16L42 15L43 15L43 14L42 14L42 13L44 13L44 12L45 12L45 9L43 9L43 8L44 8L44 7L43 7L43 5L42 5L42 7L43 7L43 8L42 8L42 9L41 9L41 5ZM47 5L47 6L46 6L46 7L45 7L45 8L46 8L46 9L47 9L47 10L46 10L46 12L47 12L47 10L48 10L48 8L49 8L49 6L48 6L48 5ZM30 6L30 7L31 7L31 6ZM47 6L47 7L48 7L48 6ZM52 6L52 7L53 7L53 6ZM34 8L34 9L35 9L35 8ZM6 9L6 10L5 10L5 14L3 14L3 13L4 13L4 12L3 12L3 13L2 13L2 14L3 14L3 16L4 16L4 17L5 17L5 18L7 18L7 17L5 17L5 14L7 14L7 13L6 13L6 12L7 12L7 11L6 11L6 10L7 10L7 9ZM28 9L28 11L29 11L29 10L30 10L30 9ZM36 9L36 10L37 10L37 9ZM56 9L56 10L57 10L57 9ZM43 10L43 11L44 11L44 10ZM54 12L54 13L55 13L55 12ZM47 13L47 14L48 14L48 13ZM27 14L27 15L28 15L28 14ZM41 14L41 15L42 15L42 14ZM16 15L16 17L17 17L17 15ZM19 16L19 17L20 17L20 16ZM50 16L50 17L51 17L51 16ZM1 19L1 20L0 20L0 21L1 21L1 20L2 20L2 19ZM8 19L8 20L9 20L9 21L11 21L11 20L9 20L9 19ZM24 19L24 22L25 22L25 21L26 21L26 23L27 23L27 21L26 21L26 19ZM6 21L6 22L8 22L8 21ZM32 21L32 23L31 23L31 24L32 24L32 23L33 23L33 21ZM34 21L34 22L36 22L36 21ZM9 22L9 23L8 23L8 24L9 24L9 23L10 23L10 22ZM28 22L28 24L27 24L27 25L25 25L25 26L26 26L26 27L25 27L25 28L24 28L24 26L23 26L23 25L20 25L20 26L22 26L22 27L21 27L21 28L22 28L22 27L23 27L23 30L24 30L24 29L25 29L25 28L26 28L26 30L28 30L28 31L26 31L26 32L28 32L28 34L29 34L29 36L30 36L30 37L31 37L31 38L32 38L32 39L30 39L30 40L29 40L29 41L27 41L27 42L26 42L26 40L27 40L27 38L28 38L28 39L29 39L29 37L27 37L27 38L26 38L26 40L24 40L24 37L22 37L22 36L23 36L23 35L22 35L22 34L20 34L20 33L21 33L21 32L22 32L22 33L24 33L24 34L25 34L25 35L26 35L26 36L25 36L25 37L26 37L26 36L27 36L27 33L26 33L26 34L25 34L25 33L24 33L24 32L25 32L25 31L23 31L23 32L22 32L22 30L21 30L21 31L20 31L20 32L19 32L19 34L20 34L20 35L19 35L19 36L18 36L18 37L17 37L17 36L16 36L16 35L18 35L18 34L17 34L17 32L18 32L18 31L19 31L19 30L20 30L20 29L18 29L18 28L19 28L19 27L18 27L18 28L16 28L16 30L17 30L17 29L18 29L18 31L17 31L17 32L16 32L16 35L15 35L15 37L17 37L17 38L16 38L16 39L17 39L17 40L16 40L16 42L15 42L15 43L14 43L14 44L13 44L13 43L11 43L11 45L10 45L10 43L9 43L9 42L8 42L8 41L9 41L9 39L8 39L8 40L5 40L5 42L6 42L6 43L5 43L5 44L4 44L4 45L3 45L3 46L6 46L6 47L4 47L4 48L5 48L5 49L7 49L7 48L8 48L8 47L7 47L7 46L9 46L9 45L10 45L10 47L9 47L9 48L11 48L11 45L12 45L12 46L13 46L13 45L14 45L14 44L15 44L15 43L16 43L16 42L18 42L18 43L17 43L17 44L18 44L18 43L19 43L19 45L21 45L21 46L20 46L20 47L19 47L19 48L18 48L18 49L17 49L17 50L19 50L19 51L18 51L18 52L16 52L16 54L15 54L15 55L16 55L16 54L17 54L17 53L18 53L18 54L19 54L19 55L20 55L20 53L18 53L18 52L19 52L19 51L20 51L20 50L21 50L21 48L20 48L20 47L23 47L23 46L26 46L26 47L27 47L27 46L28 46L28 48L27 48L27 50L29 50L29 51L31 51L31 49L32 49L32 50L33 50L33 49L32 49L32 47L33 47L33 48L34 48L34 49L36 49L36 50L35 50L35 51L34 51L34 53L35 53L35 54L36 54L36 52L35 52L35 51L37 51L37 54L38 54L38 53L39 53L39 52L38 52L38 51L39 51L39 49L40 49L40 48L39 48L39 49L38 49L38 50L37 50L37 48L38 48L38 47L40 47L40 46L39 46L39 44L38 44L38 43L40 43L40 45L41 45L41 44L42 44L42 43L40 43L40 42L38 42L38 43L37 43L37 42L36 42L36 43L35 43L35 41L36 41L36 40L35 40L35 41L34 41L34 42L32 42L32 44L31 44L31 45L32 45L32 44L34 44L34 45L37 45L37 46L36 46L36 48L35 48L35 46L34 46L34 47L33 47L33 46L31 46L31 47L30 47L30 46L28 46L28 45L25 45L25 44L24 44L24 43L28 43L28 42L29 42L29 43L30 43L30 42L31 42L31 41L33 41L33 40L34 40L34 39L35 39L35 38L36 38L36 37L37 37L37 40L38 40L38 41L39 41L39 40L42 40L42 41L43 41L43 42L44 42L44 41L45 41L45 40L46 40L46 39L44 39L44 41L43 41L43 38L46 38L46 37L47 37L47 39L48 39L48 37L49 37L49 34L46 34L46 35L45 35L45 33L43 33L43 32L42 32L42 30L41 30L41 29L42 29L42 28L41 28L41 29L40 29L40 33L39 33L39 34L40 34L40 33L41 33L41 34L44 34L44 36L43 36L43 35L40 35L40 36L39 36L39 37L38 37L38 36L37 36L37 33L38 33L38 32L39 32L39 31L38 31L38 29L39 29L39 28L37 28L37 27L35 27L35 29L34 29L34 27L33 27L33 25L34 25L34 24L35 24L35 23L34 23L34 24L33 24L33 25L32 25L32 28L31 28L31 27L29 27L29 26L28 26L28 29L27 29L27 28L26 28L26 27L27 27L27 25L28 25L28 24L30 24L30 22ZM24 23L24 24L25 24L25 23ZM49 23L49 24L50 24L50 23ZM35 25L35 26L36 26L36 25ZM45 25L45 27L46 27L46 25ZM56 25L56 26L57 26L57 25ZM1 27L1 28L2 28L2 27ZM6 27L6 28L7 28L7 27ZM36 28L36 30L35 30L35 31L34 31L34 33L33 33L33 34L31 34L31 33L29 33L29 34L30 34L30 36L31 36L31 35L32 35L32 38L35 38L35 37L36 37L36 33L37 33L37 32L38 32L38 31L37 31L37 32L36 32L36 33L35 33L35 31L36 31L36 30L37 30L37 28ZM5 29L5 32L8 32L8 29ZM10 29L10 30L11 30L11 29ZM12 29L12 30L13 30L13 29ZM29 29L29 32L32 32L32 29ZM53 29L53 32L56 32L56 29ZM6 30L6 31L7 31L7 30ZM30 30L30 31L31 31L31 30ZM54 30L54 31L55 31L55 30ZM14 32L14 33L15 33L15 32ZM41 32L41 33L42 33L42 32ZM49 32L49 33L50 33L50 32ZM4 33L4 34L5 34L5 33ZM6 33L6 34L7 34L7 33ZM51 33L51 34L52 34L52 35L54 35L54 34L52 34L52 33ZM0 34L0 37L2 37L2 36L3 36L3 35L2 35L2 36L1 36L1 34ZM34 34L34 36L35 36L35 34ZM46 35L46 36L44 36L44 37L46 37L46 36L47 36L47 35ZM19 36L19 38L17 38L17 39L19 39L19 40L18 40L18 42L19 42L19 43L20 43L20 44L21 44L21 45L22 45L22 44L23 44L23 40L22 40L22 43L20 43L20 40L21 40L21 39L22 39L22 38L20 38L20 36ZM40 36L40 37L41 37L41 38L39 38L39 39L38 39L38 40L39 40L39 39L42 39L42 38L43 38L43 37L41 37L41 36ZM6 37L6 38L7 38L7 37ZM10 38L10 39L11 39L11 38ZM19 38L19 39L20 39L20 38ZM32 39L32 40L33 40L33 39ZM2 40L2 43L3 43L3 40ZM10 40L10 42L11 42L11 40ZM12 40L12 41L13 41L13 40ZM30 40L30 41L29 41L29 42L30 42L30 41L31 41L31 40ZM6 41L6 42L7 42L7 43L6 43L6 44L7 44L7 45L6 45L6 46L7 46L7 45L8 45L8 44L9 44L9 43L8 43L8 42L7 42L7 41ZM24 41L24 42L25 42L25 41ZM48 41L48 42L49 42L49 41ZM7 43L7 44L8 44L8 43ZM34 43L34 44L35 44L35 43ZM36 43L36 44L37 44L37 43ZM46 43L46 44L47 44L47 43ZM29 44L29 45L30 45L30 44ZM43 44L43 45L42 45L42 46L41 46L41 47L42 47L42 48L41 48L41 50L40 50L40 52L43 52L43 53L44 53L44 54L43 54L43 55L46 55L46 57L47 57L47 53L48 53L48 52L44 52L44 51L43 51L43 50L42 50L42 48L43 48L43 49L44 49L44 50L45 50L45 51L46 51L46 49L44 49L44 48L45 48L45 47L46 47L46 48L48 48L48 49L47 49L47 50L48 50L48 51L49 51L49 54L50 54L50 53L51 53L51 52L50 52L50 51L51 51L51 49L52 49L52 48L53 48L53 47L51 47L51 49L50 49L50 50L49 50L49 48L50 48L50 45L49 45L49 47L47 47L47 46L43 46L43 45L44 45L44 44ZM51 45L51 46L52 46L52 45ZM17 46L17 47L16 47L16 48L17 48L17 47L18 47L18 46ZM37 46L37 47L38 47L38 46ZM6 47L6 48L7 48L7 47ZM24 47L24 51L23 51L23 50L22 50L22 51L21 51L21 52L22 52L22 51L23 51L23 52L24 52L24 51L26 51L26 48L25 48L25 47ZM54 47L54 49L53 49L53 50L54 50L54 49L55 49L55 47ZM19 48L19 49L20 49L20 48ZM22 48L22 49L23 49L23 48ZM28 48L28 49L29 49L29 48ZM41 50L41 51L42 51L42 50ZM55 50L55 51L56 51L56 50ZM3 51L3 52L4 52L4 51ZM9 52L9 53L10 53L10 52ZM23 53L23 55L24 55L24 53ZM29 53L29 56L32 56L32 53ZM53 53L53 56L56 56L56 53ZM59 53L59 55L60 55L60 53ZM30 54L30 55L31 55L31 54ZM54 54L54 55L55 55L55 54ZM35 55L35 56L34 56L34 57L35 57L35 56L37 56L37 55ZM43 56L43 57L44 57L44 56ZM53 57L53 58L52 58L52 59L53 59L53 58L54 58L54 57ZM60 57L60 58L59 58L59 59L58 59L58 60L57 60L57 61L61 61L61 60L59 60L59 59L60 59L60 58L61 58L61 57ZM10 59L10 60L11 60L11 59ZM43 59L43 60L44 60L44 59ZM0 0L0 7L7 7L7 0ZM1 1L1 6L6 6L6 1ZM2 2L2 5L5 5L5 2ZM54 0L54 7L61 7L61 0ZM55 1L55 6L60 6L60 1ZM56 2L56 5L59 5L59 2ZM0 54L0 61L7 61L7 54ZM1 55L1 60L6 60L6 55ZM2 56L2 59L5 59L5 56Z" fill="#04b430"/></g></g></svg>
