<?xml version="1.0" encoding="UTF-8"?>
<svg xmlns="http://www.w3.org/2000/svg" version="1.1" width="250" height="250" viewBox="0 0 250 250"><rect x="0" y="0" width="250" height="250" fill="#ffffff"/><g transform="scale(6.098)"><g transform="translate(0,0)"><path fill-rule="evenodd" d="M10 0L10 1L8 1L8 2L9 2L9 3L8 3L8 4L11 4L11 5L8 5L8 7L9 7L9 8L6 8L6 9L5 9L5 8L0 8L0 9L2 9L2 12L1 12L1 11L0 11L0 12L1 12L1 13L0 13L0 21L1 21L1 22L3 22L3 23L7 23L7 24L6 24L6 25L5 25L5 26L6 26L6 27L7 27L7 28L6 28L6 29L4 29L4 26L3 26L3 29L4 29L4 31L5 31L5 30L6 30L6 31L8 31L8 30L9 30L9 29L13 29L13 28L9 28L9 27L11 27L11 26L12 26L12 27L13 27L13 26L12 26L12 25L15 25L15 27L14 27L14 28L17 28L17 27L16 27L16 26L17 26L17 25L18 25L18 27L19 27L19 28L18 28L18 29L14 29L14 30L10 30L10 31L11 31L11 32L8 32L8 35L9 35L9 36L8 36L8 41L10 41L10 40L9 40L9 39L10 39L10 38L11 38L11 37L12 37L12 38L14 38L14 39L15 39L15 40L14 40L14 41L16 41L16 39L17 39L17 38L16 38L16 37L17 37L17 36L19 36L19 35L18 35L18 34L21 34L21 32L22 32L22 33L23 33L23 34L22 34L22 35L23 35L23 34L24 34L24 33L28 33L28 34L26 34L26 35L31 35L31 36L32 36L32 39L31 39L31 40L34 40L34 41L35 41L35 40L36 40L36 41L39 41L39 40L40 40L40 39L39 39L39 38L41 38L41 37L39 37L39 36L38 36L38 35L37 35L37 33L38 33L38 34L41 34L41 32L40 32L40 33L39 33L39 32L37 32L37 30L38 30L38 29L39 29L39 30L40 30L40 29L41 29L41 27L40 27L40 26L41 26L41 25L39 25L39 24L40 24L40 22L41 22L41 19L40 19L40 18L41 18L41 15L39 15L39 14L38 14L38 11L37 11L37 10L39 10L39 11L40 11L40 10L41 10L41 9L40 9L40 8L39 8L39 9L38 9L38 8L37 8L37 9L36 9L36 8L35 8L35 10L34 10L34 11L35 11L35 10L36 10L36 12L37 12L37 13L36 13L36 15L35 15L35 16L37 16L37 17L36 17L36 18L35 18L35 17L34 17L34 18L33 18L33 16L34 16L34 14L35 14L35 13L33 13L33 11L32 11L32 13L31 13L31 11L30 11L30 10L29 10L29 9L28 9L28 8L29 8L29 6L28 6L28 5L32 5L32 7L31 7L31 6L30 6L30 8L32 8L32 9L31 9L31 10L33 10L33 9L34 9L34 8L33 8L33 4L30 4L30 3L32 3L32 2L33 2L33 0L32 0L32 2L30 2L30 3L29 3L29 2L28 2L28 1L27 1L27 0L26 0L26 1L24 1L24 0L22 0L22 2L21 2L21 0L19 0L19 1L20 1L20 2L21 2L21 3L20 3L20 4L21 4L21 5L20 5L20 7L21 7L21 8L20 8L20 10L21 10L21 8L22 8L22 9L24 9L24 8L25 8L25 6L26 6L26 7L27 7L27 6L28 6L28 8L26 8L26 10L24 10L24 12L25 12L25 13L23 13L23 12L22 12L22 11L20 11L20 12L18 12L18 13L16 13L16 10L17 10L17 9L18 9L18 11L19 11L19 4L18 4L18 5L16 5L16 4L17 4L17 3L19 3L19 2L18 2L18 0L16 0L16 1L14 1L14 0L13 0L13 3L12 3L12 1L11 1L11 0ZM10 1L10 2L11 2L11 1ZM23 1L23 2L22 2L22 3L21 3L21 4L22 4L22 5L21 5L21 7L22 7L22 8L24 8L24 5L23 5L23 4L24 4L24 1ZM26 1L26 2L25 2L25 3L26 3L26 4L27 4L27 5L26 5L26 6L27 6L27 5L28 5L28 4L29 4L29 3L28 3L28 4L27 4L27 1ZM14 2L14 3L13 3L13 4L12 4L12 3L11 3L11 4L12 4L12 5L11 5L11 7L10 7L10 6L9 6L9 7L10 7L10 8L9 8L9 11L6 11L6 10L7 10L7 9L6 9L6 10L5 10L5 9L3 9L3 10L5 10L5 12L4 12L4 14L3 14L3 15L5 15L5 18L7 18L7 19L6 19L6 20L4 20L4 19L2 19L2 20L3 20L3 21L5 21L5 22L8 22L8 21L9 21L9 20L8 20L8 19L9 19L9 18L7 18L7 17L6 17L6 16L7 16L7 15L8 15L8 16L10 16L10 15L8 15L8 13L6 13L6 14L5 14L5 12L9 12L9 13L10 13L10 14L13 14L13 15L12 15L12 16L15 16L15 17L14 17L14 18L16 18L16 19L17 19L17 18L16 18L16 15L17 15L17 16L18 16L18 17L19 17L19 18L18 18L18 19L19 19L19 20L17 20L17 21L16 21L16 20L15 20L15 19L14 19L14 20L13 20L13 17L12 17L12 18L11 18L11 17L10 17L10 18L11 18L11 19L12 19L12 21L11 21L11 20L10 20L10 21L11 21L11 22L10 22L10 23L9 23L9 24L8 24L8 25L6 25L6 26L8 26L8 27L9 27L9 26L8 26L8 25L12 25L12 23L13 23L13 24L14 24L14 23L15 23L15 21L16 21L16 22L18 22L18 21L19 21L19 23L16 23L16 24L18 24L18 25L19 25L19 27L20 27L20 28L19 28L19 29L18 29L18 31L17 31L17 30L14 30L14 31L12 31L12 32L13 32L13 33L12 33L12 34L11 34L11 33L10 33L10 35L11 35L11 36L9 36L9 37L11 37L11 36L12 36L12 37L14 37L14 38L15 38L15 37L14 37L14 36L15 36L15 35L14 35L14 36L13 36L13 35L12 35L12 34L13 34L13 33L14 33L14 31L15 31L15 33L16 33L16 31L17 31L17 32L18 32L18 33L19 33L19 30L20 30L20 31L21 31L21 30L20 30L20 29L21 29L21 27L22 27L22 26L23 26L23 27L24 27L24 26L25 26L25 28L24 28L24 29L25 29L25 30L26 30L26 31L24 31L24 30L23 30L23 28L22 28L22 30L23 30L23 33L24 33L24 32L26 32L26 31L27 31L27 32L28 32L28 33L29 33L29 34L30 34L30 33L29 33L29 32L30 32L30 31L29 31L29 30L31 30L31 31L32 31L32 32L31 32L31 34L32 34L32 32L34 32L34 30L33 30L33 29L38 29L38 28L39 28L39 29L40 29L40 27L38 27L38 28L37 28L37 26L39 26L39 25L38 25L38 24L39 24L39 23L38 23L38 22L40 22L40 19L39 19L39 18L40 18L40 17L39 17L39 18L37 18L37 19L38 19L38 22L34 22L34 23L38 23L38 24L36 24L36 25L37 25L37 26L33 26L33 28L32 28L32 26L31 26L31 24L32 24L32 25L35 25L35 24L32 24L32 22L33 22L33 21L37 21L37 20L33 20L33 19L32 19L32 18L31 18L31 17L32 17L32 15L33 15L33 13L32 13L32 14L29 14L29 13L26 13L26 14L25 14L25 18L23 18L23 17L24 17L24 16L23 16L23 17L22 17L22 16L21 16L21 17L22 17L22 20L21 20L21 21L19 21L19 20L20 20L20 19L21 19L21 18L20 18L20 17L19 17L19 14L20 14L20 15L22 15L22 12L20 12L20 13L18 13L18 14L15 14L15 15L14 15L14 14L13 14L13 13L15 13L15 12L14 12L14 11L15 11L15 10L16 10L16 9L12 9L12 8L15 8L15 7L16 7L16 8L18 8L18 6L17 6L17 7L16 7L16 6L15 6L15 4L14 4L14 3L15 3L15 2ZM22 3L22 4L23 4L23 3ZM13 5L13 6L12 6L12 7L13 7L13 6L14 6L14 7L15 7L15 6L14 6L14 5ZM22 6L22 7L23 7L23 6ZM11 9L11 10L10 10L10 13L11 13L11 10L12 10L12 9ZM39 9L39 10L40 10L40 9ZM26 10L26 11L25 11L25 12L26 12L26 11L27 11L27 10ZM12 11L12 13L13 13L13 11ZM29 11L29 12L30 12L30 11ZM1 13L1 17L2 17L2 18L4 18L4 17L2 17L2 13ZM20 13L20 14L21 14L21 13ZM6 14L6 15L7 15L7 14ZM23 14L23 15L24 15L24 14ZM26 14L26 15L27 15L27 16L26 16L26 19L27 19L27 21L26 21L26 20L24 20L24 21L23 21L23 20L22 20L22 21L23 21L23 22L24 22L24 21L25 21L25 22L26 22L26 23L27 23L27 24L26 24L26 26L27 26L27 27L26 27L26 28L25 28L25 29L26 29L26 30L27 30L27 31L28 31L28 32L29 32L29 31L28 31L28 30L27 30L27 29L26 29L26 28L27 28L27 27L28 27L28 28L29 28L29 29L31 29L31 30L32 30L32 31L33 31L33 30L32 30L32 29L31 29L31 26L29 26L29 25L30 25L30 24L29 24L29 21L30 21L30 23L31 23L31 22L32 22L32 21L33 21L33 20L32 20L32 19L31 19L31 20L32 20L32 21L30 21L30 20L29 20L29 19L28 19L28 18L30 18L30 17L28 17L28 16L29 16L29 14ZM37 14L37 16L39 16L39 15L38 15L38 14ZM30 15L30 16L31 16L31 15ZM27 17L27 18L28 18L28 17ZM34 18L34 19L35 19L35 18ZM6 20L6 21L8 21L8 20ZM14 20L14 21L12 21L12 22L14 22L14 21L15 21L15 20ZM28 20L28 21L27 21L27 22L28 22L28 21L29 21L29 20ZM20 22L20 23L21 23L21 24L20 24L20 27L21 27L21 26L22 26L22 25L23 25L23 26L24 26L24 24L25 24L25 23L24 23L24 24L22 24L22 23L21 23L21 22ZM0 23L0 28L1 28L1 27L2 27L2 25L4 25L4 24L1 24L1 23ZM10 23L10 24L11 24L11 23ZM21 24L21 25L22 25L22 24ZM27 24L27 26L28 26L28 25L29 25L29 24ZM29 27L29 28L30 28L30 27ZM7 28L7 29L6 29L6 30L7 30L7 29L9 29L9 28ZM0 29L0 33L1 33L1 29ZM35 30L35 32L36 32L36 30ZM2 31L2 33L7 33L7 32L3 32L3 31ZM33 33L33 36L36 36L36 33ZM34 34L34 35L35 35L35 34ZM20 35L20 37L21 37L21 38L20 38L20 39L21 39L21 40L20 40L20 41L21 41L21 40L22 40L22 41L23 41L23 40L24 40L24 41L28 41L28 40L29 40L29 41L30 41L30 40L29 40L29 38L31 38L31 37L30 37L30 36L29 36L29 37L28 37L28 36L27 36L27 37L26 37L26 36L25 36L25 35L24 35L24 37L23 37L23 36L21 36L21 35ZM40 35L40 36L41 36L41 35ZM37 36L37 37L33 37L33 38L39 38L39 37L38 37L38 36ZM18 37L18 38L19 38L19 37ZM22 37L22 38L21 38L21 39L25 39L25 40L27 40L27 38L28 38L28 37L27 37L27 38L25 38L25 37L24 37L24 38L23 38L23 37ZM12 39L12 40L13 40L13 39ZM18 39L18 40L17 40L17 41L18 41L18 40L19 40L19 39ZM34 39L34 40L35 40L35 39ZM37 39L37 40L39 40L39 39ZM0 0L0 7L7 7L7 0ZM1 1L1 6L6 6L6 1ZM2 2L2 5L5 5L5 2ZM34 0L34 7L41 7L41 0ZM35 1L35 6L40 6L40 1ZM36 2L36 5L39 5L39 2ZM0 34L0 41L7 41L7 34ZM1 35L1 40L6 40L6 35ZM2 36L2 39L5 39L5 36Z" fill="#ba0d0d"/></g></g></svg>
