<?xml version="1.0" encoding="UTF-8"?>
<svg xmlns="http://www.w3.org/2000/svg" version="1.1" width="250" height="250" viewBox="0 0 250 250"><rect x="0" y="0" width="250" height="250" fill="#ffffff"/><g transform="scale(4.386)"><g transform="translate(0,0)"><path fill-rule="evenodd" d="M8 0L8 1L9 1L9 2L10 2L10 1L11 1L11 0L10 0L10 1L9 1L9 0ZM12 0L12 2L13 2L13 3L12 3L12 4L9 4L9 5L10 5L10 8L9 8L9 6L8 6L8 8L9 8L9 9L8 9L8 11L7 11L7 10L6 10L6 9L7 9L7 8L6 8L6 9L5 9L5 8L3 8L3 10L2 10L2 11L1 11L1 12L0 12L0 13L2 13L2 11L3 11L3 10L4 10L4 9L5 9L5 10L6 10L6 11L5 11L5 15L4 15L4 16L5 16L5 15L8 15L8 16L6 16L6 17L5 17L5 18L4 18L4 17L2 17L2 20L1 20L1 21L0 21L0 23L1 23L1 21L2 21L2 20L3 20L3 18L4 18L4 21L3 21L3 23L4 23L4 22L5 22L5 23L7 23L7 22L8 22L8 21L9 21L9 22L10 22L10 20L14 20L14 22L13 22L13 21L11 21L11 23L14 23L14 24L13 24L13 25L14 25L14 26L12 26L12 27L13 27L13 28L14 28L14 30L13 30L13 32L11 32L11 31L12 31L12 30L11 30L11 29L12 29L12 28L11 28L11 29L10 29L10 28L9 28L9 26L10 26L10 27L11 27L11 26L10 26L10 25L9 25L9 24L10 24L10 23L9 23L9 24L8 24L8 25L9 25L9 26L6 26L6 25L7 25L7 24L4 24L4 25L3 25L3 24L1 24L1 26L0 26L0 27L1 27L1 28L2 28L2 27L3 27L3 28L4 28L4 30L3 30L3 29L2 29L2 30L1 30L1 31L0 31L0 32L1 32L1 33L2 33L2 32L3 32L3 34L2 34L2 35L1 35L1 36L0 36L0 37L2 37L2 35L3 35L3 36L5 36L5 35L7 35L7 36L6 36L6 37L7 37L7 38L6 38L6 39L7 39L7 40L6 40L6 41L5 41L5 39L4 39L4 41L5 41L5 42L4 42L4 43L5 43L5 42L6 42L6 43L8 43L8 44L3 44L3 42L2 42L2 45L1 45L1 46L0 46L0 48L5 48L5 47L7 47L7 46L8 46L8 48L6 48L6 49L8 49L8 50L9 50L9 51L11 51L11 49L12 49L12 52L13 52L13 53L14 53L14 54L12 54L12 53L11 53L11 52L10 52L10 53L9 53L9 52L8 52L8 54L9 54L9 55L8 55L8 57L10 57L10 54L12 54L12 57L19 57L19 55L20 55L20 54L21 54L21 52L22 52L22 51L23 51L23 48L24 48L24 47L26 47L26 52L25 52L25 53L24 53L24 52L23 52L23 55L24 55L24 56L22 56L22 57L25 57L25 56L28 56L28 57L29 57L29 56L31 56L31 57L32 57L32 56L31 56L31 54L32 54L32 55L35 55L35 54L38 54L38 55L37 55L37 56L35 56L35 57L37 57L37 56L38 56L38 57L41 57L41 55L42 55L42 57L44 57L44 55L42 55L42 54L44 54L44 53L45 53L45 54L46 54L46 55L45 55L45 56L46 56L46 57L48 57L48 55L49 55L49 54L52 54L52 55L50 55L50 56L49 56L49 57L54 57L54 56L57 56L57 54L55 54L55 55L54 55L54 54L52 54L52 53L53 53L53 52L57 52L57 51L56 51L56 50L55 50L55 51L53 51L53 47L51 47L51 46L55 46L55 47L54 47L54 48L55 48L55 47L57 47L57 44L56 44L56 45L54 45L54 44L55 44L55 41L54 41L54 40L55 40L55 39L54 39L54 40L53 40L53 38L52 38L52 36L53 36L53 37L54 37L54 38L55 38L55 37L56 37L56 36L57 36L57 34L56 34L56 36L55 36L55 33L54 33L54 36L53 36L53 33L52 33L52 32L56 32L56 33L57 33L57 30L56 30L56 28L57 28L57 27L56 27L56 28L55 28L55 26L56 26L56 25L55 25L55 26L54 26L54 25L53 25L53 24L52 24L52 25L50 25L50 24L51 24L51 23L52 23L52 22L54 22L54 24L55 24L55 21L56 21L56 20L57 20L57 18L56 18L56 19L55 19L55 18L54 18L54 17L52 17L52 18L51 18L51 19L50 19L50 18L49 18L49 17L48 17L48 16L49 16L49 13L50 13L50 17L51 17L51 16L52 16L52 15L53 15L53 16L56 16L56 17L57 17L57 16L56 16L56 15L55 15L55 14L56 14L56 13L54 13L54 12L55 12L55 11L57 11L57 10L55 10L55 9L54 9L54 10L53 10L53 9L51 9L51 8L50 8L50 9L48 9L48 11L47 11L47 5L48 5L48 0L46 0L46 1L45 1L45 0L44 0L44 1L43 1L43 0L41 0L41 1L43 1L43 2L44 2L44 1L45 1L45 3L42 3L42 2L41 2L41 3L40 3L40 2L39 2L39 3L38 3L38 1L40 1L40 0L38 0L38 1L37 1L37 0L36 0L36 1L37 1L37 2L36 2L36 3L35 3L35 0L34 0L34 1L33 1L33 0L28 0L28 1L27 1L27 0L26 0L26 1L27 1L27 2L28 2L28 1L33 1L33 2L29 2L29 3L27 3L27 4L26 4L26 5L25 5L25 6L24 6L24 5L23 5L23 3L22 3L22 2L24 2L24 4L25 4L25 3L26 3L26 2L25 2L25 0L24 0L24 1L22 1L22 0L20 0L20 1L18 1L18 0L15 0L15 1L17 1L17 3L16 3L16 2L14 2L14 0ZM20 1L20 2L19 2L19 3L20 3L20 2L21 2L21 1ZM46 1L46 2L47 2L47 1ZM33 2L33 4L32 4L32 6L31 6L31 10L28 10L28 12L27 12L27 11L26 11L26 10L25 10L25 11L26 11L26 14L25 14L25 16L24 16L24 17L23 17L23 15L22 15L22 16L21 16L21 14L20 14L20 13L21 13L21 10L22 10L22 11L23 11L23 12L24 12L24 13L25 13L25 12L24 12L24 11L23 11L23 9L26 9L26 6L25 6L25 7L24 7L24 6L23 6L23 5L22 5L22 6L21 6L21 5L20 5L20 4L18 4L18 5L20 5L20 6L19 6L19 7L18 7L18 6L17 6L17 5L16 5L16 3L15 3L15 5L14 5L14 6L13 6L13 5L12 5L12 6L11 6L11 7L12 7L12 6L13 6L13 7L14 7L14 6L15 6L15 7L16 7L16 6L17 6L17 7L18 7L18 8L19 8L19 7L20 7L20 6L21 6L21 7L22 7L22 8L20 8L20 9L21 9L21 10L19 10L19 9L17 9L17 8L12 8L12 9L14 9L14 10L13 10L13 11L12 11L12 13L11 13L11 12L10 12L10 11L11 11L11 8L10 8L10 11L9 11L9 12L8 12L8 13L6 13L6 14L8 14L8 15L10 15L10 18L9 18L9 19L8 19L8 17L9 17L9 16L8 16L8 17L6 17L6 18L5 18L5 19L6 19L6 20L5 20L5 21L6 21L6 22L7 22L7 21L8 21L8 20L10 20L10 19L12 19L12 18L13 18L13 19L14 19L14 20L15 20L15 24L14 24L14 25L15 25L15 24L16 24L16 26L15 26L15 27L14 27L14 28L15 28L15 27L16 27L16 29L17 29L17 30L18 30L18 29L17 29L17 27L18 27L18 26L19 26L19 29L20 29L20 30L22 30L22 31L23 31L23 30L24 30L24 31L26 31L26 33L25 33L25 32L23 32L23 33L22 33L22 32L21 32L21 31L18 31L18 32L19 32L19 33L17 33L17 31L14 31L14 32L13 32L13 33L11 33L11 34L9 34L9 32L10 32L10 31L11 31L11 30L9 30L9 31L5 31L5 32L4 32L4 31L3 31L3 32L4 32L4 33L6 33L6 34L7 34L7 33L6 33L6 32L8 32L8 36L7 36L7 37L8 37L8 36L9 36L9 38L10 38L10 40L12 40L12 41L10 41L10 42L9 42L9 39L8 39L8 40L7 40L7 41L6 41L6 42L9 42L9 44L10 44L10 42L11 42L11 44L12 44L12 46L11 46L11 45L10 45L10 47L9 47L9 48L10 48L10 49L9 49L9 50L10 50L10 49L11 49L11 47L12 47L12 46L13 46L13 49L14 49L14 50L13 50L13 52L14 52L14 50L15 50L15 48L14 48L14 47L15 47L15 46L16 46L16 45L17 45L17 47L16 47L16 50L17 50L17 51L16 51L16 52L15 52L15 55L13 55L13 56L17 56L17 55L18 55L18 54L19 54L19 53L20 53L20 51L19 51L19 50L20 50L20 49L22 49L22 48L23 48L23 47L24 47L24 46L21 46L21 47L19 47L19 46L18 46L18 45L19 45L19 44L21 44L21 43L19 43L19 41L18 41L18 39L17 39L17 38L19 38L19 40L20 40L20 39L21 39L21 41L20 41L20 42L21 42L21 41L23 41L23 42L24 42L24 41L23 41L23 40L24 40L24 39L25 39L25 38L24 38L24 37L26 37L26 38L27 38L27 39L26 39L26 41L25 41L25 43L24 43L24 45L25 45L25 46L26 46L26 45L29 45L29 44L27 44L27 42L26 42L26 41L27 41L27 39L28 39L28 38L31 38L31 39L29 39L29 40L31 40L31 42L32 42L32 44L31 44L31 43L30 43L30 41L29 41L29 43L30 43L30 46L29 46L29 47L30 47L30 48L31 48L31 50L32 50L32 46L33 46L33 42L34 42L34 44L36 44L36 40L37 40L37 41L38 41L38 43L37 43L37 45L38 45L38 44L39 44L39 45L40 45L40 44L41 44L41 45L43 45L43 46L39 46L39 47L40 47L40 48L37 48L37 46L36 46L36 45L35 45L35 47L36 47L36 48L37 48L37 49L34 49L34 53L36 53L36 52L35 52L35 50L38 50L38 49L40 49L40 48L41 48L41 49L42 49L42 47L43 47L43 49L44 49L44 52L45 52L45 51L46 51L46 53L47 53L47 52L48 52L48 51L47 51L47 50L48 50L48 49L46 49L46 50L45 50L45 49L44 49L44 47L45 47L45 46L44 46L44 45L46 45L46 43L48 43L48 41L47 41L47 42L46 42L46 43L45 43L45 44L44 44L44 43L43 43L43 42L45 42L45 41L44 41L44 40L45 40L45 39L46 39L46 40L47 40L47 39L46 39L46 38L47 38L47 36L48 36L48 34L47 34L47 36L46 36L46 35L45 35L45 37L46 37L46 38L44 38L44 40L43 40L43 42L42 42L42 43L43 43L43 44L41 44L41 43L40 43L40 44L39 44L39 42L40 42L40 41L41 41L41 40L42 40L42 39L43 39L43 38L41 38L41 39L40 39L40 38L38 38L38 37L37 37L37 38L36 38L36 35L34 35L34 36L35 36L35 37L34 37L34 38L33 38L33 39L32 39L32 38L31 38L31 37L32 37L32 36L33 36L33 34L34 34L34 32L35 32L35 30L34 30L34 32L33 32L33 30L31 30L31 31L26 31L26 30L24 30L24 29L26 29L26 28L24 28L24 27L23 27L23 26L22 26L22 24L19 24L19 23L21 23L21 22L24 22L24 19L25 19L25 23L23 23L23 24L24 24L24 25L25 25L25 27L26 27L26 26L28 26L28 24L29 24L29 23L28 23L28 18L27 18L27 17L29 17L29 18L30 18L30 19L29 19L29 21L30 21L30 19L32 19L32 18L33 18L33 17L32 17L32 16L34 16L34 17L36 17L36 16L37 16L37 15L36 15L36 16L34 16L34 15L35 15L35 14L36 14L36 12L37 12L37 14L38 14L38 15L39 15L39 17L37 17L37 18L38 18L38 19L39 19L39 18L40 18L40 17L41 17L41 18L42 18L42 19L41 19L41 20L42 20L42 21L43 21L43 22L42 22L42 23L41 23L41 22L40 22L40 23L39 23L39 22L38 22L38 24L37 24L37 23L35 23L35 22L32 22L32 21L33 21L33 20L35 20L35 19L36 19L36 20L37 20L37 19L36 19L36 18L34 18L34 19L33 19L33 20L31 20L31 22L30 22L30 23L31 23L31 24L30 24L30 25L31 25L31 24L32 24L32 23L34 23L34 24L33 24L33 25L34 25L34 28L33 28L33 26L32 26L32 27L31 27L31 28L33 28L33 29L34 29L34 28L35 28L35 29L36 29L36 28L39 28L39 29L38 29L38 30L39 30L39 32L38 32L38 33L39 33L39 34L37 34L37 36L39 36L39 37L40 37L40 36L41 36L41 37L44 37L44 35L43 35L43 34L40 34L40 33L39 33L39 32L40 32L40 31L41 31L41 30L42 30L42 32L43 32L43 33L45 33L45 34L46 34L46 33L45 33L45 32L46 32L46 31L47 31L47 30L46 30L46 31L44 31L44 32L43 32L43 30L42 30L42 29L43 29L43 27L44 27L44 28L45 28L45 29L44 29L44 30L45 30L45 29L46 29L46 27L47 27L47 26L48 26L48 25L49 25L49 26L50 26L50 25L49 25L49 24L48 24L48 22L47 22L47 23L46 23L46 22L44 22L44 21L45 21L45 19L44 19L44 18L46 18L46 20L47 20L47 21L50 21L50 19L49 19L49 20L48 20L48 19L47 19L47 18L48 18L48 17L47 17L47 16L48 16L48 13L49 13L49 12L51 12L51 13L52 13L52 14L54 14L54 13L52 13L52 12L54 12L54 11L55 11L55 10L54 10L54 11L53 11L53 10L49 10L49 12L48 12L48 13L47 13L47 12L46 12L46 11L45 11L45 12L46 12L46 14L45 14L45 13L44 13L44 15L43 15L43 14L41 14L41 13L43 13L43 12L44 12L44 10L42 10L42 9L43 9L43 8L42 8L42 6L43 6L43 7L44 7L44 9L45 9L45 7L46 7L46 6L45 6L45 5L47 5L47 3L46 3L46 4L45 4L45 5L44 5L44 6L43 6L43 5L42 5L42 4L41 4L41 5L42 5L42 6L41 6L41 10L40 10L40 9L39 9L39 10L37 10L37 11L36 11L36 9L35 9L35 12L34 12L34 11L33 11L33 13L32 13L32 12L31 12L31 13L32 13L32 14L30 14L30 15L31 15L31 18L30 18L30 16L29 16L29 15L28 15L28 16L26 16L26 15L27 15L27 13L28 13L28 14L29 14L29 13L28 13L28 12L30 12L30 11L32 11L32 10L33 10L33 9L34 9L34 6L35 6L35 8L37 8L37 7L38 7L38 6L37 6L37 7L36 7L36 6L35 6L35 4L34 4L34 2ZM21 3L21 4L22 4L22 3ZM29 3L29 4L30 4L30 3ZM36 4L36 5L37 5L37 4ZM27 5L27 8L30 8L30 5ZM33 5L33 6L32 6L32 8L33 8L33 6L34 6L34 5ZM39 5L39 8L40 8L40 5ZM22 6L22 7L23 7L23 8L22 8L22 9L23 9L23 8L24 8L24 7L23 7L23 6ZM28 6L28 7L29 7L29 6ZM44 6L44 7L45 7L45 6ZM48 6L48 8L49 8L49 6ZM0 8L0 9L2 9L2 8ZM56 8L56 9L57 9L57 8ZM15 9L15 10L14 10L14 11L13 11L13 13L12 13L12 14L11 14L11 17L12 17L12 15L14 15L14 14L15 14L15 16L13 16L13 17L14 17L14 18L15 18L15 19L16 19L16 18L18 18L18 21L19 21L19 22L20 22L20 20L21 20L21 21L23 21L23 20L21 20L21 18L20 18L20 17L19 17L19 16L20 16L20 14L19 14L19 13L20 13L20 12L19 12L19 13L18 13L18 14L15 14L15 12L16 12L16 11L17 11L17 12L18 12L18 11L17 11L17 9ZM39 10L39 11L40 11L40 10ZM41 10L41 12L40 12L40 13L41 13L41 12L43 12L43 11L42 11L42 10ZM6 11L6 12L7 12L7 11ZM14 11L14 12L15 12L15 11ZM37 11L37 12L38 12L38 14L39 14L39 12L38 12L38 11ZM3 12L3 13L4 13L4 12ZM8 13L8 14L9 14L9 13ZM13 13L13 14L14 14L14 13ZM22 13L22 14L23 14L23 13ZM33 13L33 14L32 14L32 15L34 15L34 13ZM1 14L1 15L0 15L0 16L2 16L2 15L3 15L3 14ZM46 14L46 16L44 16L44 17L46 17L46 18L47 18L47 17L46 17L46 16L47 16L47 14ZM17 15L17 17L18 17L18 15ZM42 15L42 16L41 16L41 17L42 17L42 18L43 18L43 15ZM0 17L0 18L1 18L1 17ZM15 17L15 18L16 18L16 17ZM24 17L24 18L23 18L23 19L24 19L24 18L25 18L25 19L26 19L26 22L27 22L27 19L26 19L26 18L25 18L25 17ZM6 18L6 19L7 19L7 18ZM19 18L19 20L20 20L20 18ZM52 18L52 20L51 20L51 22L49 22L49 23L51 23L51 22L52 22L52 20L53 20L53 21L55 21L55 20L53 20L53 18ZM42 19L42 20L44 20L44 19ZM6 20L6 21L7 21L7 20ZM16 20L16 22L17 22L17 20ZM38 20L38 21L40 21L40 20ZM31 22L31 23L32 23L32 22ZM43 22L43 24L38 24L38 27L39 27L39 28L42 28L42 27L41 27L41 26L39 26L39 25L42 25L42 26L43 26L43 25L44 25L44 26L45 26L45 27L46 27L46 25L47 25L47 24L46 24L46 25L45 25L45 23L44 23L44 22ZM56 22L56 24L57 24L57 22ZM16 23L16 24L17 24L17 23ZM25 23L25 25L26 25L26 23ZM11 24L11 25L12 25L12 24ZM18 24L18 25L19 25L19 24ZM36 24L36 27L35 27L35 28L36 28L36 27L37 27L37 24ZM4 25L4 26L3 26L3 27L4 27L4 26L5 26L5 25ZM20 25L20 26L21 26L21 25ZM52 25L52 26L53 26L53 25ZM5 27L5 30L8 30L8 27ZM20 27L20 28L21 28L21 27ZM27 27L27 30L30 30L30 27ZM49 27L49 30L52 30L52 27ZM6 28L6 29L7 29L7 28ZM22 28L22 30L23 30L23 29L24 29L24 28ZM28 28L28 29L29 29L29 28ZM50 28L50 29L51 29L51 28ZM54 28L54 29L55 29L55 28ZM40 29L40 30L41 30L41 29ZM36 30L36 32L37 32L37 30ZM54 30L54 31L56 31L56 30ZM49 31L49 32L50 32L50 33L49 33L49 34L51 34L51 36L52 36L52 34L51 34L51 31ZM14 32L14 33L13 33L13 34L11 34L11 36L10 36L10 35L9 35L9 36L10 36L10 37L11 37L11 38L12 38L12 37L11 37L11 36L12 36L12 35L14 35L14 33L15 33L15 34L16 34L16 35L15 35L15 37L14 37L14 36L13 36L13 37L14 37L14 40L15 40L15 42L13 42L13 43L15 43L15 42L18 42L18 41L17 41L17 40L16 40L16 38L17 38L17 36L18 36L18 37L19 37L19 38L21 38L21 35L22 35L22 38L23 38L23 37L24 37L24 34L25 34L25 35L26 35L26 34L27 34L27 35L28 35L28 36L26 36L26 37L27 37L27 38L28 38L28 37L29 37L29 34L30 34L30 35L31 35L31 36L32 36L32 34L31 34L31 33L28 33L28 32L27 32L27 33L26 33L26 34L25 34L25 33L23 33L23 35L22 35L22 34L21 34L21 32L20 32L20 33L19 33L19 34L17 34L17 33L15 33L15 32ZM47 32L47 33L48 33L48 32ZM35 33L35 34L36 34L36 33ZM3 34L3 35L4 35L4 34ZM20 34L20 35L21 35L21 34ZM16 35L16 36L17 36L17 35ZM49 35L49 36L50 36L50 35ZM19 36L19 37L20 37L20 36ZM54 36L54 37L55 37L55 36ZM4 37L4 38L5 38L5 37ZM48 37L48 38L49 38L49 39L48 39L48 40L52 40L52 39L51 39L51 38L49 38L49 37ZM34 38L34 39L33 39L33 40L32 40L32 42L33 42L33 41L34 41L34 42L35 42L35 40L36 40L36 38ZM56 38L56 43L57 43L57 38ZM1 39L1 41L0 41L0 44L1 44L1 41L2 41L2 39ZM12 39L12 40L13 40L13 39ZM34 39L34 40L35 40L35 39ZM38 40L38 41L40 41L40 40ZM50 41L50 42L51 42L51 43L50 43L50 44L49 44L49 46L48 46L48 44L47 44L47 46L48 46L48 47L47 47L47 48L48 48L48 47L49 47L49 48L50 48L50 45L51 45L51 43L52 43L52 45L53 45L53 43L54 43L54 41L53 41L53 43L52 43L52 41ZM22 43L22 44L23 44L23 43ZM25 43L25 44L26 44L26 43ZM13 44L13 45L14 45L14 46L15 46L15 45L16 45L16 44L15 44L15 45L14 45L14 44ZM17 44L17 45L18 45L18 44ZM2 45L2 46L1 46L1 47L2 47L2 46L3 46L3 47L5 47L5 45L4 45L4 46L3 46L3 45ZM6 45L6 46L7 46L7 45ZM31 45L31 46L30 46L30 47L31 47L31 46L32 46L32 45ZM43 46L43 47L44 47L44 46ZM21 47L21 48L22 48L22 47ZM27 47L27 48L28 48L28 47ZM33 47L33 48L34 48L34 47ZM18 48L18 49L20 49L20 48ZM24 49L24 50L25 50L25 49ZM27 49L27 52L30 52L30 49ZM49 49L49 52L52 52L52 49ZM28 50L28 51L29 51L29 50ZM42 50L42 51L43 51L43 50ZM50 50L50 51L51 51L51 50ZM17 51L17 52L18 52L18 53L16 53L16 55L17 55L17 54L18 54L18 53L19 53L19 51ZM38 51L38 52L37 52L37 53L38 53L38 54L39 54L39 56L40 56L40 53L41 53L41 54L42 54L42 53L41 53L41 51L40 51L40 52L39 52L39 51ZM38 52L38 53L39 53L39 52ZM25 53L25 54L24 54L24 55L28 55L28 56L29 56L29 55L28 55L28 54L29 54L29 53L28 53L28 54L26 54L26 53ZM32 53L32 54L33 54L33 53ZM48 53L48 54L47 54L47 55L46 55L46 56L47 56L47 55L48 55L48 54L49 54L49 53ZM33 56L33 57L34 57L34 56ZM0 0L7 0L7 7L0 7ZM1 1L1 6L6 6L6 1ZM2 2L5 2L5 5L2 5ZM50 0L57 0L57 7L50 7ZM51 1L51 6L56 6L56 1ZM52 2L55 2L55 5L52 5ZM0 50L7 50L7 57L0 57ZM1 51L1 56L6 56L6 51ZM2 52L5 52L5 55L2 55Z" fill="#d71d1d"/></g></g></svg>
