<?xml version="1.0" encoding="UTF-8"?>
<svg xmlns="http://www.w3.org/2000/svg" version="1.1" width="250" height="250" viewBox="0 0 250 250"><rect x="0" y="0" width="250" height="250" fill="#ffffff"/><g transform="scale(3.623)"><g transform="translate(0,0)"><path fill-rule="evenodd" d="M8 0L8 1L9 1L9 0ZM10 0L10 1L12 1L12 2L9 2L9 3L10 3L10 4L9 4L9 6L8 6L8 8L10 8L10 9L9 9L9 10L8 10L8 9L7 9L7 8L6 8L6 9L7 9L7 10L6 10L6 11L7 11L7 10L8 10L8 11L10 11L10 9L12 9L12 10L11 10L11 11L12 11L12 10L13 10L13 9L14 9L14 8L15 8L15 6L16 6L16 7L17 7L17 6L18 6L18 9L20 9L20 11L21 11L21 12L22 12L22 13L20 13L20 12L19 12L19 10L17 10L17 9L16 9L16 11L15 11L15 12L14 12L14 11L13 11L13 13L8 13L8 12L6 12L6 13L5 13L5 10L4 10L4 9L5 9L5 8L3 8L3 9L2 9L2 8L0 8L0 9L1 9L1 10L0 10L0 13L1 13L1 14L3 14L3 15L0 15L0 16L1 16L1 17L0 17L0 19L2 19L2 16L3 16L3 15L5 15L5 14L6 14L6 15L7 15L7 16L5 16L5 17L3 17L3 20L0 20L0 24L1 24L1 25L3 25L3 26L2 26L2 27L1 27L1 26L0 26L0 29L1 29L1 30L0 30L0 32L1 32L1 33L0 33L0 34L1 34L1 35L0 35L0 36L4 36L4 37L5 37L5 38L3 38L3 41L2 41L2 40L0 40L0 44L1 44L1 47L3 47L3 48L2 48L2 49L1 49L1 48L0 48L0 49L1 49L1 50L4 50L4 51L2 51L2 53L3 53L3 54L2 54L2 55L1 55L1 54L0 54L0 56L1 56L1 58L0 58L0 61L1 61L1 58L2 58L2 59L3 59L3 58L4 58L4 59L7 59L7 60L6 60L6 61L8 61L8 62L10 62L10 59L11 59L11 60L12 60L12 61L11 61L11 63L10 63L10 66L9 66L9 64L8 64L8 66L9 66L9 67L8 67L8 69L9 69L9 67L10 67L10 66L13 66L13 67L17 67L17 66L20 66L20 67L24 67L24 68L25 68L25 66L26 66L26 67L28 67L28 66L29 66L29 67L30 67L30 68L29 68L29 69L31 69L31 68L32 68L32 67L33 67L33 69L35 69L35 68L34 68L34 66L35 66L35 65L37 65L37 63L39 63L39 64L38 64L38 65L39 65L39 67L38 67L38 66L37 66L37 68L36 68L36 69L38 69L38 68L39 68L39 69L41 69L41 67L42 67L42 69L44 69L44 67L46 67L46 69L51 69L51 67L50 67L50 66L49 66L49 64L50 64L50 63L53 63L53 64L55 64L55 63L56 63L56 62L57 62L57 63L58 63L58 64L59 64L59 65L57 65L57 64L56 64L56 65L57 65L57 67L58 67L58 66L59 66L59 65L65 65L65 64L66 64L66 66L67 66L67 67L65 67L65 66L64 66L64 68L63 68L63 67L62 67L62 66L60 66L60 67L59 67L59 69L60 69L60 67L62 67L62 68L61 68L61 69L65 69L65 68L69 68L69 66L67 66L67 62L68 62L68 61L69 61L69 60L67 60L67 59L66 59L66 60L67 60L67 61L65 61L65 58L66 58L66 56L67 56L67 57L68 57L68 56L69 56L69 50L68 50L68 49L69 49L69 48L68 48L68 47L69 47L69 46L67 46L67 45L68 45L68 44L69 44L69 41L68 41L68 40L69 40L69 39L68 39L68 38L66 38L66 36L67 36L67 37L69 37L69 36L68 36L68 35L69 35L69 34L68 34L68 35L67 35L67 34L66 34L66 32L68 32L68 33L69 33L69 32L68 32L68 31L69 31L69 27L68 27L68 25L67 25L67 27L66 27L66 24L67 24L67 23L68 23L68 24L69 24L69 22L67 22L67 23L66 23L66 21L65 21L65 20L69 20L69 15L68 15L68 13L66 13L66 12L68 12L68 11L69 11L69 10L68 10L68 9L69 9L69 8L68 8L68 9L66 9L66 10L68 10L68 11L66 11L66 12L63 12L63 13L62 13L62 14L61 14L61 13L59 13L59 15L58 15L58 14L56 14L56 15L58 15L58 16L55 16L55 15L53 15L53 14L52 14L52 13L53 13L53 12L52 12L52 11L54 11L54 10L55 10L55 9L56 9L56 7L57 7L57 8L59 8L59 9L57 9L57 10L56 10L56 13L58 13L58 12L59 12L59 10L60 10L60 12L61 12L61 11L62 11L62 10L63 10L63 11L65 11L65 9L64 9L64 10L63 10L63 8L62 8L62 9L60 9L60 8L61 8L61 6L60 6L60 8L59 8L59 4L58 4L58 7L57 7L57 6L56 6L56 7L55 7L55 6L54 6L54 5L55 5L55 3L54 3L54 2L53 2L53 3L52 3L52 1L51 1L51 0L50 0L50 1L49 1L49 0L48 0L48 1L47 1L47 0L46 0L46 3L45 3L45 0L44 0L44 2L42 2L42 1L43 1L43 0L38 0L38 1L41 1L41 2L42 2L42 4L41 4L41 3L40 3L40 2L39 2L39 3L38 3L38 2L37 2L37 1L36 1L36 0L31 0L31 1L29 1L29 0L27 0L27 1L29 1L29 2L30 2L30 3L29 3L29 5L28 5L28 4L27 4L27 3L28 3L28 2L26 2L26 3L25 3L25 1L26 1L26 0L23 0L23 1L24 1L24 3L23 3L23 2L20 2L20 1L19 1L19 0L15 0L15 1L17 1L17 2L18 2L18 4L17 4L17 3L16 3L16 2L14 2L14 5L10 5L10 4L12 4L12 3L13 3L13 1L14 1L14 0ZM21 0L21 1L22 1L22 0ZM54 0L54 1L55 1L55 0ZM57 0L57 1L61 1L61 0ZM31 1L31 3L32 3L32 1ZM33 1L33 2L35 2L35 1ZM48 1L48 2L47 2L47 3L46 3L46 4L45 4L45 5L44 5L44 3L43 3L43 5L42 5L42 6L41 6L41 7L42 7L42 9L44 9L44 10L40 10L40 9L39 9L39 8L40 8L40 5L41 5L41 4L40 4L40 3L39 3L39 4L40 4L40 5L39 5L39 8L38 8L38 9L34 9L34 10L37 10L37 12L41 12L41 11L43 11L43 12L44 12L44 10L45 10L45 9L47 9L47 8L49 8L49 9L48 9L48 10L46 10L46 11L48 11L48 12L51 12L51 11L52 11L52 10L53 10L53 9L52 9L52 6L53 6L53 7L54 7L54 8L55 8L55 7L54 7L54 6L53 6L53 5L54 5L54 3L53 3L53 4L52 4L52 3L49 3L49 1ZM50 1L50 2L51 2L51 1ZM19 2L19 4L18 4L18 5L19 5L19 7L20 7L20 6L21 6L21 7L22 7L22 8L23 8L23 9L22 9L22 12L24 12L24 13L23 13L23 16L22 16L22 15L21 15L21 14L20 14L20 13L16 13L16 15L15 15L15 14L12 14L12 15L11 15L11 16L12 16L12 17L13 17L13 19L12 19L12 18L11 18L11 17L10 17L10 15L8 15L8 14L7 14L7 13L6 13L6 14L7 14L7 15L8 15L8 16L7 16L7 17L6 17L6 18L5 18L5 19L4 19L4 21L3 21L3 22L4 22L4 21L5 21L5 23L6 23L6 24L5 24L5 25L4 25L4 27L2 27L2 28L4 28L4 30L5 30L5 28L8 28L8 29L9 29L9 30L8 30L8 31L6 31L6 32L8 32L8 31L9 31L9 32L10 32L10 31L11 31L11 32L12 32L12 30L13 30L13 31L14 31L14 30L16 30L16 29L14 29L14 28L12 28L12 26L11 26L11 29L9 29L9 28L10 28L10 25L9 25L9 24L8 24L8 23L9 23L9 22L10 22L10 23L11 23L11 24L12 24L12 25L13 25L13 23L17 23L17 22L19 22L19 24L20 24L20 25L21 25L21 26L20 26L20 27L19 27L19 29L18 29L18 30L17 30L17 31L15 31L15 32L13 32L13 34L12 34L12 33L11 33L11 35L10 35L10 37L11 37L11 38L13 38L13 36L12 36L12 35L14 35L14 41L15 41L15 40L16 40L16 43L17 43L17 44L16 44L16 45L15 45L15 43L14 43L14 45L15 45L15 46L16 46L16 47L14 47L14 46L12 46L12 48L14 48L14 49L10 49L10 47L11 47L11 46L10 46L10 45L9 45L9 44L11 44L11 45L13 45L13 43L12 43L12 41L10 41L10 38L9 38L9 37L8 37L8 39L6 39L6 40L8 40L8 41L10 41L10 42L9 42L9 43L8 43L8 42L7 42L7 41L5 41L5 42L2 42L2 43L1 43L1 44L2 44L2 43L5 43L5 44L4 44L4 45L3 45L3 46L5 46L5 47L6 47L6 48L5 48L5 49L6 49L6 50L7 50L7 51L6 51L6 52L8 52L8 53L5 53L5 51L4 51L4 53L5 53L5 56L4 56L4 58L5 58L5 57L6 57L6 58L7 58L7 59L8 59L8 60L9 60L9 59L10 59L10 58L9 58L9 57L6 57L6 56L10 56L10 57L11 57L11 59L12 59L12 60L13 60L13 59L12 59L12 58L13 58L13 57L11 57L11 56L10 56L10 54L11 54L11 55L12 55L12 56L15 56L15 60L16 60L16 61L14 61L14 62L13 62L13 63L14 63L14 64L13 64L13 66L16 66L16 65L15 65L15 64L16 64L16 63L15 63L15 62L18 62L18 63L17 63L17 65L20 65L20 66L23 66L23 64L24 64L24 65L25 65L25 64L24 64L24 61L25 61L25 60L27 60L27 61L26 61L26 63L27 63L27 64L28 64L28 62L29 62L29 65L30 65L30 66L34 66L34 65L32 65L32 62L29 62L29 61L30 61L30 60L29 60L29 61L28 61L28 60L27 60L27 59L29 59L29 58L28 58L28 57L29 57L29 56L28 56L28 55L27 55L27 56L26 56L26 57L25 57L25 55L24 55L24 53L25 53L25 52L26 52L26 51L27 51L27 52L28 52L28 50L29 50L29 49L30 49L30 51L29 51L29 52L31 52L31 53L30 53L30 54L29 54L29 55L30 55L30 54L31 54L31 53L32 53L32 54L35 54L35 52L34 52L34 51L31 51L31 50L33 50L33 49L34 49L34 48L33 48L33 47L32 47L32 46L31 46L31 45L30 45L30 44L31 44L31 43L30 43L30 42L31 42L31 41L32 41L32 39L34 39L34 37L33 37L33 38L32 38L32 37L30 37L30 36L31 36L31 33L29 33L29 31L26 31L26 32L24 32L24 31L20 31L20 30L23 30L23 28L24 28L24 29L25 29L25 30L26 30L26 27L27 27L27 28L28 28L28 27L29 27L29 29L30 29L30 28L32 28L32 24L34 24L34 25L33 25L33 27L35 27L35 28L36 28L36 26L37 26L37 25L36 25L36 24L41 24L41 22L42 22L42 23L43 23L43 24L42 24L42 25L44 25L44 24L45 24L45 23L44 23L44 21L45 21L45 22L46 22L46 21L47 21L47 23L48 23L48 24L46 24L46 27L45 27L45 26L44 26L44 27L43 27L43 26L42 26L42 27L39 27L39 28L40 28L40 29L38 29L38 27L37 27L37 29L36 29L36 30L35 30L35 31L33 31L33 30L34 30L34 29L33 29L33 30L32 30L32 31L30 31L30 32L32 32L32 31L33 31L33 32L35 32L35 31L36 31L36 32L37 32L37 33L40 33L40 31L39 31L39 30L40 30L40 29L41 29L41 28L42 28L42 27L43 27L43 30L42 30L42 31L41 31L41 34L38 34L38 35L37 35L37 36L41 36L41 34L42 34L42 35L43 35L43 36L44 36L44 34L42 34L42 31L43 31L43 30L45 30L45 31L44 31L44 32L43 32L43 33L45 33L45 34L46 34L46 31L47 31L47 32L49 32L49 33L47 33L47 36L45 36L45 37L46 37L46 38L44 38L44 39L43 39L43 38L42 38L42 37L39 37L39 38L41 38L41 39L39 39L39 40L40 40L40 41L38 41L38 39L37 39L37 38L36 38L36 37L35 37L35 40L33 40L33 41L34 41L34 42L35 42L35 40L36 40L36 39L37 39L37 42L38 42L38 43L39 43L39 44L38 44L38 45L37 45L37 46L36 46L36 44L35 44L35 43L32 43L32 45L33 45L33 46L34 46L34 47L35 47L35 46L36 46L36 47L38 47L38 48L39 48L39 52L40 52L40 53L38 53L38 51L37 51L37 50L38 50L38 49L37 49L37 50L36 50L36 49L35 49L35 51L37 51L37 54L36 54L36 55L35 55L35 57L34 57L34 55L33 55L33 57L32 57L32 58L31 58L31 57L30 57L30 58L31 58L31 60L34 60L34 59L35 59L35 58L36 58L36 59L37 59L37 60L41 60L41 58L40 58L40 57L39 57L39 58L38 58L38 56L40 56L40 55L39 55L39 54L40 54L40 53L41 53L41 52L42 52L42 51L43 51L43 54L42 54L42 55L43 55L43 54L46 54L46 55L47 55L47 56L49 56L49 57L51 57L51 58L49 58L49 59L48 59L48 57L47 57L47 59L48 59L48 60L45 60L45 61L43 61L43 62L42 62L42 61L39 61L39 62L41 62L41 63L40 63L40 64L39 64L39 65L40 65L40 66L41 66L41 64L42 64L42 63L43 63L43 64L44 64L44 63L45 63L45 64L46 64L46 65L44 65L44 66L42 66L42 67L44 67L44 66L46 66L46 67L47 67L47 68L49 68L49 66L46 66L46 65L48 65L48 64L49 64L49 62L50 62L50 61L52 61L52 60L53 60L53 59L52 59L52 58L53 58L53 57L54 57L54 56L53 56L53 57L51 57L51 56L52 56L52 54L53 54L53 53L55 53L55 52L58 52L58 51L60 51L60 52L62 52L62 54L63 54L63 55L62 55L62 57L61 57L61 60L62 60L62 57L63 57L63 58L64 58L64 57L65 57L65 56L64 56L64 57L63 57L63 55L66 55L66 53L67 53L67 54L68 54L68 52L66 52L66 53L65 53L65 54L63 54L63 53L64 53L64 52L65 52L65 48L66 48L66 51L67 51L67 48L66 48L66 47L67 47L67 46L66 46L66 47L65 47L65 48L64 48L64 49L63 49L63 48L62 48L62 47L61 47L61 45L63 45L63 44L64 44L64 45L67 45L67 44L64 44L64 43L62 43L62 44L59 44L59 45L60 45L60 48L61 48L61 49L63 49L63 50L61 50L61 51L60 51L60 50L59 50L59 47L58 47L58 48L57 48L57 49L58 49L58 51L55 51L55 50L54 50L54 49L55 49L55 48L56 48L56 47L55 47L55 46L56 46L56 45L57 45L57 46L58 46L58 44L57 44L57 43L59 43L59 42L54 42L54 41L55 41L55 39L56 39L56 40L57 40L57 41L59 41L59 40L58 40L58 39L59 39L59 38L60 38L60 36L59 36L59 37L58 37L58 35L57 35L57 37L58 37L58 38L55 38L55 39L54 39L54 40L53 40L53 39L52 39L52 38L51 38L51 40L49 40L49 39L48 39L48 38L47 38L47 37L48 37L48 36L49 36L49 35L50 35L50 37L49 37L49 38L50 38L50 37L52 37L52 36L51 36L51 35L52 35L52 29L53 29L53 31L54 31L54 33L53 33L53 34L54 34L54 35L55 35L55 36L54 36L54 37L56 37L56 35L55 35L55 34L54 34L54 33L56 33L56 34L57 34L57 31L58 31L58 30L57 30L57 31L56 31L56 32L55 32L55 31L54 31L54 29L53 29L53 28L54 28L54 27L55 27L55 28L57 28L57 29L58 29L58 28L57 28L57 26L56 26L56 24L53 24L53 23L55 23L55 22L53 22L53 23L52 23L52 22L49 22L49 23L48 23L48 20L49 20L49 19L47 19L47 18L48 18L48 16L49 16L49 13L48 13L48 14L47 14L47 12L45 12L45 13L46 13L46 14L44 14L44 15L43 15L43 14L42 14L42 13L39 13L39 14L41 14L41 15L39 15L39 16L40 16L40 17L38 17L38 15L36 15L36 16L35 16L35 17L34 17L34 21L33 21L33 20L32 20L32 21L29 21L29 19L28 19L28 17L27 17L27 19L28 19L28 21L29 21L29 24L28 24L28 23L27 23L27 20L24 20L24 19L21 19L21 18L23 18L23 16L24 16L24 17L25 17L25 16L26 16L26 15L27 15L27 16L28 16L28 15L29 15L29 18L30 18L30 19L31 19L31 18L32 18L32 19L33 19L33 17L30 17L30 16L31 16L31 15L32 15L32 14L37 14L37 13L35 13L35 12L34 12L34 13L33 13L33 10L32 10L32 9L29 9L29 7L30 7L30 8L31 8L31 7L32 7L32 5L31 5L31 4L30 4L30 5L29 5L29 7L28 7L28 6L27 6L27 4L25 4L25 3L24 3L24 4L23 4L23 5L22 5L22 6L21 6L21 5L20 5L20 4L22 4L22 3L20 3L20 2ZM56 2L56 5L57 5L57 3L59 3L59 2ZM33 3L33 4L35 4L35 3ZM37 3L37 7L38 7L38 3ZM48 3L48 4L47 4L47 6L46 6L46 7L45 7L45 6L44 6L44 7L43 7L43 6L42 6L42 7L43 7L43 8L44 8L44 7L45 7L45 8L47 8L47 6L48 6L48 7L49 7L49 6L50 6L50 9L49 9L49 10L48 10L48 11L49 11L49 10L52 10L52 9L51 9L51 6L52 6L52 4L50 4L50 5L49 5L49 3ZM60 3L60 5L61 5L61 3ZM15 4L15 5L16 5L16 4ZM24 4L24 5L23 5L23 6L22 6L22 7L23 7L23 6L24 6L24 8L25 8L25 9L24 9L24 10L23 10L23 11L24 11L24 12L25 12L25 13L24 13L24 16L25 16L25 14L26 14L26 13L27 13L27 14L28 14L28 12L29 12L29 11L31 11L31 12L30 12L30 13L29 13L29 15L30 15L30 14L31 14L31 13L32 13L32 11L31 11L31 10L29 10L29 9L28 9L28 10L29 10L29 11L27 11L27 10L26 10L26 11L27 11L27 12L25 12L25 9L26 9L26 8L28 8L28 7L27 7L27 6L26 6L26 7L25 7L25 4ZM30 5L30 7L31 7L31 5ZM33 5L33 8L36 8L36 5ZM48 5L48 6L49 6L49 5ZM9 6L9 7L10 7L10 6ZM11 6L11 8L12 8L12 9L13 9L13 8L14 8L14 6L13 6L13 7L12 7L12 6ZM34 6L34 7L35 7L35 6ZM38 9L38 10L39 10L39 11L40 11L40 10L39 10L39 9ZM2 10L2 11L1 11L1 13L2 13L2 12L3 12L3 13L4 13L4 12L3 12L3 11L4 11L4 10ZM57 10L57 12L58 12L58 10ZM54 12L54 14L55 14L55 12ZM63 13L63 14L66 14L66 15L67 15L67 16L66 16L66 17L67 17L67 16L68 16L68 15L67 15L67 14L66 14L66 13ZM18 14L18 15L16 15L16 16L15 16L15 15L13 15L13 16L15 16L15 17L14 17L14 18L16 18L16 19L13 19L13 20L12 20L12 19L11 19L11 18L9 18L9 16L8 16L8 18L6 18L6 19L7 19L7 20L6 20L6 21L7 21L7 20L9 20L9 21L10 21L10 22L11 22L11 20L12 20L12 21L13 21L13 22L12 22L12 23L13 23L13 22L14 22L14 21L13 21L13 20L16 20L16 21L15 21L15 22L16 22L16 21L20 21L20 23L21 23L21 21L23 21L23 20L20 20L20 19L19 19L19 16L20 16L20 17L22 17L22 16L21 16L21 15L19 15L19 14ZM51 14L51 15L50 15L50 17L49 17L49 18L50 18L50 20L52 20L52 19L53 19L53 18L54 18L54 21L55 21L55 19L56 19L56 21L57 21L57 17L55 17L55 16L53 16L53 15L52 15L52 14ZM60 14L60 15L61 15L61 14ZM33 15L33 16L34 16L34 15ZM45 15L45 16L43 16L43 17L40 17L40 20L39 20L39 19L38 19L38 17L37 17L37 18L36 18L36 17L35 17L35 19L36 19L36 21L38 21L38 22L39 22L39 23L40 23L40 22L41 22L41 19L42 19L42 22L43 22L43 21L44 21L44 19L42 19L42 18L44 18L44 17L45 17L45 16L47 16L47 15ZM62 15L62 16L61 16L61 18L60 18L60 16L58 16L58 17L59 17L59 18L58 18L58 20L59 20L59 22L60 22L60 21L61 21L61 24L59 24L59 25L58 25L58 27L59 27L59 25L61 25L61 26L60 26L60 29L61 29L61 27L62 27L62 31L63 31L63 30L64 30L64 29L65 29L65 27L64 27L64 26L65 26L65 25L64 25L64 26L63 26L63 27L62 27L62 25L61 25L61 24L66 24L66 23L65 23L65 22L64 22L64 19L63 19L63 18L65 18L65 15ZM16 16L16 18L18 18L18 17L17 17L17 16ZM62 16L62 17L63 17L63 16ZM46 17L46 18L45 18L45 19L46 19L46 18L47 18L47 17ZM51 17L51 18L52 18L52 17ZM54 17L54 18L55 18L55 17ZM25 18L25 19L26 19L26 18ZM61 18L61 19L60 19L60 20L61 20L61 21L62 21L62 22L63 22L63 21L62 21L62 20L63 20L63 19L62 19L62 18ZM67 18L67 19L68 19L68 18ZM9 19L9 20L10 20L10 19ZM17 19L17 20L18 20L18 19ZM38 20L38 21L39 21L39 22L40 22L40 21L39 21L39 20ZM45 20L45 21L46 21L46 20ZM24 21L24 22L22 22L22 23L23 23L23 24L22 24L22 26L21 26L21 27L20 27L20 28L21 28L21 27L22 27L22 28L23 28L23 27L24 27L24 28L25 28L25 27L26 27L26 25L27 25L27 24L26 24L26 23L25 23L25 21ZM32 21L32 22L33 22L33 23L34 23L34 24L35 24L35 23L34 23L34 22L35 22L35 21L34 21L34 22L33 22L33 21ZM1 22L1 23L2 23L2 24L3 24L3 23L2 23L2 22ZM6 22L6 23L8 23L8 22ZM30 22L30 25L31 25L31 22ZM36 22L36 23L37 23L37 22ZM57 22L57 24L58 24L58 22ZM24 23L24 24L23 24L23 25L25 25L25 23ZM49 23L49 24L48 24L48 25L47 25L47 27L46 27L46 29L45 29L45 28L44 28L44 29L45 29L45 30L47 30L47 31L50 31L50 29L51 29L51 27L50 27L50 26L51 26L51 25L50 25L50 26L49 26L49 27L48 27L48 25L49 25L49 24L51 24L51 23ZM6 24L6 25L5 25L5 26L6 26L6 27L8 27L8 28L9 28L9 25L8 25L8 26L6 26L6 25L7 25L7 24ZM14 24L14 25L15 25L15 28L16 28L16 26L17 26L17 28L18 28L18 26L19 26L19 25L16 25L16 24ZM52 24L52 25L53 25L53 26L55 26L55 27L56 27L56 26L55 26L55 25L53 25L53 24ZM39 25L39 26L41 26L41 25ZM24 26L24 27L25 27L25 26ZM27 26L27 27L28 27L28 26ZM29 26L29 27L31 27L31 26ZM67 27L67 28L66 28L66 29L67 29L67 31L68 31L68 27ZM47 28L47 29L48 29L48 30L49 30L49 29L50 29L50 28L49 28L49 29L48 29L48 28ZM63 28L63 29L64 29L64 28ZM2 29L2 30L1 30L1 31L3 31L3 33L4 33L4 31L3 31L3 29ZM6 29L6 30L7 30L7 29ZM13 29L13 30L14 30L14 29ZM19 29L19 30L20 30L20 29ZM36 30L36 31L37 31L37 32L39 32L39 31L38 31L38 30ZM59 30L59 33L60 33L60 32L61 32L61 30ZM65 30L65 31L66 31L66 30ZM19 31L19 32L20 32L20 34L19 34L19 33L18 33L18 32L17 32L17 33L16 33L16 32L15 32L15 33L14 33L14 34L15 34L15 35L16 35L16 36L15 36L15 37L16 37L16 36L17 36L17 35L20 35L20 36L18 36L18 37L19 37L19 38L18 38L18 40L17 40L17 39L16 39L16 38L15 38L15 39L16 39L16 40L17 40L17 43L18 43L18 45L19 45L19 46L17 46L17 45L16 45L16 46L17 46L17 47L16 47L16 48L15 48L15 49L16 49L16 48L17 48L17 50L14 50L14 52L12 52L12 51L8 51L8 52L10 52L10 53L11 53L11 52L12 52L12 54L13 54L13 55L15 55L15 56L16 56L16 58L17 58L17 59L16 59L16 60L17 60L17 61L20 61L20 62L21 62L21 63L22 63L22 64L21 64L21 65L22 65L22 64L23 64L23 61L24 61L24 60L25 60L25 57L23 57L23 56L22 56L22 55L23 55L23 54L18 54L18 53L19 53L19 52L21 52L21 53L22 53L22 52L23 52L23 49L24 49L24 52L25 52L25 51L26 51L26 50L25 50L25 49L24 49L24 48L26 48L26 49L27 49L27 50L28 50L28 49L27 49L27 48L26 48L26 47L28 47L28 48L29 48L29 47L30 47L30 49L33 49L33 48L31 48L31 47L30 47L30 46L29 46L29 45L28 45L28 44L30 44L30 43L29 43L29 42L30 42L30 41L31 41L31 40L30 40L30 41L29 41L29 39L30 39L30 38L28 38L28 37L27 37L27 36L29 36L29 35L28 35L28 34L29 34L29 33L28 33L28 32L27 32L27 34L25 34L25 33L24 33L24 34L23 34L23 35L22 35L22 34L21 34L21 33L23 33L23 32L20 32L20 31ZM50 32L50 34L51 34L51 32ZM5 33L5 36L8 36L8 33ZM15 33L15 34L16 34L16 35L17 35L17 34L18 34L18 33L17 33L17 34L16 34L16 33ZM33 33L33 36L36 36L36 33ZM61 33L61 36L64 36L64 33ZM6 34L6 35L7 35L7 34ZM34 34L34 35L35 35L35 34ZM59 34L59 35L60 35L60 34ZM62 34L62 35L63 35L63 34ZM21 35L21 36L20 36L20 37L21 37L21 38L20 38L20 39L19 39L19 41L18 41L18 42L21 42L21 43L22 43L22 44L21 44L21 46L19 46L19 47L20 47L20 49L21 49L21 50L18 50L18 52L17 52L17 53L18 53L18 52L19 52L19 51L21 51L21 52L22 52L22 51L21 51L21 50L22 50L22 49L21 49L21 48L22 48L22 47L23 47L23 46L24 46L24 45L25 45L25 46L28 46L28 45L27 45L27 44L28 44L28 43L27 43L27 44L26 44L26 45L25 45L25 44L23 44L23 43L24 43L24 41L25 41L25 42L26 42L26 39L28 39L28 38L27 38L27 37L26 37L26 39L25 39L25 40L23 40L23 39L24 39L24 38L22 38L22 37L21 37L21 36L22 36L22 35ZM26 35L26 36L27 36L27 35ZM65 35L65 36L66 36L66 35ZM11 36L11 37L12 37L12 36ZM24 36L24 37L25 37L25 36ZM1 37L1 38L0 38L0 39L2 39L2 37ZM6 37L6 38L7 38L7 37ZM64 37L64 38L62 38L62 40L61 40L61 42L64 42L64 41L62 41L62 40L63 40L63 39L64 39L64 38L65 38L65 37ZM31 38L31 39L32 39L32 38ZM46 38L46 39L47 39L47 38ZM8 39L8 40L9 40L9 39ZM11 39L11 40L13 40L13 39ZM20 39L20 40L21 40L21 39ZM42 39L42 40L41 40L41 41L40 41L40 42L39 42L39 43L40 43L40 44L39 44L39 45L38 45L38 46L39 46L39 47L40 47L40 46L41 46L41 48L40 48L40 49L42 49L42 50L44 50L44 51L45 51L45 52L44 52L44 53L45 53L45 52L46 52L46 50L44 50L44 49L45 49L45 47L47 47L47 48L46 48L46 49L47 49L47 51L49 51L49 52L48 52L48 54L50 54L50 51L51 51L51 50L53 50L53 48L52 48L52 49L49 49L49 48L50 48L50 47L47 47L47 46L48 46L48 45L49 45L49 46L52 46L52 47L53 47L53 46L55 46L55 44L56 44L56 43L54 43L54 42L53 42L53 41L52 41L52 45L51 45L51 43L50 43L50 41L49 41L49 40L48 40L48 41L45 41L45 40L44 40L44 41L42 41L42 40L43 40L43 39ZM27 40L27 42L28 42L28 40ZM66 40L66 41L65 41L65 42L68 42L68 41L67 41L67 40ZM41 41L41 42L42 42L42 43L41 43L41 46L42 46L42 47L43 47L43 49L44 49L44 47L45 47L45 46L42 46L42 43L44 43L44 45L45 45L45 42L42 42L42 41ZM5 42L5 43L7 43L7 44L5 44L5 46L6 46L6 47L7 47L7 48L6 48L6 49L7 49L7 48L8 48L8 49L9 49L9 50L10 50L10 49L9 49L9 48L8 48L8 46L9 46L9 45L8 45L8 46L6 46L6 45L7 45L7 44L8 44L8 43L7 43L7 42ZM10 42L10 43L11 43L11 44L12 44L12 43L11 43L11 42ZM22 42L22 43L23 43L23 42ZM46 42L46 45L47 45L47 43L48 43L48 44L49 44L49 45L50 45L50 44L49 44L49 42ZM53 43L53 44L54 44L54 43ZM22 44L22 45L23 45L23 44ZM33 44L33 45L35 45L35 44ZM39 45L39 46L40 46L40 45ZM52 45L52 46L53 46L53 45ZM21 46L21 47L22 47L22 46ZM63 46L63 47L64 47L64 46ZM17 47L17 48L18 48L18 47ZM3 48L3 49L4 49L4 48ZM47 48L47 49L48 49L48 48ZM40 50L40 51L41 51L41 50ZM0 51L0 52L1 52L1 51ZM15 51L15 53L13 53L13 54L15 54L15 55L17 55L17 58L19 58L19 60L20 60L20 61L21 61L21 62L22 62L22 60L24 60L24 58L23 58L23 57L22 57L22 56L21 56L21 58L22 58L22 60L21 60L21 59L20 59L20 57L18 57L18 55L17 55L17 54L15 54L15 53L16 53L16 51ZM63 51L63 52L64 52L64 51ZM32 52L32 53L34 53L34 52ZM51 52L51 54L52 54L52 52ZM8 53L8 55L9 55L9 53ZM46 53L46 54L47 54L47 53ZM60 53L60 54L59 54L59 55L58 55L58 56L59 56L59 58L60 58L60 56L59 56L59 55L60 55L60 54L61 54L61 53ZM3 54L3 55L2 55L2 58L3 58L3 55L4 55L4 54ZM6 54L6 55L7 55L7 54ZM37 54L37 55L36 55L36 58L37 58L37 55L38 55L38 54ZM54 54L54 55L56 55L56 57L55 57L55 58L54 58L54 59L55 59L55 60L54 60L54 61L55 61L55 60L56 60L56 59L55 59L55 58L56 58L56 57L57 57L57 54ZM44 55L44 59L43 59L43 58L42 58L42 59L43 59L43 60L44 60L44 59L45 59L45 55ZM49 55L49 56L50 56L50 55ZM27 56L27 57L28 57L28 56ZM26 58L26 59L27 59L27 58ZM33 58L33 59L34 59L34 58ZM39 58L39 59L40 59L40 58ZM68 58L68 59L69 59L69 58ZM49 59L49 60L48 60L48 62L47 62L47 63L46 63L46 62L45 62L45 63L46 63L46 64L47 64L47 63L48 63L48 62L49 62L49 60L51 60L51 59ZM58 59L58 60L60 60L60 59ZM63 59L63 60L64 60L64 59ZM3 60L3 61L5 61L5 60ZM27 61L27 62L28 62L28 61ZM33 61L33 64L36 64L36 61ZM57 61L57 62L58 62L58 63L59 63L59 64L60 64L60 61ZM61 61L61 64L64 64L64 61ZM34 62L34 63L35 63L35 62ZM53 62L53 63L54 63L54 62ZM62 62L62 63L63 63L63 62ZM68 63L68 65L69 65L69 63ZM30 64L30 65L31 65L31 64ZM51 64L51 66L52 66L52 69L54 69L54 68L56 68L56 66L55 66L55 65L52 65L52 64ZM54 66L54 67L55 67L55 66ZM18 67L18 68L17 68L17 69L23 69L23 68L19 68L19 67ZM39 67L39 68L40 68L40 67ZM10 68L10 69L12 69L12 68ZM13 68L13 69L14 69L14 68ZM15 68L15 69L16 69L16 68ZM27 68L27 69L28 69L28 68ZM0 0L0 7L7 7L7 0ZM1 1L1 6L6 6L6 1ZM2 2L2 5L5 5L5 2ZM62 0L62 7L69 7L69 0ZM63 1L63 6L68 6L68 1ZM64 2L64 5L67 5L67 2ZM0 62L0 69L7 69L7 62ZM1 63L1 68L6 68L6 63ZM2 64L2 67L5 67L5 64Z" fill="#540707"/></g></g></svg>
