<?xml version="1.0" encoding="UTF-8"?>
<svg xmlns="http://www.w3.org/2000/svg" version="1.1" width="250" height="250" viewBox="0 0 250 250"><rect x="0" y="0" width="250" height="250" fill="#5e2222"/><g transform="scale(4.386)"><g transform="translate(0,0)"><path fill-rule="evenodd" d="M8 0.25L8 0.75A0.25 0.25 0 0 0 8.25 1L8.75 1A0.25 0.25 0 0 1 9 1.25L9 1.75A0.25 0.25 0 0 0 9.25 2L9.75 2A0.25 0.25 0 0 0 10 1.75L10 1.25A0.25 0.25 0 0 1 10.25 1L10.75 1A0.25 0.25 0 0 0 11 0.75L11 0.25A0.25 0.25 0 0 0 10.75 0L10.25 0A0.25 0.25 0 0 0 10 0.25L10 0.75A0.25 0.25 0 0 1 9.75 1L9.25 1A0.25 0.25 0 0 1 9 0.75L9 0.25A0.25 0.25 0 0 0 8.75 0L8.25 0A0.25 0.25 0 0 0 8 0.25ZM12 0.25L12 1.75A0.25 0.25 0 0 0 12.25 2L12.75 2A0.25 0.25 0 0 1 13 2.25L13 2.75A0.25 0.25 0 0 1 12.75 3L12.25 3A0.25 0.25 0 0 0 12 3.25L12 3.75A0.25 0.25 0 0 1 11.75 4L9.25 4A0.25 0.25 0 0 0 9 4.25L9 4.75A0.25 0.25 0 0 0 9.25 5L9.75 5A0.25 0.25 0 0 1 10 5.25L10 7.75A0.25 0.25 0 0 1 9.75 8L9.25 8A0.25 0.25 0 0 1 9 7.75L9 6.25A0.25 0.25 0 0 0 8.75 6L8.25 6A0.25 0.25 0 0 0 8 6.25L8 7.75A0.25 0.25 0 0 0 8.25 8L8.75 8A0.25 0.25 0 0 1 9 8.25L9 8.75A0.25 0.25 0 0 1 8.75 9L8.25 9A0.25 0.25 0 0 0 8 9.25L8 10.75A0.25 0.25 0 0 1 7.75 11L7.25 11A0.25 0.25 0 0 1 7 10.75L7 10.25A0.25 0.25 0 0 0 6.75 10L6.25 10A0.25 0.25 0 0 1 6 9.75L6 9.25A0.25 0.25 0 0 1 6.25 9L6.75 9A0.25 0.25 0 0 0 7 8.75L7 8.25A0.25 0.25 0 0 0 6.75 8L6.25 8A0.25 0.25 0 0 0 6 8.25L6 8.75A0.25 0.25 0 0 1 5.75 9L5.25 9A0.25 0.25 0 0 1 5 8.75L5 8.25A0.25 0.25 0 0 0 4.75 8L3.25 8A0.25 0.25 0 0 0 3 8.25L3 9.75A0.25 0.25 0 0 1 2.75 10L2.25 10A0.25 0.25 0 0 0 2 10.25L2 10.75A0.25 0.25 0 0 1 1.75 11L1.25 11A0.25 0.25 0 0 0 1 11.25L1 11.75A0.25 0.25 0 0 1 0.75 12L0.25 12A0.25 0.25 0 0 0 0 12.25L0 12.75A0.25 0.25 0 0 0 0.25 13L1.75 13A0.25 0.25 0 0 0 2 12.75L2 11.25A0.25 0.25 0 0 1 2.25 11L2.75 11A0.25 0.25 0 0 0 3 10.75L3 10.25A0.25 0.25 0 0 1 3.25 10L3.75 10A0.25 0.25 0 0 0 4 9.75L4 9.25A0.25 0.25 0 0 1 4.25 9L4.75 9A0.25 0.25 0 0 1 5 9.25L5 9.75A0.25 0.25 0 0 0 5.25 10L5.75 10A0.25 0.25 0 0 1 6 10.25L6 10.75A0.25 0.25 0 0 1 5.75 11L5.25 11A0.25 0.25 0 0 0 5 11.25L5 14.75A0.25 0.25 0 0 1 4.75 15L4.25 15A0.25 0.25 0 0 0 4 15.25L4 15.75A0.25 0.25 0 0 0 4.25 16L4.75 16A0.25 0.25 0 0 0 5 15.75L5 15.25A0.25 0.25 0 0 1 5.25 15L7.75 15A0.25 0.25 0 0 1 8 15.25L8 15.75A0.25 0.25 0 0 1 7.75 16L6.25 16A0.25 0.25 0 0 0 6 16.25L6 16.75A0.25 0.25 0 0 1 5.75 17L5.25 17A0.25 0.25 0 0 0 5 17.25L5 17.75A0.25 0.25 0 0 1 4.75 18L4.25 18A0.25 0.25 0 0 1 4 17.75L4 17.25A0.25 0.25 0 0 0 3.75 17L2.25 17A0.25 0.25 0 0 0 2 17.25L2 19.75A0.25 0.25 0 0 1 1.75 20L1.25 20A0.25 0.25 0 0 0 1 20.25L1 20.75A0.25 0.25 0 0 1 0.75 21L0.25 21A0.25 0.25 0 0 0 0 21.25L0 22.75A0.25 0.25 0 0 0 0.25 23L0.75 23A0.25 0.25 0 0 0 1 22.75L1 21.25A0.25 0.25 0 0 1 1.25 21L1.75 21A0.25 0.25 0 0 0 2 20.75L2 20.25A0.25 0.25 0 0 1 2.25 20L2.75 20A0.25 0.25 0 0 0 3 19.75L3 18.25A0.25 0.25 0 0 1 3.25 18L3.75 18A0.25 0.25 0 0 1 4 18.25L4 20.75A0.25 0.25 0 0 1 3.75 21L3.25 21A0.25 0.25 0 0 0 3 21.25L3 22.75A0.25 0.25 0 0 0 3.25 23L3.75 23A0.25 0.25 0 0 0 4 22.75L4 22.25A0.25 0.25 0 0 1 4.25 22L4.75 22A0.25 0.25 0 0 1 5 22.25L5 22.75A0.25 0.25 0 0 0 5.25 23L6.75 23A0.25 0.25 0 0 0 7 22.75L7 22.25A0.25 0.25 0 0 1 7.25 22L7.75 22A0.25 0.25 0 0 0 8 21.75L8 21.25A0.25 0.25 0 0 1 8.25 21L8.75 21A0.25 0.25 0 0 1 9 21.25L9 21.75A0.25 0.25 0 0 0 9.25 22L9.75 22A0.25 0.25 0 0 0 10 21.75L10 20.25A0.25 0.25 0 0 1 10.25 20L13.75 20A0.25 0.25 0 0 1 14 20.25L14 21.75A0.25 0.25 0 0 1 13.75 22L13.25 22A0.25 0.25 0 0 1 13 21.75L13 21.25A0.25 0.25 0 0 0 12.75 21L11.25 21A0.25 0.25 0 0 0 11 21.25L11 22.75A0.25 0.25 0 0 0 11.25 23L13.75 23A0.25 0.25 0 0 1 14 23.25L14 23.75A0.25 0.25 0 0 1 13.75 24L13.25 24A0.25 0.25 0 0 0 13 24.25L13 24.75A0.25 0.25 0 0 0 13.25 25L13.75 25A0.25 0.25 0 0 1 14 25.25L14 25.75A0.25 0.25 0 0 1 13.75 26L12.25 26A0.25 0.25 0 0 0 12 26.25L12 26.75A0.25 0.25 0 0 0 12.25 27L12.75 27A0.25 0.25 0 0 1 13 27.25L13 27.75A0.25 0.25 0 0 0 13.25 28L13.75 28A0.25 0.25 0 0 1 14 28.25L14 29.75A0.25 0.25 0 0 1 13.75 30L13.25 30A0.25 0.25 0 0 0 13 30.25L13 31.75A0.25 0.25 0 0 1 12.75 32L11.25 32A0.25 0.25 0 0 1 11 31.75L11 31.25A0.25 0.25 0 0 1 11.25 31L11.75 31A0.25 0.25 0 0 0 12 30.75L12 30.25A0.25 0.25 0 0 0 11.75 30L11.25 30A0.25 0.25 0 0 1 11 29.75L11 29.25A0.25 0.25 0 0 1 11.25 29L11.75 29A0.25 0.25 0 0 0 12 28.75L12 28.25A0.25 0.25 0 0 0 11.75 28L11.25 28A0.25 0.25 0 0 0 11 28.25L11 28.75A0.25 0.25 0 0 1 10.75 29L10.25 29A0.25 0.25 0 0 1 10 28.75L10 28.25A0.25 0.25 0 0 0 9.75 28L9.25 28A0.25 0.25 0 0 1 9 27.75L9 26.25A0.25 0.25 0 0 1 9.25 26L9.75 26A0.25 0.25 0 0 1 10 26.25L10 26.75A0.25 0.25 0 0 0 10.25 27L10.75 27A0.25 0.25 0 0 0 11 26.75L11 26.25A0.25 0.25 0 0 0 10.75 26L10.25 26A0.25 0.25 0 0 1 10 25.75L10 25.25A0.25 0.25 0 0 0 9.75 25L9.25 25A0.25 0.25 0 0 1 9 24.75L9 24.25A0.25 0.25 0 0 1 9.25 24L9.75 24A0.25 0.25 0 0 0 10 23.75L10 23.25A0.25 0.25 0 0 0 9.75 23L9.25 23A0.25 0.25 0 0 0 9 23.25L9 23.75A0.25 0.25 0 0 1 8.75 24L8.25 24A0.25 0.25 0 0 0 8 24.25L8 24.75A0.25 0.25 0 0 0 8.25 25L8.75 25A0.25 0.25 0 0 1 9 25.25L9 25.75A0.25 0.25 0 0 1 8.75 26L6.25 26A0.25 0.25 0 0 1 6 25.75L6 25.25A0.25 0.25 0 0 1 6.25 25L6.75 25A0.25 0.25 0 0 0 7 24.75L7 24.25A0.25 0.25 0 0 0 6.75 24L4.25 24A0.25 0.25 0 0 0 4 24.25L4 24.75A0.25 0.25 0 0 1 3.75 25L3.25 25A0.25 0.25 0 0 1 3 24.75L3 24.25A0.25 0.25 0 0 0 2.75 24L1.25 24A0.25 0.25 0 0 0 1 24.25L1 25.75A0.25 0.25 0 0 1 0.75 26L0.25 26A0.25 0.25 0 0 0 0 26.25L0 26.75A0.25 0.25 0 0 0 0.25 27L0.75 27A0.25 0.25 0 0 1 1 27.25L1 27.75A0.25 0.25 0 0 0 1.25 28L1.75 28A0.25 0.25 0 0 0 2 27.75L2 27.25A0.25 0.25 0 0 1 2.25 27L2.75 27A0.25 0.25 0 0 1 3 27.25L3 27.75A0.25 0.25 0 0 0 3.25 28L3.75 28A0.25 0.25 0 0 1 4 28.25L4 29.75A0.25 0.25 0 0 1 3.75 30L3.25 30A0.25 0.25 0 0 1 3 29.75L3 29.25A0.25 0.25 0 0 0 2.75 29L2.25 29A0.25 0.25 0 0 0 2 29.25L2 29.75A0.25 0.25 0 0 1 1.75 30L1.25 30A0.25 0.25 0 0 0 1 30.25L1 30.75A0.25 0.25 0 0 1 0.75 31L0.25 31A0.25 0.25 0 0 0 0 31.25L0 31.75A0.25 0.25 0 0 0 0.25 32L0.75 32A0.25 0.25 0 0 1 1 32.25L1 32.75A0.25 0.25 0 0 0 1.25 33L1.75 33A0.25 0.25 0 0 0 2 32.75L2 32.25A0.25 0.25 0 0 1 2.25 32L2.75 32A0.25 0.25 0 0 1 3 32.25L3 33.75A0.25 0.25 0 0 1 2.75 34L2.25 34A0.25 0.25 0 0 0 2 34.25L2 34.75A0.25 0.25 0 0 1 1.75 35L1.25 35A0.25 0.25 0 0 0 1 35.25L1 35.75A0.25 0.25 0 0 1 0.75 36L0.25 36A0.25 0.25 0 0 0 0 36.25L0 36.75A0.25 0.25 0 0 0 0.25 37L1.75 37A0.25 0.25 0 0 0 2 36.75L2 35.25A0.25 0.25 0 0 1 2.25 35L2.75 35A0.25 0.25 0 0 1 3 35.25L3 35.75A0.25 0.25 0 0 0 3.25 36L4.75 36A0.25 0.25 0 0 0 5 35.75L5 35.25A0.25 0.25 0 0 1 5.25 35L6.75 35A0.25 0.25 0 0 1 7 35.25L7 35.75A0.25 0.25 0 0 1 6.75 36L6.25 36A0.25 0.25 0 0 0 6 36.25L6 36.75A0.25 0.25 0 0 0 6.25 37L6.75 37A0.25 0.25 0 0 1 7 37.25L7 37.75A0.25 0.25 0 0 1 6.75 38L6.25 38A0.25 0.25 0 0 0 6 38.25L6 38.75A0.25 0.25 0 0 0 6.25 39L6.75 39A0.25 0.25 0 0 1 7 39.25L7 39.75A0.25 0.25 0 0 1 6.75 40L6.25 40A0.25 0.25 0 0 0 6 40.25L6 40.75A0.25 0.25 0 0 1 5.75 41L5.25 41A0.25 0.25 0 0 1 5 40.75L5 39.25A0.25 0.25 0 0 0 4.75 39L4.25 39A0.25 0.25 0 0 0 4 39.25L4 40.75A0.25 0.25 0 0 0 4.25 41L4.75 41A0.25 0.25 0 0 1 5 41.25L5 41.75A0.25 0.25 0 0 1 4.75 42L4.25 42A0.25 0.25 0 0 0 4 42.25L4 42.75A0.25 0.25 0 0 0 4.25 43L4.75 43A0.25 0.25 0 0 0 5 42.75L5 42.25A0.25 0.25 0 0 1 5.25 42L5.75 42A0.25 0.25 0 0 1 6 42.25L6 42.75A0.25 0.25 0 0 0 6.25 43L7.75 43A0.25 0.25 0 0 1 8 43.25L8 43.75A0.25 0.25 0 0 1 7.75 44L3.25 44A0.25 0.25 0 0 1 3 43.75L3 42.25A0.25 0.25 0 0 0 2.75 42L2.25 42A0.25 0.25 0 0 0 2 42.25L2 44.75A0.25 0.25 0 0 1 1.75 45L1.25 45A0.25 0.25 0 0 0 1 45.25L1 45.75A0.25 0.25 0 0 1 0.75 46L0.25 46A0.25 0.25 0 0 0 0 46.25L0 47.75A0.25 0.25 0 0 0 0.25 48L4.75 48A0.25 0.25 0 0 0 5 47.75L5 47.25A0.25 0.25 0 0 1 5.25 47L6.75 47A0.25 0.25 0 0 0 7 46.75L7 46.25A0.25 0.25 0 0 1 7.25 46L7.75 46A0.25 0.25 0 0 1 8 46.25L8 47.75A0.25 0.25 0 0 1 7.75 48L6.25 48A0.25 0.25 0 0 0 6 48.25L6 48.75A0.25 0.25 0 0 0 6.25 49L7.75 49A0.25 0.25 0 0 1 8 49.25L8 49.75A0.25 0.25 0 0 0 8.25 50L8.75 50A0.25 0.25 0 0 1 9 50.25L9 50.75A0.25 0.25 0 0 0 9.25 51L10.75 51A0.25 0.25 0 0 0 11 50.75L11 49.25A0.25 0.25 0 0 1 11.25 49L11.75 49A0.25 0.25 0 0 1 12 49.25L12 51.75A0.25 0.25 0 0 0 12.25 52L12.75 52A0.25 0.25 0 0 1 13 52.25L13 52.75A0.25 0.25 0 0 0 13.25 53L13.75 53A0.25 0.25 0 0 1 14 53.25L14 53.75A0.25 0.25 0 0 1 13.75 54L12.25 54A0.25 0.25 0 0 1 12 53.75L12 53.25A0.25 0.25 0 0 0 11.75 53L11.25 53A0.25 0.25 0 0 1 11 52.75L11 52.25A0.25 0.25 0 0 0 10.75 52L10.25 52A0.25 0.25 0 0 0 10 52.25L10 52.75A0.25 0.25 0 0 1 9.75 53L9.25 53A0.25 0.25 0 0 1 9 52.75L9 52.25A0.25 0.25 0 0 0 8.75 52L8.25 52A0.25 0.25 0 0 0 8 52.25L8 53.75A0.25 0.25 0 0 0 8.25 54L8.75 54A0.25 0.25 0 0 1 9 54.25L9 54.75A0.25 0.25 0 0 1 8.75 55L8.25 55A0.25 0.25 0 0 0 8 55.25L8 56.75A0.25 0.25 0 0 0 8.25 57L9.75 57A0.25 0.25 0 0 0 10 56.75L10 54.25A0.25 0.25 0 0 1 10.25 54L11.75 54A0.25 0.25 0 0 1 12 54.25L12 56.75A0.25 0.25 0 0 0 12.25 57L18.75 57A0.25 0.25 0 0 0 19 56.75L19 55.25A0.25 0.25 0 0 1 19.25 55L19.75 55A0.25 0.25 0 0 0 20 54.75L20 54.25A0.25 0.25 0 0 1 20.25 54L20.75 54A0.25 0.25 0 0 0 21 53.75L21 52.25A0.25 0.25 0 0 1 21.25 52L21.75 52A0.25 0.25 0 0 0 22 51.75L22 51.25A0.25 0.25 0 0 1 22.25 51L22.75 51A0.25 0.25 0 0 0 23 50.75L23 48.25A0.25 0.25 0 0 1 23.25 48L23.75 48A0.25 0.25 0 0 0 24 47.75L24 47.25A0.25 0.25 0 0 1 24.25 47L25.75 47A0.25 0.25 0 0 1 26 47.25L26 51.75A0.25 0.25 0 0 1 25.75 52L25.25 52A0.25 0.25 0 0 0 25 52.25L25 52.75A0.25 0.25 0 0 1 24.75 53L24.25 53A0.25 0.25 0 0 1 24 52.75L24 52.25A0.25 0.25 0 0 0 23.75 52L23.25 52A0.25 0.25 0 0 0 23 52.25L23 54.75A0.25 0.25 0 0 0 23.25 55L23.75 55A0.25 0.25 0 0 1 24 55.25L24 55.75A0.25 0.25 0 0 1 23.75 56L22.25 56A0.25 0.25 0 0 0 22 56.25L22 56.75A0.25 0.25 0 0 0 22.25 57L24.75 57A0.25 0.25 0 0 0 25 56.75L25 56.25A0.25 0.25 0 0 1 25.25 56L27.75 56A0.25 0.25 0 0 1 28 56.25L28 56.75A0.25 0.25 0 0 0 28.25 57L28.75 57A0.25 0.25 0 0 0 29 56.75L29 56.25A0.25 0.25 0 0 1 29.25 56L30.75 56A0.25 0.25 0 0 1 31 56.25L31 56.75A0.25 0.25 0 0 0 31.25 57L31.75 57A0.25 0.25 0 0 0 32 56.75L32 56.25A0.25 0.25 0 0 0 31.75 56L31.25 56A0.25 0.25 0 0 1 31 55.75L31 54.25A0.25 0.25 0 0 1 31.25 54L31.75 54A0.25 0.25 0 0 1 32 54.25L32 54.75A0.25 0.25 0 0 0 32.25 55L34.75 55A0.25 0.25 0 0 0 35 54.75L35 54.25A0.25 0.25 0 0 1 35.25 54L37.75 54A0.25 0.25 0 0 1 38 54.25L38 54.75A0.25 0.25 0 0 1 37.75 55L37.25 55A0.25 0.25 0 0 0 37 55.25L37 55.75A0.25 0.25 0 0 1 36.75 56L35.25 56A0.25 0.25 0 0 0 35 56.25L35 56.75A0.25 0.25 0 0 0 35.25 57L36.75 57A0.25 0.25 0 0 0 37 56.75L37 56.25A0.25 0.25 0 0 1 37.25 56L37.75 56A0.25 0.25 0 0 1 38 56.25L38 56.75A0.25 0.25 0 0 0 38.25 57L40.75 57A0.25 0.25 0 0 0 41 56.75L41 55.25A0.25 0.25 0 0 1 41.25 55L41.75 55A0.25 0.25 0 0 1 42 55.25L42 56.75A0.25 0.25 0 0 0 42.25 57L43.75 57A0.25 0.25 0 0 0 44 56.75L44 55.25A0.25 0.25 0 0 0 43.75 55L42.25 55A0.25 0.25 0 0 1 42 54.75L42 54.25A0.25 0.25 0 0 1 42.25 54L43.75 54A0.25 0.25 0 0 0 44 53.75L44 53.25A0.25 0.25 0 0 1 44.25 53L44.75 53A0.25 0.25 0 0 1 45 53.25L45 53.75A0.25 0.25 0 0 0 45.25 54L45.75 54A0.25 0.25 0 0 1 46 54.25L46 54.75A0.25 0.25 0 0 1 45.75 55L45.25 55A0.25 0.25 0 0 0 45 55.25L45 55.75A0.25 0.25 0 0 0 45.25 56L45.75 56A0.25 0.25 0 0 1 46 56.25L46 56.75A0.25 0.25 0 0 0 46.25 57L47.75 57A0.25 0.25 0 0 0 48 56.75L48 55.25A0.25 0.25 0 0 1 48.25 55L48.75 55A0.25 0.25 0 0 0 49 54.75L49 54.25A0.25 0.25 0 0 1 49.25 54L51.75 54A0.25 0.25 0 0 1 52 54.25L52 54.75A0.25 0.25 0 0 1 51.75 55L50.25 55A0.25 0.25 0 0 0 50 55.25L50 55.75A0.25 0.25 0 0 1 49.75 56L49.25 56A0.25 0.25 0 0 0 49 56.25L49 56.75A0.25 0.25 0 0 0 49.25 57L53.75 57A0.25 0.25 0 0 0 54 56.75L54 56.25A0.25 0.25 0 0 1 54.25 56L56.75 56A0.25 0.25 0 0 0 57 55.75L57 54.25A0.25 0.25 0 0 0 56.75 54L55.25 54A0.25 0.25 0 0 0 55 54.25L55 54.75A0.25 0.25 0 0 1 54.75 55L54.25 55A0.25 0.25 0 0 1 54 54.75L54 54.25A0.25 0.25 0 0 0 53.75 54L52.25 54A0.25 0.25 0 0 1 52 53.75L52 53.25A0.25 0.25 0 0 1 52.25 53L52.75 53A0.25 0.25 0 0 0 53 52.75L53 52.25A0.25 0.25 0 0 1 53.25 52L56.75 52A0.25 0.25 0 0 0 57 51.75L57 51.25A0.25 0.25 0 0 0 56.75 51L56.25 51A0.25 0.25 0 0 1 56 50.75L56 50.25A0.25 0.25 0 0 0 55.75 50L55.25 50A0.25 0.25 0 0 0 55 50.25L55 50.75A0.25 0.25 0 0 1 54.75 51L53.25 51A0.25 0.25 0 0 1 53 50.75L53 47.25A0.25 0.25 0 0 0 52.75 47L51.25 47A0.25 0.25 0 0 1 51 46.75L51 46.25A0.25 0.25 0 0 1 51.25 46L54.75 46A0.25 0.25 0 0 1 55 46.25L55 46.75A0.25 0.25 0 0 1 54.75 47L54.25 47A0.25 0.25 0 0 0 54 47.25L54 47.75A0.25 0.25 0 0 0 54.25 48L54.75 48A0.25 0.25 0 0 0 55 47.75L55 47.25A0.25 0.25 0 0 1 55.25 47L56.75 47A0.25 0.25 0 0 0 57 46.75L57 44.25A0.25 0.25 0 0 0 56.75 44L56.25 44A0.25 0.25 0 0 0 56 44.25L56 44.75A0.25 0.25 0 0 1 55.75 45L54.25 45A0.25 0.25 0 0 1 54 44.75L54 44.25A0.25 0.25 0 0 1 54.25 44L54.75 44A0.25 0.25 0 0 0 55 43.75L55 41.25A0.25 0.25 0 0 0 54.75 41L54.25 41A0.25 0.25 0 0 1 54 40.75L54 40.25A0.25 0.25 0 0 1 54.25 40L54.75 40A0.25 0.25 0 0 0 55 39.75L55 39.25A0.25 0.25 0 0 0 54.75 39L54.25 39A0.25 0.25 0 0 0 54 39.25L54 39.75A0.25 0.25 0 0 1 53.75 40L53.25 40A0.25 0.25 0 0 1 53 39.75L53 38.25A0.25 0.25 0 0 0 52.75 38L52.25 38A0.25 0.25 0 0 1 52 37.75L52 36.25A0.25 0.25 0 0 1 52.25 36L52.75 36A0.25 0.25 0 0 1 53 36.25L53 36.75A0.25 0.25 0 0 0 53.25 37L53.75 37A0.25 0.25 0 0 1 54 37.25L54 37.75A0.25 0.25 0 0 0 54.25 38L54.75 38A0.25 0.25 0 0 0 55 37.75L55 37.25A0.25 0.25 0 0 1 55.25 37L55.75 37A0.25 0.25 0 0 0 56 36.75L56 36.25A0.25 0.25 0 0 1 56.25 36L56.75 36A0.25 0.25 0 0 0 57 35.75L57 34.25A0.25 0.25 0 0 0 56.75 34L56.25 34A0.25 0.25 0 0 0 56 34.25L56 35.75A0.25 0.25 0 0 1 55.75 36L55.25 36A0.25 0.25 0 0 1 55 35.75L55 33.25A0.25 0.25 0 0 0 54.75 33L54.25 33A0.25 0.25 0 0 0 54 33.25L54 35.75A0.25 0.25 0 0 1 53.75 36L53.25 36A0.25 0.25 0 0 1 53 35.75L53 33.25A0.25 0.25 0 0 0 52.75 33L52.25 33A0.25 0.25 0 0 1 52 32.75L52 32.25A0.25 0.25 0 0 1 52.25 32L55.75 32A0.25 0.25 0 0 1 56 32.25L56 32.75A0.25 0.25 0 0 0 56.25 33L56.75 33A0.25 0.25 0 0 0 57 32.75L57 30.25A0.25 0.25 0 0 0 56.75 30L56.25 30A0.25 0.25 0 0 1 56 29.75L56 28.25A0.25 0.25 0 0 1 56.25 28L56.75 28A0.25 0.25 0 0 0 57 27.75L57 27.25A0.25 0.25 0 0 0 56.75 27L56.25 27A0.25 0.25 0 0 0 56 27.25L56 27.75A0.25 0.25 0 0 1 55.75 28L55.25 28A0.25 0.25 0 0 1 55 27.75L55 26.25A0.25 0.25 0 0 1 55.25 26L55.75 26A0.25 0.25 0 0 0 56 25.75L56 25.25A0.25 0.25 0 0 0 55.75 25L55.25 25A0.25 0.25 0 0 0 55 25.25L55 25.75A0.25 0.25 0 0 1 54.75 26L54.25 26A0.25 0.25 0 0 1 54 25.75L54 25.25A0.25 0.25 0 0 0 53.75 25L53.25 25A0.25 0.25 0 0 1 53 24.75L53 24.25A0.25 0.25 0 0 0 52.75 24L52.25 24A0.25 0.25 0 0 0 52 24.25L52 24.75A0.25 0.25 0 0 1 51.75 25L50.25 25A0.25 0.25 0 0 1 50 24.75L50 24.25A0.25 0.25 0 0 1 50.25 24L50.75 24A0.25 0.25 0 0 0 51 23.75L51 23.25A0.25 0.25 0 0 1 51.25 23L51.75 23A0.25 0.25 0 0 0 52 22.75L52 22.25A0.25 0.25 0 0 1 52.25 22L53.75 22A0.25 0.25 0 0 1 54 22.25L54 23.75A0.25 0.25 0 0 0 54.25 24L54.75 24A0.25 0.25 0 0 0 55 23.75L55 21.25A0.25 0.25 0 0 1 55.25 21L55.75 21A0.25 0.25 0 0 0 56 20.75L56 20.25A0.25 0.25 0 0 1 56.25 20L56.75 20A0.25 0.25 0 0 0 57 19.75L57 18.25A0.25 0.25 0 0 0 56.75 18L56.25 18A0.25 0.25 0 0 0 56 18.25L56 18.75A0.25 0.25 0 0 1 55.75 19L55.25 19A0.25 0.25 0 0 1 55 18.75L55 18.25A0.25 0.25 0 0 0 54.75 18L54.25 18A0.25 0.25 0 0 1 54 17.75L54 17.25A0.25 0.25 0 0 0 53.75 17L52.25 17A0.25 0.25 0 0 0 52 17.25L52 17.75A0.25 0.25 0 0 1 51.75 18L51.25 18A0.25 0.25 0 0 0 51 18.25L51 18.75A0.25 0.25 0 0 1 50.75 19L50.25 19A0.25 0.25 0 0 1 50 18.75L50 18.25A0.25 0.25 0 0 0 49.75 18L49.25 18A0.25 0.25 0 0 1 49 17.75L49 17.25A0.25 0.25 0 0 0 48.75 17L48.25 17A0.25 0.25 0 0 1 48 16.75L48 16.25A0.25 0.25 0 0 1 48.25 16L48.75 16A0.25 0.25 0 0 0 49 15.75L49 13.25A0.25 0.25 0 0 1 49.25 13L49.75 13A0.25 0.25 0 0 1 50 13.25L50 16.75A0.25 0.25 0 0 0 50.25 17L50.75 17A0.25 0.25 0 0 0 51 16.75L51 16.25A0.25 0.25 0 0 1 51.25 16L51.75 16A0.25 0.25 0 0 0 52 15.75L52 15.25A0.25 0.25 0 0 1 52.25 15L52.75 15A0.25 0.25 0 0 1 53 15.25L53 15.75A0.25 0.25 0 0 0 53.25 16L55.75 16A0.25 0.25 0 0 1 56 16.25L56 16.75A0.25 0.25 0 0 0 56.25 17L56.75 17A0.25 0.25 0 0 0 57 16.75L57 16.25A0.25 0.25 0 0 0 56.75 16L56.25 16A0.25 0.25 0 0 1 56 15.75L56 15.25A0.25 0.25 0 0 0 55.75 15L55.25 15A0.25 0.25 0 0 1 55 14.75L55 14.25A0.25 0.25 0 0 1 55.25 14L55.75 14A0.25 0.25 0 0 0 56 13.75L56 13.25A0.25 0.25 0 0 0 55.75 13L54.25 13A0.25 0.25 0 0 1 54 12.75L54 12.25A0.25 0.25 0 0 1 54.25 12L54.75 12A0.25 0.25 0 0 0 55 11.75L55 11.25A0.25 0.25 0 0 1 55.25 11L56.75 11A0.25 0.25 0 0 0 57 10.75L57 10.25A0.25 0.25 0 0 0 56.75 10L55.25 10A0.25 0.25 0 0 1 55 9.75L55 9.25A0.25 0.25 0 0 0 54.75 9L54.25 9A0.25 0.25 0 0 0 54 9.25L54 9.75A0.25 0.25 0 0 1 53.75 10L53.25 10A0.25 0.25 0 0 1 53 9.75L53 9.25A0.25 0.25 0 0 0 52.75 9L51.25 9A0.25 0.25 0 0 1 51 8.75L51 8.25A0.25 0.25 0 0 0 50.75 8L50.25 8A0.25 0.25 0 0 0 50 8.25L50 8.75A0.25 0.25 0 0 1 49.75 9L48.25 9A0.25 0.25 0 0 0 48 9.25L48 10.75A0.25 0.25 0 0 1 47.75 11L47.25 11A0.25 0.25 0 0 1 47 10.75L47 5.25A0.25 0.25 0 0 1 47.25 5L47.75 5A0.25 0.25 0 0 0 48 4.75L48 0.25A0.25 0.25 0 0 0 47.75 0L46.25 0A0.25 0.25 0 0 0 46 0.25L46 0.75A0.25 0.25 0 0 1 45.75 1L45.25 1A0.25 0.25 0 0 1 45 0.75L45 0.25A0.25 0.25 0 0 0 44.75 0L44.25 0A0.25 0.25 0 0 0 44 0.25L44 0.75A0.25 0.25 0 0 1 43.75 1L43.25 1A0.25 0.25 0 0 1 43 0.75L43 0.25A0.25 0.25 0 0 0 42.75 0L41.25 0A0.25 0.25 0 0 0 41 0.25L41 0.75A0.25 0.25 0 0 0 41.25 1L42.75 1A0.25 0.25 0 0 1 43 1.25L43 1.75A0.25 0.25 0 0 0 43.25 2L43.75 2A0.25 0.25 0 0 0 44 1.75L44 1.25A0.25 0.25 0 0 1 44.25 1L44.75 1A0.25 0.25 0 0 1 45 1.25L45 2.75A0.25 0.25 0 0 1 44.75 3L42.25 3A0.25 0.25 0 0 1 42 2.75L42 2.25A0.25 0.25 0 0 0 41.75 2L41.25 2A0.25 0.25 0 0 0 41 2.25L41 2.75A0.25 0.25 0 0 1 40.75 3L40.25 3A0.25 0.25 0 0 1 40 2.75L40 2.25A0.25 0.25 0 0 0 39.75 2L39.25 2A0.25 0.25 0 0 0 39 2.25L39 2.75A0.25 0.25 0 0 1 38.75 3L38.25 3A0.25 0.25 0 0 1 38 2.75L38 1.25A0.25 0.25 0 0 1 38.25 1L39.75 1A0.25 0.25 0 0 0 40 0.75L40 0.25A0.25 0.25 0 0 0 39.75 0L38.25 0A0.25 0.25 0 0 0 38 0.25L38 0.75A0.25 0.25 0 0 1 37.75 1L37.25 1A0.25 0.25 0 0 1 37 0.75L37 0.25A0.25 0.25 0 0 0 36.75 0L36.25 0A0.25 0.25 0 0 0 36 0.25L36 0.75A0.25 0.25 0 0 0 36.25 1L36.75 1A0.25 0.25 0 0 1 37 1.25L37 1.75A0.25 0.25 0 0 1 36.75 2L36.25 2A0.25 0.25 0 0 0 36 2.25L36 2.75A0.25 0.25 0 0 1 35.75 3L35.25 3A0.25 0.25 0 0 1 35 2.75L35 0.25A0.25 0.25 0 0 0 34.75 0L34.25 0A0.25 0.25 0 0 0 34 0.25L34 0.75A0.25 0.25 0 0 1 33.75 1L33.25 1A0.25 0.25 0 0 1 33 0.75L33 0.25A0.25 0.25 0 0 0 32.75 0L28.25 0A0.25 0.25 0 0 0 28 0.25L28 0.75A0.25 0.25 0 0 1 27.75 1L27.25 1A0.25 0.25 0 0 1 27 0.75L27 0.25A0.25 0.25 0 0 0 26.75 0L26.25 0A0.25 0.25 0 0 0 26 0.25L26 0.75A0.25 0.25 0 0 0 26.25 1L26.75 1A0.25 0.25 0 0 1 27 1.25L27 1.75A0.25 0.25 0 0 0 27.25 2L27.75 2A0.25 0.25 0 0 0 28 1.75L28 1.25A0.25 0.25 0 0 1 28.25 1L32.75 1A0.25 0.25 0 0 1 33 1.25L33 1.75A0.25 0.25 0 0 1 32.75 2L29.25 2A0.25 0.25 0 0 0 29 2.25L29 2.75A0.25 0.25 0 0 1 28.75 3L27.25 3A0.25 0.25 0 0 0 27 3.25L27 3.75A0.25 0.25 0 0 1 26.75 4L26.25 4A0.25 0.25 0 0 0 26 4.25L26 4.75A0.25 0.25 0 0 1 25.75 5L25.25 5A0.25 0.25 0 0 0 25 5.25L25 5.75A0.25 0.25 0 0 1 24.75 6L24.25 6A0.25 0.25 0 0 1 24 5.75L24 5.25A0.25 0.25 0 0 0 23.75 5L23.25 5A0.25 0.25 0 0 1 23 4.75L23 3.25A0.25 0.25 0 0 0 22.75 3L22.25 3A0.25 0.25 0 0 1 22 2.75L22 2.25A0.25 0.25 0 0 1 22.25 2L23.75 2A0.25 0.25 0 0 1 24 2.25L24 3.75A0.25 0.25 0 0 0 24.25 4L24.75 4A0.25 0.25 0 0 0 25 3.75L25 3.25A0.25 0.25 0 0 1 25.25 3L25.75 3A0.25 0.25 0 0 0 26 2.75L26 2.25A0.25 0.25 0 0 0 25.75 2L25.25 2A0.25 0.25 0 0 1 25 1.75L25 0.25A0.25 0.25 0 0 0 24.75 0L24.25 0A0.25 0.25 0 0 0 24 0.25L24 0.75A0.25 0.25 0 0 1 23.75 1L22.25 1A0.25 0.25 0 0 1 22 0.75L22 0.25A0.25 0.25 0 0 0 21.75 0L20.25 0A0.25 0.25 0 0 0 20 0.25L20 0.75A0.25 0.25 0 0 1 19.75 1L18.25 1A0.25 0.25 0 0 1 18 0.75L18 0.25A0.25 0.25 0 0 0 17.75 0L15.25 0A0.25 0.25 0 0 0 15 0.25L15 0.75A0.25 0.25 0 0 0 15.25 1L16.75 1A0.25 0.25 0 0 1 17 1.25L17 2.75A0.25 0.25 0 0 1 16.75 3L16.25 3A0.25 0.25 0 0 1 16 2.75L16 2.25A0.25 0.25 0 0 0 15.75 2L14.25 2A0.25 0.25 0 0 1 14 1.75L14 0.25A0.25 0.25 0 0 0 13.75 0L12.25 0A0.25 0.25 0 0 0 12 0.25ZM20 1.25L20 1.75A0.25 0.25 0 0 1 19.75 2L19.25 2A0.25 0.25 0 0 0 19 2.25L19 2.75A0.25 0.25 0 0 0 19.25 3L19.75 3A0.25 0.25 0 0 0 20 2.75L20 2.25A0.25 0.25 0 0 1 20.25 2L20.75 2A0.25 0.25 0 0 0 21 1.75L21 1.25A0.25 0.25 0 0 0 20.75 1L20.25 1A0.25 0.25 0 0 0 20 1.25ZM46 1.25L46 1.75A0.25 0.25 0 0 0 46.25 2L46.75 2A0.25 0.25 0 0 0 47 1.75L47 1.25A0.25 0.25 0 0 0 46.75 1L46.25 1A0.25 0.25 0 0 0 46 1.25ZM33 2.25L33 3.75A0.25 0.25 0 0 1 32.75 4L32.25 4A0.25 0.25 0 0 0 32 4.25L32 5.75A0.25 0.25 0 0 1 31.75 6L31.25 6A0.25 0.25 0 0 0 31 6.25L31 9.75A0.25 0.25 0 0 1 30.75 10L28.25 10A0.25 0.25 0 0 0 28 10.25L28 11.75A0.25 0.25 0 0 1 27.75 12L27.25 12A0.25 0.25 0 0 1 27 11.75L27 11.25A0.25 0.25 0 0 0 26.75 11L26.25 11A0.25 0.25 0 0 1 26 10.75L26 10.25A0.25 0.25 0 0 0 25.75 10L25.25 10A0.25 0.25 0 0 0 25 10.25L25 10.75A0.25 0.25 0 0 0 25.25 11L25.75 11A0.25 0.25 0 0 1 26 11.25L26 13.75A0.25 0.25 0 0 1 25.75 14L25.25 14A0.25 0.25 0 0 0 25 14.25L25 15.75A0.25 0.25 0 0 1 24.75 16L24.25 16A0.25 0.25 0 0 0 24 16.25L24 16.75A0.25 0.25 0 0 1 23.75 17L23.25 17A0.25 0.25 0 0 1 23 16.75L23 15.25A0.25 0.25 0 0 0 22.75 15L22.25 15A0.25 0.25 0 0 0 22 15.25L22 15.75A0.25 0.25 0 0 1 21.75 16L21.25 16A0.25 0.25 0 0 1 21 15.75L21 14.25A0.25 0.25 0 0 0 20.75 14L20.25 14A0.25 0.25 0 0 1 20 13.75L20 13.25A0.25 0.25 0 0 1 20.25 13L20.75 13A0.25 0.25 0 0 0 21 12.75L21 10.25A0.25 0.25 0 0 1 21.25 10L21.75 10A0.25 0.25 0 0 1 22 10.25L22 10.75A0.25 0.25 0 0 0 22.25 11L22.75 11A0.25 0.25 0 0 1 23 11.25L23 11.75A0.25 0.25 0 0 0 23.25 12L23.75 12A0.25 0.25 0 0 1 24 12.25L24 12.75A0.25 0.25 0 0 0 24.25 13L24.75 13A0.25 0.25 0 0 0 25 12.75L25 12.25A0.25 0.25 0 0 0 24.75 12L24.25 12A0.25 0.25 0 0 1 24 11.75L24 11.25A0.25 0.25 0 0 0 23.75 11L23.25 11A0.25 0.25 0 0 1 23 10.75L23 9.25A0.25 0.25 0 0 1 23.25 9L25.75 9A0.25 0.25 0 0 0 26 8.75L26 6.25A0.25 0.25 0 0 0 25.75 6L25.25 6A0.25 0.25 0 0 0 25 6.25L25 6.75A0.25 0.25 0 0 1 24.75 7L24.25 7A0.25 0.25 0 0 1 24 6.75L24 6.25A0.25 0.25 0 0 0 23.75 6L23.25 6A0.25 0.25 0 0 1 23 5.75L23 5.25A0.25 0.25 0 0 0 22.75 5L22.25 5A0.25 0.25 0 0 0 22 5.25L22 5.75A0.25 0.25 0 0 1 21.75 6L21.25 6A0.25 0.25 0 0 1 21 5.75L21 5.25A0.25 0.25 0 0 0 20.75 5L20.25 5A0.25 0.25 0 0 1 20 4.75L20 4.25A0.25 0.25 0 0 0 19.75 4L18.25 4A0.25 0.25 0 0 0 18 4.25L18 4.75A0.25 0.25 0 0 0 18.25 5L19.75 5A0.25 0.25 0 0 1 20 5.25L20 5.75A0.25 0.25 0 0 1 19.75 6L19.25 6A0.25 0.25 0 0 0 19 6.25L19 6.75A0.25 0.25 0 0 1 18.75 7L18.25 7A0.25 0.25 0 0 1 18 6.75L18 6.25A0.25 0.25 0 0 0 17.75 6L17.25 6A0.25 0.25 0 0 1 17 5.75L17 5.25A0.25 0.25 0 0 0 16.75 5L16.25 5A0.25 0.25 0 0 1 16 4.75L16 3.25A0.25 0.25 0 0 0 15.75 3L15.25 3A0.25 0.25 0 0 0 15 3.25L15 4.75A0.25 0.25 0 0 1 14.75 5L14.25 5A0.25 0.25 0 0 0 14 5.25L14 5.75A0.25 0.25 0 0 1 13.75 6L13.25 6A0.25 0.25 0 0 1 13 5.75L13 5.25A0.25 0.25 0 0 0 12.75 5L12.25 5A0.25 0.25 0 0 0 12 5.25L12 5.75A0.25 0.25 0 0 1 11.75 6L11.25 6A0.25 0.25 0 0 0 11 6.25L11 6.75A0.25 0.25 0 0 0 11.25 7L11.75 7A0.25 0.25 0 0 0 12 6.75L12 6.25A0.25 0.25 0 0 1 12.25 6L12.75 6A0.25 0.25 0 0 1 13 6.25L13 6.75A0.25 0.25 0 0 0 13.25 7L13.75 7A0.25 0.25 0 0 0 14 6.75L14 6.25A0.25 0.25 0 0 1 14.25 6L14.75 6A0.25 0.25 0 0 1 15 6.25L15 6.75A0.25 0.25 0 0 0 15.25 7L15.75 7A0.25 0.25 0 0 0 16 6.75L16 6.25A0.25 0.25 0 0 1 16.25 6L16.75 6A0.25 0.25 0 0 1 17 6.25L17 6.75A0.25 0.25 0 0 0 17.25 7L17.75 7A0.25 0.25 0 0 1 18 7.25L18 7.75A0.25 0.25 0 0 0 18.25 8L18.75 8A0.25 0.25 0 0 0 19 7.75L19 7.25A0.25 0.25 0 0 1 19.25 7L19.75 7A0.25 0.25 0 0 0 20 6.75L20 6.25A0.25 0.25 0 0 1 20.25 6L20.75 6A0.25 0.25 0 0 1 21 6.25L21 6.75A0.25 0.25 0 0 0 21.25 7L21.75 7A0.25 0.25 0 0 1 22 7.25L22 7.75A0.25 0.25 0 0 1 21.75 8L20.25 8A0.25 0.25 0 0 0 20 8.25L20 8.75A0.25 0.25 0 0 0 20.25 9L20.75 9A0.25 0.25 0 0 1 21 9.25L21 9.75A0.25 0.25 0 0 1 20.75 10L19.25 10A0.25 0.25 0 0 1 19 9.75L19 9.25A0.25 0.25 0 0 0 18.75 9L17.25 9A0.25 0.25 0 0 1 17 8.75L17 8.25A0.25 0.25 0 0 0 16.75 8L12.25 8A0.25 0.25 0 0 0 12 8.25L12 8.75A0.25 0.25 0 0 0 12.25 9L13.75 9A0.25 0.25 0 0 1 14 9.25L14 9.75A0.25 0.25 0 0 1 13.75 10L13.25 10A0.25 0.25 0 0 0 13 10.25L13 10.75A0.25 0.25 0 0 1 12.75 11L12.25 11A0.25 0.25 0 0 0 12 11.25L12 12.75A0.25 0.25 0 0 1 11.75 13L11.25 13A0.25 0.25 0 0 1 11 12.75L11 12.25A0.25 0.25 0 0 0 10.75 12L10.25 12A0.25 0.25 0 0 1 10 11.75L10 11.25A0.25 0.25 0 0 1 10.25 11L10.75 11A0.25 0.25 0 0 0 11 10.75L11 8.25A0.25 0.25 0 0 0 10.75 8L10.25 8A0.25 0.25 0 0 0 10 8.25L10 10.75A0.25 0.25 0 0 1 9.75 11L9.25 11A0.25 0.25 0 0 0 9 11.25L9 11.75A0.25 0.25 0 0 1 8.75 12L8.25 12A0.25 0.25 0 0 0 8 12.25L8 12.75A0.25 0.25 0 0 1 7.75 13L6.25 13A0.25 0.25 0 0 0 6 13.25L6 13.75A0.25 0.25 0 0 0 6.25 14L7.75 14A0.25 0.25 0 0 1 8 14.25L8 14.75A0.25 0.25 0 0 0 8.25 15L9.75 15A0.25 0.25 0 0 1 10 15.25L10 17.75A0.25 0.25 0 0 1 9.75 18L9.25 18A0.25 0.25 0 0 0 9 18.25L9 18.75A0.25 0.25 0 0 1 8.75 19L8.25 19A0.25 0.25 0 0 1 8 18.75L8 17.25A0.25 0.25 0 0 1 8.25 17L8.75 17A0.25 0.25 0 0 0 9 16.75L9 16.25A0.25 0.25 0 0 0 8.75 16L8.25 16A0.25 0.25 0 0 0 8 16.25L8 16.75A0.25 0.25 0 0 1 7.75 17L6.25 17A0.25 0.25 0 0 0 6 17.25L6 17.75A0.25 0.25 0 0 1 5.75 18L5.25 18A0.25 0.25 0 0 0 5 18.25L5 18.75A0.25 0.25 0 0 0 5.25 19L5.75 19A0.25 0.25 0 0 1 6 19.25L6 19.75A0.25 0.25 0 0 1 5.75 20L5.25 20A0.25 0.25 0 0 0 5 20.25L5 20.75A0.25 0.25 0 0 0 5.25 21L5.75 21A0.25 0.25 0 0 1 6 21.25L6 21.75A0.25 0.25 0 0 0 6.25 22L6.75 22A0.25 0.25 0 0 0 7 21.75L7 21.25A0.25 0.25 0 0 1 7.25 21L7.75 21A0.25 0.25 0 0 0 8 20.75L8 20.25A0.25 0.25 0 0 1 8.25 20L9.75 20A0.25 0.25 0 0 0 10 19.75L10 19.25A0.25 0.25 0 0 1 10.25 19L11.75 19A0.25 0.25 0 0 0 12 18.75L12 18.25A0.25 0.25 0 0 1 12.25 18L12.75 18A0.25 0.25 0 0 1 13 18.25L13 18.75A0.25 0.25 0 0 0 13.25 19L13.75 19A0.25 0.25 0 0 1 14 19.25L14 19.75A0.25 0.25 0 0 0 14.25 20L14.75 20A0.25 0.25 0 0 1 15 20.25L15 23.75A0.25 0.25 0 0 1 14.75 24L14.25 24A0.25 0.25 0 0 0 14 24.25L14 24.75A0.25 0.25 0 0 0 14.25 25L14.75 25A0.25 0.25 0 0 0 15 24.75L15 24.25A0.25 0.25 0 0 1 15.25 24L15.75 24A0.25 0.25 0 0 1 16 24.25L16 25.75A0.25 0.25 0 0 1 15.75 26L15.25 26A0.25 0.25 0 0 0 15 26.25L15 26.75A0.25 0.25 0 0 1 14.75 27L14.25 27A0.25 0.25 0 0 0 14 27.25L14 27.75A0.25 0.25 0 0 0 14.25 28L14.75 28A0.25 0.25 0 0 0 15 27.75L15 27.25A0.25 0.25 0 0 1 15.25 27L15.75 27A0.25 0.25 0 0 1 16 27.25L16 28.75A0.25 0.25 0 0 0 16.25 29L16.75 29A0.25 0.25 0 0 1 17 29.25L17 29.75A0.25 0.25 0 0 0 17.25 30L17.75 30A0.25 0.25 0 0 0 18 29.75L18 29.25A0.25 0.25 0 0 0 17.75 29L17.25 29A0.25 0.25 0 0 1 17 28.75L17 27.25A0.25 0.25 0 0 1 17.25 27L17.75 27A0.25 0.25 0 0 0 18 26.75L18 26.25A0.25 0.25 0 0 1 18.25 26L18.75 26A0.25 0.25 0 0 1 19 26.25L19 28.75A0.25 0.25 0 0 0 19.25 29L19.75 29A0.25 0.25 0 0 1 20 29.25L20 29.75A0.25 0.25 0 0 0 20.25 30L21.75 30A0.25 0.25 0 0 1 22 30.25L22 30.75A0.25 0.25 0 0 0 22.25 31L22.75 31A0.25 0.25 0 0 0 23 30.75L23 30.25A0.25 0.25 0 0 1 23.25 30L23.75 30A0.25 0.25 0 0 1 24 30.25L24 30.75A0.25 0.25 0 0 0 24.25 31L25.75 31A0.25 0.25 0 0 1 26 31.25L26 32.75A0.25 0.25 0 0 1 25.75 33L25.25 33A0.25 0.25 0 0 1 25 32.75L25 32.25A0.25 0.25 0 0 0 24.75 32L23.25 32A0.25 0.25 0 0 0 23 32.25L23 32.75A0.25 0.25 0 0 1 22.75 33L22.25 33A0.25 0.25 0 0 1 22 32.75L22 32.25A0.25 0.25 0 0 0 21.75 32L21.25 32A0.25 0.25 0 0 1 21 31.75L21 31.25A0.25 0.25 0 0 0 20.75 31L18.25 31A0.25 0.25 0 0 0 18 31.25L18 31.75A0.25 0.25 0 0 0 18.25 32L18.75 32A0.25 0.25 0 0 1 19 32.25L19 32.75A0.25 0.25 0 0 1 18.75 33L17.25 33A0.25 0.25 0 0 1 17 32.75L17 31.25A0.25 0.25 0 0 0 16.75 31L14.25 31A0.25 0.25 0 0 0 14 31.25L14 31.75A0.25 0.25 0 0 1 13.75 32L13.25 32A0.25 0.25 0 0 0 13 32.25L13 32.75A0.25 0.25 0 0 1 12.75 33L11.25 33A0.25 0.25 0 0 0 11 33.25L11 33.75A0.25 0.25 0 0 1 10.75 34L9.25 34A0.25 0.25 0 0 1 9 33.75L9 32.25A0.25 0.25 0 0 1 9.25 32L9.75 32A0.25 0.25 0 0 0 10 31.75L10 31.25A0.25 0.25 0 0 1 10.25 31L10.75 31A0.25 0.25 0 0 0 11 30.75L11 30.25A0.25 0.25 0 0 0 10.75 30L9.25 30A0.25 0.25 0 0 0 9 30.25L9 30.75A0.25 0.25 0 0 1 8.75 31L5.25 31A0.25 0.25 0 0 0 5 31.25L5 31.75A0.25 0.25 0 0 1 4.75 32L4.25 32A0.25 0.25 0 0 1 4 31.75L4 31.25A0.25 0.25 0 0 0 3.75 31L3.25 31A0.25 0.25 0 0 0 3 31.25L3 31.75A0.25 0.25 0 0 0 3.25 32L3.75 32A0.25 0.25 0 0 1 4 32.25L4 32.75A0.25 0.25 0 0 0 4.25 33L5.75 33A0.25 0.25 0 0 1 6 33.25L6 33.75A0.25 0.25 0 0 0 6.25 34L6.75 34A0.25 0.25 0 0 0 7 33.75L7 33.25A0.25 0.25 0 0 0 6.75 33L6.25 33A0.25 0.25 0 0 1 6 32.75L6 32.25A0.25 0.25 0 0 1 6.25 32L7.75 32A0.25 0.25 0 0 1 8 32.25L8 35.75A0.25 0.25 0 0 1 7.75 36L7.25 36A0.25 0.25 0 0 0 7 36.25L7 36.75A0.25 0.25 0 0 0 7.25 37L7.75 37A0.25 0.25 0 0 0 8 36.75L8 36.25A0.25 0.25 0 0 1 8.25 36L8.75 36A0.25 0.25 0 0 1 9 36.25L9 37.75A0.25 0.25 0 0 0 9.25 38L9.75 38A0.25 0.25 0 0 1 10 38.25L10 39.75A0.25 0.25 0 0 0 10.25 40L11.75 40A0.25 0.25 0 0 1 12 40.25L12 40.75A0.25 0.25 0 0 1 11.75 41L10.25 41A0.25 0.25 0 0 0 10 41.25L10 41.75A0.25 0.25 0 0 1 9.75 42L9.25 42A0.25 0.25 0 0 1 9 41.75L9 39.25A0.25 0.25 0 0 0 8.75 39L8.25 39A0.25 0.25 0 0 0 8 39.25L8 39.75A0.25 0.25 0 0 1 7.75 40L7.25 40A0.25 0.25 0 0 0 7 40.25L7 40.75A0.25 0.25 0 0 1 6.75 41L6.25 41A0.25 0.25 0 0 0 6 41.25L6 41.75A0.25 0.25 0 0 0 6.25 42L8.75 42A0.25 0.25 0 0 1 9 42.25L9 43.75A0.25 0.25 0 0 0 9.25 44L9.75 44A0.25 0.25 0 0 0 10 43.75L10 42.25A0.25 0.25 0 0 1 10.25 42L10.75 42A0.25 0.25 0 0 1 11 42.25L11 43.75A0.25 0.25 0 0 0 11.25 44L11.75 44A0.25 0.25 0 0 1 12 44.25L12 45.75A0.25 0.25 0 0 1 11.75 46L11.25 46A0.25 0.25 0 0 1 11 45.75L11 45.25A0.25 0.25 0 0 0 10.75 45L10.25 45A0.25 0.25 0 0 0 10 45.25L10 46.75A0.25 0.25 0 0 1 9.75 47L9.25 47A0.25 0.25 0 0 0 9 47.25L9 47.75A0.25 0.25 0 0 0 9.25 48L9.75 48A0.25 0.25 0 0 1 10 48.25L10 48.75A0.25 0.25 0 0 1 9.75 49L9.25 49A0.25 0.25 0 0 0 9 49.25L9 49.75A0.25 0.25 0 0 0 9.25 50L9.75 50A0.25 0.25 0 0 0 10 49.75L10 49.25A0.25 0.25 0 0 1 10.25 49L10.75 49A0.25 0.25 0 0 0 11 48.75L11 47.25A0.25 0.25 0 0 1 11.25 47L11.75 47A0.25 0.25 0 0 0 12 46.75L12 46.25A0.25 0.25 0 0 1 12.25 46L12.75 46A0.25 0.25 0 0 1 13 46.25L13 48.75A0.25 0.25 0 0 0 13.25 49L13.75 49A0.25 0.25 0 0 1 14 49.25L14 49.75A0.25 0.25 0 0 1 13.75 50L13.25 50A0.25 0.25 0 0 0 13 50.25L13 51.75A0.25 0.25 0 0 0 13.25 52L13.75 52A0.25 0.25 0 0 0 14 51.75L14 50.25A0.25 0.25 0 0 1 14.25 50L14.75 50A0.25 0.25 0 0 0 15 49.75L15 48.25A0.25 0.25 0 0 0 14.75 48L14.25 48A0.25 0.25 0 0 1 14 47.75L14 47.25A0.25 0.25 0 0 1 14.25 47L14.75 47A0.25 0.25 0 0 0 15 46.75L15 46.25A0.25 0.25 0 0 1 15.25 46L15.75 46A0.25 0.25 0 0 0 16 45.75L16 45.25A0.25 0.25 0 0 1 16.25 45L16.75 45A0.25 0.25 0 0 1 17 45.25L17 46.75A0.25 0.25 0 0 1 16.75 47L16.25 47A0.25 0.25 0 0 0 16 47.25L16 49.75A0.25 0.25 0 0 0 16.25 50L16.75 50A0.25 0.25 0 0 1 17 50.25L17 50.75A0.25 0.25 0 0 1 16.75 51L16.25 51A0.25 0.25 0 0 0 16 51.25L16 51.75A0.25 0.25 0 0 1 15.75 52L15.25 52A0.25 0.25 0 0 0 15 52.25L15 54.75A0.25 0.25 0 0 1 14.75 55L13.25 55A0.25 0.25 0 0 0 13 55.25L13 55.75A0.25 0.25 0 0 0 13.25 56L16.75 56A0.25 0.25 0 0 0 17 55.75L17 55.25A0.25 0.25 0 0 1 17.25 55L17.75 55A0.25 0.25 0 0 0 18 54.75L18 54.25A0.25 0.25 0 0 1 18.25 54L18.75 54A0.25 0.25 0 0 0 19 53.75L19 53.25A0.25 0.25 0 0 1 19.25 53L19.75 53A0.25 0.25 0 0 0 20 52.75L20 51.25A0.25 0.25 0 0 0 19.75 51L19.25 51A0.25 0.25 0 0 1 19 50.75L19 50.25A0.25 0.25 0 0 1 19.25 50L19.75 50A0.25 0.25 0 0 0 20 49.75L20 49.25A0.25 0.25 0 0 1 20.25 49L21.75 49A0.25 0.25 0 0 0 22 48.75L22 48.25A0.25 0.25 0 0 1 22.25 48L22.75 48A0.25 0.25 0 0 0 23 47.75L23 47.25A0.25 0.25 0 0 1 23.25 47L23.75 47A0.25 0.25 0 0 0 24 46.75L24 46.25A0.25 0.25 0 0 0 23.75 46L21.25 46A0.25 0.25 0 0 0 21 46.25L21 46.75A0.25 0.25 0 0 1 20.75 47L19.25 47A0.25 0.25 0 0 1 19 46.75L19 46.25A0.25 0.25 0 0 0 18.75 46L18.25 46A0.25 0.25 0 0 1 18 45.75L18 45.25A0.25 0.25 0 0 1 18.25 45L18.75 45A0.25 0.25 0 0 0 19 44.75L19 44.25A0.25 0.25 0 0 1 19.25 44L20.75 44A0.25 0.25 0 0 0 21 43.75L21 43.25A0.25 0.25 0 0 0 20.75 43L19.25 43A0.25 0.25 0 0 1 19 42.75L19 41.25A0.25 0.25 0 0 0 18.75 41L18.25 41A0.25 0.25 0 0 1 18 40.75L18 39.25A0.25 0.25 0 0 0 17.75 39L17.25 39A0.25 0.25 0 0 1 17 38.75L17 38.25A0.25 0.25 0 0 1 17.25 38L18.75 38A0.25 0.25 0 0 1 19 38.25L19 39.75A0.25 0.25 0 0 0 19.25 40L19.75 40A0.25 0.25 0 0 0 20 39.75L20 39.25A0.25 0.25 0 0 1 20.25 39L20.75 39A0.25 0.25 0 0 1 21 39.25L21 40.75A0.25 0.25 0 0 1 20.75 41L20.25 41A0.25 0.25 0 0 0 20 41.25L20 41.75A0.25 0.25 0 0 0 20.25 42L20.75 42A0.25 0.25 0 0 0 21 41.75L21 41.25A0.25 0.25 0 0 1 21.25 41L22.75 41A0.25 0.25 0 0 1 23 41.25L23 41.75A0.25 0.25 0 0 0 23.25 42L23.75 42A0.25 0.25 0 0 0 24 41.75L24 41.25A0.25 0.25 0 0 0 23.75 41L23.25 41A0.25 0.25 0 0 1 23 40.75L23 40.25A0.25 0.25 0 0 1 23.25 40L23.75 40A0.25 0.25 0 0 0 24 39.75L24 39.25A0.25 0.25 0 0 1 24.25 39L24.75 39A0.25 0.25 0 0 0 25 38.75L25 38.25A0.25 0.25 0 0 0 24.75 38L24.25 38A0.25 0.25 0 0 1 24 37.75L24 37.25A0.25 0.25 0 0 1 24.25 37L25.75 37A0.25 0.25 0 0 1 26 37.25L26 37.75A0.25 0.25 0 0 0 26.25 38L26.75 38A0.25 0.25 0 0 1 27 38.25L27 38.75A0.25 0.25 0 0 1 26.75 39L26.25 39A0.25 0.25 0 0 0 26 39.25L26 40.75A0.25 0.25 0 0 1 25.75 41L25.25 41A0.25 0.25 0 0 0 25 41.25L25 42.75A0.25 0.25 0 0 1 24.75 43L24.25 43A0.25 0.25 0 0 0 24 43.25L24 44.75A0.25 0.25 0 0 0 24.25 45L24.75 45A0.25 0.25 0 0 1 25 45.25L25 45.75A0.25 0.25 0 0 0 25.25 46L25.75 46A0.25 0.25 0 0 0 26 45.75L26 45.25A0.25 0.25 0 0 1 26.25 45L28.75 45A0.25 0.25 0 0 0 29 44.75L29 44.25A0.25 0.25 0 0 0 28.75 44L27.25 44A0.25 0.25 0 0 1 27 43.75L27 42.25A0.25 0.25 0 0 0 26.75 42L26.25 42A0.25 0.25 0 0 1 26 41.75L26 41.25A0.25 0.25 0 0 1 26.25 41L26.75 41A0.25 0.25 0 0 0 27 40.75L27 39.25A0.25 0.25 0 0 1 27.25 39L27.75 39A0.25 0.25 0 0 0 28 38.75L28 38.25A0.25 0.25 0 0 1 28.25 38L30.75 38A0.25 0.25 0 0 1 31 38.25L31 38.75A0.25 0.25 0 0 1 30.75 39L29.25 39A0.25 0.25 0 0 0 29 39.25L29 39.75A0.25 0.25 0 0 0 29.25 40L30.75 40A0.25 0.25 0 0 1 31 40.25L31 41.75A0.25 0.25 0 0 0 31.25 42L31.75 42A0.25 0.25 0 0 1 32 42.25L32 43.75A0.25 0.25 0 0 1 31.75 44L31.25 44A0.25 0.25 0 0 1 31 43.75L31 43.25A0.25 0.25 0 0 0 30.75 43L30.25 43A0.25 0.25 0 0 1 30 42.75L30 41.25A0.25 0.25 0 0 0 29.75 41L29.25 41A0.25 0.25 0 0 0 29 41.25L29 42.75A0.25 0.25 0 0 0 29.25 43L29.75 43A0.25 0.25 0 0 1 30 43.25L30 45.75A0.25 0.25 0 0 1 29.75 46L29.25 46A0.25 0.25 0 0 0 29 46.25L29 46.75A0.25 0.25 0 0 0 29.25 47L29.75 47A0.25 0.25 0 0 1 30 47.25L30 47.75A0.25 0.25 0 0 0 30.25 48L30.75 48A0.25 0.25 0 0 1 31 48.25L31 49.75A0.25 0.25 0 0 0 31.25 50L31.75 50A0.25 0.25 0 0 0 32 49.75L32 46.25A0.25 0.25 0 0 1 32.25 46L32.75 46A0.25 0.25 0 0 0 33 45.75L33 42.25A0.25 0.25 0 0 1 33.25 42L33.75 42A0.25 0.25 0 0 1 34 42.25L34 43.75A0.25 0.25 0 0 0 34.25 44L35.75 44A0.25 0.25 0 0 0 36 43.75L36 40.25A0.25 0.25 0 0 1 36.25 40L36.75 40A0.25 0.25 0 0 1 37 40.25L37 40.75A0.25 0.25 0 0 0 37.25 41L37.75 41A0.25 0.25 0 0 1 38 41.25L38 42.75A0.25 0.25 0 0 1 37.75 43L37.25 43A0.25 0.25 0 0 0 37 43.25L37 44.75A0.25 0.25 0 0 0 37.25 45L37.75 45A0.25 0.25 0 0 0 38 44.75L38 44.25A0.25 0.25 0 0 1 38.25 44L38.75 44A0.25 0.25 0 0 1 39 44.25L39 44.75A0.25 0.25 0 0 0 39.25 45L39.75 45A0.25 0.25 0 0 0 40 44.75L40 44.25A0.25 0.25 0 0 1 40.25 44L40.75 44A0.25 0.25 0 0 1 41 44.25L41 44.75A0.25 0.25 0 0 0 41.25 45L42.75 45A0.25 0.25 0 0 1 43 45.25L43 45.75A0.25 0.25 0 0 1 42.75 46L39.25 46A0.25 0.25 0 0 0 39 46.25L39 46.75A0.25 0.25 0 0 0 39.25 47L39.75 47A0.25 0.25 0 0 1 40 47.25L40 47.75A0.25 0.25 0 0 1 39.75 48L37.25 48A0.25 0.25 0 0 1 37 47.75L37 46.25A0.25 0.25 0 0 0 36.75 46L36.25 46A0.25 0.25 0 0 1 36 45.75L36 45.25A0.25 0.25 0 0 0 35.75 45L35.25 45A0.25 0.25 0 0 0 35 45.25L35 46.75A0.25 0.25 0 0 0 35.25 47L35.75 47A0.25 0.25 0 0 1 36 47.25L36 47.75A0.25 0.25 0 0 0 36.25 48L36.75 48A0.25 0.25 0 0 1 37 48.25L37 48.75A0.25 0.25 0 0 1 36.75 49L34.25 49A0.25 0.25 0 0 0 34 49.25L34 52.75A0.25 0.25 0 0 0 34.25 53L35.75 53A0.25 0.25 0 0 0 36 52.75L36 52.25A0.25 0.25 0 0 0 35.75 52L35.25 52A0.25 0.25 0 0 1 35 51.75L35 50.25A0.25 0.25 0 0 1 35.25 50L37.75 50A0.25 0.25 0 0 0 38 49.75L38 49.25A0.25 0.25 0 0 1 38.25 49L39.75 49A0.25 0.25 0 0 0 40 48.75L40 48.25A0.25 0.25 0 0 1 40.25 48L40.75 48A0.25 0.25 0 0 1 41 48.25L41 48.75A0.25 0.25 0 0 0 41.25 49L41.75 49A0.25 0.25 0 0 0 42 48.75L42 47.25A0.25 0.25 0 0 1 42.25 47L42.75 47A0.25 0.25 0 0 1 43 47.25L43 48.75A0.25 0.25 0 0 0 43.25 49L43.75 49A0.25 0.25 0 0 1 44 49.25L44 51.75A0.25 0.25 0 0 0 44.25 52L44.75 52A0.25 0.25 0 0 0 45 51.75L45 51.25A0.25 0.25 0 0 1 45.25 51L45.75 51A0.25 0.25 0 0 1 46 51.25L46 52.75A0.25 0.25 0 0 0 46.25 53L46.75 53A0.25 0.25 0 0 0 47 52.75L47 52.25A0.25 0.25 0 0 1 47.25 52L47.75 52A0.25 0.25 0 0 0 48 51.75L48 51.25A0.25 0.25 0 0 0 47.75 51L47.25 51A0.25 0.25 0 0 1 47 50.75L47 50.25A0.25 0.25 0 0 1 47.25 50L47.75 50A0.25 0.25 0 0 0 48 49.75L48 49.25A0.25 0.25 0 0 0 47.75 49L46.25 49A0.25 0.25 0 0 0 46 49.25L46 49.75A0.25 0.25 0 0 1 45.75 50L45.25 50A0.25 0.25 0 0 1 45 49.75L45 49.25A0.25 0.25 0 0 0 44.75 49L44.25 49A0.25 0.25 0 0 1 44 48.75L44 47.25A0.25 0.25 0 0 1 44.25 47L44.75 47A0.25 0.25 0 0 0 45 46.75L45 46.25A0.25 0.25 0 0 0 44.75 46L44.25 46A0.25 0.25 0 0 1 44 45.75L44 45.25A0.25 0.25 0 0 1 44.25 45L45.75 45A0.25 0.25 0 0 0 46 44.75L46 43.25A0.25 0.25 0 0 1 46.25 43L47.75 43A0.25 0.25 0 0 0 48 42.75L48 41.25A0.25 0.25 0 0 0 47.75 41L47.25 41A0.25 0.25 0 0 0 47 41.25L47 41.75A0.25 0.25 0 0 1 46.75 42L46.25 42A0.25 0.25 0 0 0 46 42.25L46 42.75A0.25 0.25 0 0 1 45.75 43L45.25 43A0.25 0.25 0 0 0 45 43.25L45 43.75A0.25 0.25 0 0 1 44.75 44L44.25 44A0.25 0.25 0 0 1 44 43.75L44 43.25A0.25 0.25 0 0 0 43.75 43L43.25 43A0.25 0.25 0 0 1 43 42.75L43 42.25A0.25 0.25 0 0 1 43.25 42L44.75 42A0.25 0.25 0 0 0 45 41.75L45 41.25A0.25 0.25 0 0 0 44.75 41L44.25 41A0.25 0.25 0 0 1 44 40.75L44 40.25A0.25 0.25 0 0 1 44.25 40L44.75 40A0.25 0.25 0 0 0 45 39.75L45 39.25A0.25 0.25 0 0 1 45.25 39L45.75 39A0.25 0.25 0 0 1 46 39.25L46 39.75A0.25 0.25 0 0 0 46.25 40L46.75 40A0.25 0.25 0 0 0 47 39.75L47 39.25A0.25 0.25 0 0 0 46.75 39L46.25 39A0.25 0.25 0 0 1 46 38.75L46 38.25A0.25 0.25 0 0 1 46.25 38L46.75 38A0.25 0.25 0 0 0 47 37.75L47 36.25A0.25 0.25 0 0 1 47.25 36L47.75 36A0.25 0.25 0 0 0 48 35.75L48 34.25A0.25 0.25 0 0 0 47.75 34L47.25 34A0.25 0.25 0 0 0 47 34.25L47 35.75A0.25 0.25 0 0 1 46.75 36L46.25 36A0.25 0.25 0 0 1 46 35.75L46 35.25A0.25 0.25 0 0 0 45.75 35L45.25 35A0.25 0.25 0 0 0 45 35.25L45 36.75A0.25 0.25 0 0 0 45.25 37L45.75 37A0.25 0.25 0 0 1 46 37.25L46 37.75A0.25 0.25 0 0 1 45.75 38L44.25 38A0.25 0.25 0 0 0 44 38.25L44 39.75A0.25 0.25 0 0 1 43.75 40L43.25 40A0.25 0.25 0 0 0 43 40.25L43 41.75A0.25 0.25 0 0 1 42.75 42L42.25 42A0.25 0.25 0 0 0 42 42.25L42 42.75A0.25 0.25 0 0 0 42.25 43L42.75 43A0.25 0.25 0 0 1 43 43.25L43 43.75A0.25 0.25 0 0 1 42.75 44L41.25 44A0.25 0.25 0 0 1 41 43.75L41 43.25A0.25 0.25 0 0 0 40.75 43L40.25 43A0.25 0.25 0 0 0 40 43.25L40 43.75A0.25 0.25 0 0 1 39.75 44L39.25 44A0.25 0.25 0 0 1 39 43.75L39 42.25A0.25 0.25 0 0 1 39.25 42L39.75 42A0.25 0.25 0 0 0 40 41.75L40 41.25A0.25 0.25 0 0 1 40.25 41L40.75 41A0.25 0.25 0 0 0 41 40.75L41 40.25A0.25 0.25 0 0 1 41.25 40L41.75 40A0.25 0.25 0 0 0 42 39.75L42 39.25A0.25 0.25 0 0 1 42.25 39L42.75 39A0.25 0.25 0 0 0 43 38.75L43 38.25A0.25 0.25 0 0 0 42.75 38L41.25 38A0.25 0.25 0 0 0 41 38.25L41 38.75A0.25 0.25 0 0 1 40.75 39L40.25 39A0.25 0.25 0 0 1 40 38.75L40 38.25A0.25 0.25 0 0 0 39.75 38L38.25 38A0.25 0.25 0 0 1 38 37.75L38 37.25A0.25 0.25 0 0 0 37.75 37L37.25 37A0.25 0.25 0 0 0 37 37.25L37 37.75A0.25 0.25 0 0 1 36.75 38L36.25 38A0.25 0.25 0 0 1 36 37.75L36 35.25A0.25 0.25 0 0 0 35.75 35L34.25 35A0.25 0.25 0 0 0 34 35.25L34 35.75A0.25 0.25 0 0 0 34.25 36L34.75 36A0.25 0.25 0 0 1 35 36.25L35 36.75A0.25 0.25 0 0 1 34.75 37L34.25 37A0.25 0.25 0 0 0 34 37.25L34 37.75A0.25 0.25 0 0 1 33.75 38L33.25 38A0.25 0.25 0 0 0 33 38.25L33 38.75A0.25 0.25 0 0 1 32.75 39L32.25 39A0.25 0.25 0 0 1 32 38.75L32 38.25A0.25 0.25 0 0 0 31.75 38L31.25 38A0.25 0.25 0 0 1 31 37.75L31 37.25A0.25 0.25 0 0 1 31.25 37L31.75 37A0.25 0.25 0 0 0 32 36.75L32 36.25A0.25 0.25 0 0 1 32.25 36L32.75 36A0.25 0.25 0 0 0 33 35.75L33 34.25A0.25 0.25 0 0 1 33.25 34L33.75 34A0.25 0.25 0 0 0 34 33.75L34 32.25A0.25 0.25 0 0 1 34.25 32L34.75 32A0.25 0.25 0 0 0 35 31.75L35 30.25A0.25 0.25 0 0 0 34.75 30L34.25 30A0.25 0.25 0 0 0 34 30.25L34 31.75A0.25 0.25 0 0 1 33.75 32L33.25 32A0.25 0.25 0 0 1 33 31.75L33 30.25A0.25 0.25 0 0 0 32.75 30L31.25 30A0.25 0.25 0 0 0 31 30.25L31 30.75A0.25 0.25 0 0 1 30.75 31L26.25 31A0.25 0.25 0 0 1 26 30.75L26 30.25A0.25 0.25 0 0 0 25.75 30L24.25 30A0.25 0.25 0 0 1 24 29.75L24 29.25A0.25 0.25 0 0 1 24.25 29L25.75 29A0.25 0.25 0 0 0 26 28.75L26 28.25A0.25 0.25 0 0 0 25.75 28L24.25 28A0.25 0.25 0 0 1 24 27.75L24 27.25A0.25 0.25 0 0 0 23.75 27L23.25 27A0.25 0.25 0 0 1 23 26.75L23 26.25A0.25 0.25 0 0 0 22.75 26L22.25 26A0.25 0.25 0 0 1 22 25.75L22 24.25A0.25 0.25 0 0 0 21.75 24L19.25 24A0.25 0.25 0 0 1 19 23.75L19 23.25A0.25 0.25 0 0 1 19.25 23L20.75 23A0.25 0.25 0 0 0 21 22.75L21 22.25A0.25 0.25 0 0 1 21.25 22L23.75 22A0.25 0.25 0 0 0 24 21.75L24 19.25A0.25 0.25 0 0 1 24.25 19L24.75 19A0.25 0.25 0 0 1 25 19.25L25 22.75A0.25 0.25 0 0 1 24.75 23L23.25 23A0.25 0.25 0 0 0 23 23.25L23 23.75A0.25 0.25 0 0 0 23.25 24L23.75 24A0.25 0.25 0 0 1 24 24.25L24 24.75A0.25 0.25 0 0 0 24.25 25L24.75 25A0.25 0.25 0 0 1 25 25.25L25 26.75A0.25 0.25 0 0 0 25.25 27L25.75 27A0.25 0.25 0 0 0 26 26.75L26 26.25A0.25 0.25 0 0 1 26.25 26L27.75 26A0.25 0.25 0 0 0 28 25.75L28 24.25A0.25 0.25 0 0 1 28.25 24L28.75 24A0.25 0.25 0 0 0 29 23.75L29 23.25A0.25 0.25 0 0 0 28.75 23L28.25 23A0.25 0.25 0 0 1 28 22.75L28 18.25A0.25 0.25 0 0 0 27.75 18L27.25 18A0.25 0.25 0 0 1 27 17.75L27 17.25A0.25 0.25 0 0 1 27.25 17L28.75 17A0.25 0.25 0 0 1 29 17.25L29 17.75A0.25 0.25 0 0 0 29.25 18L29.75 18A0.25 0.25 0 0 1 30 18.25L30 18.75A0.25 0.25 0 0 1 29.75 19L29.25 19A0.25 0.25 0 0 0 29 19.25L29 20.75A0.25 0.25 0 0 0 29.25 21L29.75 21A0.25 0.25 0 0 0 30 20.75L30 19.25A0.25 0.25 0 0 1 30.25 19L31.75 19A0.25 0.25 0 0 0 32 18.75L32 18.25A0.25 0.25 0 0 1 32.25 18L32.75 18A0.25 0.25 0 0 0 33 17.75L33 17.25A0.25 0.25 0 0 0 32.75 17L32.25 17A0.25 0.25 0 0 1 32 16.75L32 16.25A0.25 0.25 0 0 1 32.25 16L33.75 16A0.25 0.25 0 0 1 34 16.25L34 16.75A0.25 0.25 0 0 0 34.25 17L35.75 17A0.25 0.25 0 0 0 36 16.75L36 16.25A0.25 0.25 0 0 1 36.25 16L36.75 16A0.25 0.25 0 0 0 37 15.75L37 15.25A0.25 0.25 0 0 0 36.75 15L36.25 15A0.25 0.25 0 0 0 36 15.25L36 15.75A0.25 0.25 0 0 1 35.75 16L34.25 16A0.25 0.25 0 0 1 34 15.75L34 15.25A0.25 0.25 0 0 1 34.25 15L34.75 15A0.25 0.25 0 0 0 35 14.75L35 14.25A0.25 0.25 0 0 1 35.25 14L35.75 14A0.25 0.25 0 0 0 36 13.75L36 12.25A0.25 0.25 0 0 1 36.25 12L36.75 12A0.25 0.25 0 0 1 37 12.25L37 13.75A0.25 0.25 0 0 0 37.25 14L37.75 14A0.25 0.25 0 0 1 38 14.25L38 14.75A0.25 0.25 0 0 0 38.25 15L38.75 15A0.25 0.25 0 0 1 39 15.25L39 16.75A0.25 0.25 0 0 1 38.75 17L37.25 17A0.25 0.25 0 0 0 37 17.25L37 17.75A0.25 0.25 0 0 0 37.25 18L37.75 18A0.25 0.25 0 0 1 38 18.25L38 18.75A0.25 0.25 0 0 0 38.25 19L38.75 19A0.25 0.25 0 0 0 39 18.75L39 18.25A0.25 0.25 0 0 1 39.25 18L39.75 18A0.25 0.25 0 0 0 40 17.75L40 17.25A0.25 0.25 0 0 1 40.25 17L40.75 17A0.25 0.25 0 0 1 41 17.25L41 17.75A0.25 0.25 0 0 0 41.25 18L41.75 18A0.25 0.25 0 0 1 42 18.25L42 18.75A0.25 0.25 0 0 1 41.75 19L41.25 19A0.25 0.25 0 0 0 41 19.25L41 19.75A0.25 0.25 0 0 0 41.25 20L41.75 20A0.25 0.25 0 0 1 42 20.25L42 20.75A0.25 0.25 0 0 0 42.25 21L42.75 21A0.25 0.25 0 0 1 43 21.25L43 21.75A0.25 0.25 0 0 1 42.75 22L42.25 22A0.25 0.25 0 0 0 42 22.25L42 22.75A0.25 0.25 0 0 1 41.75 23L41.25 23A0.25 0.25 0 0 1 41 22.75L41 22.25A0.25 0.25 0 0 0 40.75 22L40.25 22A0.25 0.25 0 0 0 40 22.25L40 22.75A0.25 0.25 0 0 1 39.75 23L39.25 23A0.25 0.25 0 0 1 39 22.75L39 22.25A0.25 0.25 0 0 0 38.75 22L38.25 22A0.25 0.25 0 0 0 38 22.25L38 23.75A0.25 0.25 0 0 1 37.75 24L37.25 24A0.25 0.25 0 0 1 37 23.75L37 23.25A0.25 0.25 0 0 0 36.75 23L35.25 23A0.25 0.25 0 0 1 35 22.75L35 22.25A0.25 0.25 0 0 0 34.75 22L32.25 22A0.25 0.25 0 0 1 32 21.75L32 21.25A0.25 0.25 0 0 1 32.25 21L32.75 21A0.25 0.25 0 0 0 33 20.75L33 20.25A0.25 0.25 0 0 1 33.25 20L34.75 20A0.25 0.25 0 0 0 35 19.75L35 19.25A0.25 0.25 0 0 1 35.25 19L35.75 19A0.25 0.25 0 0 1 36 19.25L36 19.75A0.25 0.25 0 0 0 36.25 20L36.75 20A0.25 0.25 0 0 0 37 19.75L37 19.25A0.25 0.25 0 0 0 36.75 19L36.25 19A0.25 0.25 0 0 1 36 18.75L36 18.25A0.25 0.25 0 0 0 35.75 18L34.25 18A0.25 0.25 0 0 0 34 18.25L34 18.75A0.25 0.25 0 0 1 33.75 19L33.25 19A0.25 0.25 0 0 0 33 19.25L33 19.75A0.25 0.25 0 0 1 32.75 20L31.25 20A0.25 0.25 0 0 0 31 20.25L31 21.75A0.25 0.25 0 0 1 30.75 22L30.25 22A0.25 0.25 0 0 0 30 22.25L30 22.75A0.25 0.25 0 0 0 30.25 23L30.75 23A0.25 0.25 0 0 1 31 23.25L31 23.75A0.25 0.25 0 0 1 30.75 24L30.25 24A0.25 0.25 0 0 0 30 24.25L30 24.75A0.25 0.25 0 0 0 30.25 25L30.75 25A0.25 0.25 0 0 0 31 24.75L31 24.25A0.25 0.25 0 0 1 31.25 24L31.75 24A0.25 0.25 0 0 0 32 23.75L32 23.25A0.25 0.25 0 0 1 32.25 23L33.75 23A0.25 0.25 0 0 1 34 23.25L34 23.75A0.25 0.25 0 0 1 33.75 24L33.25 24A0.25 0.25 0 0 0 33 24.25L33 24.75A0.25 0.25 0 0 0 33.25 25L33.75 25A0.25 0.25 0 0 1 34 25.25L34 27.75A0.25 0.25 0 0 1 33.75 28L33.25 28A0.25 0.25 0 0 1 33 27.75L33 26.25A0.25 0.25 0 0 0 32.75 26L32.25 26A0.25 0.25 0 0 0 32 26.25L32 26.75A0.25 0.25 0 0 1 31.75 27L31.25 27A0.25 0.25 0 0 0 31 27.25L31 27.75A0.25 0.25 0 0 0 31.25 28L32.75 28A0.25 0.25 0 0 1 33 28.25L33 28.75A0.25 0.25 0 0 0 33.25 29L33.75 29A0.25 0.25 0 0 0 34 28.75L34 28.25A0.25 0.25 0 0 1 34.25 28L34.75 28A0.25 0.25 0 0 1 35 28.25L35 28.75A0.25 0.25 0 0 0 35.25 29L35.75 29A0.25 0.25 0 0 0 36 28.75L36 28.25A0.25 0.25 0 0 1 36.25 28L38.75 28A0.25 0.25 0 0 1 39 28.25L39 28.75A0.25 0.25 0 0 1 38.75 29L38.25 29A0.25 0.25 0 0 0 38 29.25L38 29.75A0.25 0.25 0 0 0 38.25 30L38.75 30A0.25 0.25 0 0 1 39 30.25L39 31.75A0.25 0.25 0 0 1 38.75 32L38.25 32A0.25 0.25 0 0 0 38 32.25L38 32.75A0.25 0.25 0 0 0 38.25 33L38.75 33A0.25 0.25 0 0 1 39 33.25L39 33.75A0.25 0.25 0 0 1 38.75 34L37.25 34A0.25 0.25 0 0 0 37 34.25L37 35.75A0.25 0.25 0 0 0 37.25 36L38.75 36A0.25 0.25 0 0 1 39 36.25L39 36.75A0.25 0.25 0 0 0 39.25 37L39.75 37A0.25 0.25 0 0 0 40 36.75L40 36.25A0.25 0.25 0 0 1 40.25 36L40.75 36A0.25 0.25 0 0 1 41 36.25L41 36.75A0.25 0.25 0 0 0 41.25 37L43.75 37A0.25 0.25 0 0 0 44 36.75L44 35.25A0.25 0.25 0 0 0 43.75 35L43.25 35A0.25 0.25 0 0 1 43 34.75L43 34.25A0.25 0.25 0 0 0 42.75 34L40.25 34A0.25 0.25 0 0 1 40 33.75L40 33.25A0.25 0.25 0 0 0 39.75 33L39.25 33A0.25 0.25 0 0 1 39 32.75L39 32.25A0.25 0.25 0 0 1 39.25 32L39.75 32A0.25 0.25 0 0 0 40 31.75L40 31.25A0.25 0.25 0 0 1 40.25 31L40.75 31A0.25 0.25 0 0 0 41 30.75L41 30.25A0.25 0.25 0 0 1 41.25 30L41.75 30A0.25 0.25 0 0 1 42 30.25L42 31.75A0.25 0.25 0 0 0 42.25 32L42.75 32A0.25 0.25 0 0 1 43 32.25L43 32.75A0.25 0.25 0 0 0 43.25 33L44.75 33A0.25 0.25 0 0 1 45 33.25L45 33.75A0.25 0.25 0 0 0 45.25 34L45.75 34A0.25 0.25 0 0 0 46 33.75L46 33.25A0.25 0.25 0 0 0 45.75 33L45.25 33A0.25 0.25 0 0 1 45 32.75L45 32.25A0.25 0.25 0 0 1 45.25 32L45.75 32A0.25 0.25 0 0 0 46 31.75L46 31.25A0.25 0.25 0 0 1 46.25 31L46.75 31A0.25 0.25 0 0 0 47 30.75L47 30.25A0.25 0.25 0 0 0 46.75 30L46.25 30A0.25 0.25 0 0 0 46 30.25L46 30.75A0.25 0.25 0 0 1 45.75 31L44.25 31A0.25 0.25 0 0 0 44 31.25L44 31.75A0.25 0.25 0 0 1 43.75 32L43.25 32A0.25 0.25 0 0 1 43 31.75L43 30.25A0.25 0.25 0 0 0 42.75 30L42.25 30A0.25 0.25 0 0 1 42 29.75L42 29.25A0.25 0.25 0 0 1 42.25 29L42.75 29A0.25 0.25 0 0 0 43 28.75L43 27.25A0.25 0.25 0 0 1 43.25 27L43.75 27A0.25 0.25 0 0 1 44 27.25L44 27.75A0.25 0.25 0 0 0 44.25 28L44.75 28A0.25 0.25 0 0 1 45 28.25L45 28.75A0.25 0.25 0 0 1 44.75 29L44.25 29A0.25 0.25 0 0 0 44 29.25L44 29.75A0.25 0.25 0 0 0 44.25 30L44.75 30A0.25 0.25 0 0 0 45 29.75L45 29.25A0.25 0.25 0 0 1 45.25 29L45.75 29A0.25 0.25 0 0 0 46 28.75L46 27.25A0.25 0.25 0 0 1 46.25 27L46.75 27A0.25 0.25 0 0 0 47 26.75L47 26.25A0.25 0.25 0 0 1 47.25 26L47.75 26A0.25 0.25 0 0 0 48 25.75L48 25.25A0.25 0.25 0 0 1 48.25 25L48.75 25A0.25 0.25 0 0 1 49 25.25L49 25.75A0.25 0.25 0 0 0 49.25 26L49.75 26A0.25 0.25 0 0 0 50 25.75L50 25.25A0.25 0.25 0 0 0 49.75 25L49.25 25A0.25 0.25 0 0 1 49 24.75L49 24.25A0.25 0.25 0 0 0 48.75 24L48.25 24A0.25 0.25 0 0 1 48 23.75L48 22.25A0.25 0.25 0 0 0 47.75 22L47.25 22A0.25 0.25 0 0 0 47 22.25L47 22.75A0.25 0.25 0 0 1 46.75 23L46.25 23A0.25 0.25 0 0 1 46 22.75L46 22.25A0.25 0.25 0 0 0 45.75 22L44.25 22A0.25 0.25 0 0 1 44 21.75L44 21.25A0.25 0.25 0 0 1 44.25 21L44.75 21A0.25 0.25 0 0 0 45 20.75L45 19.25A0.25 0.25 0 0 0 44.75 19L44.25 19A0.25 0.25 0 0 1 44 18.75L44 18.25A0.25 0.25 0 0 1 44.25 18L45.75 18A0.25 0.25 0 0 1 46 18.25L46 19.75A0.25 0.25 0 0 0 46.25 20L46.75 20A0.25 0.25 0 0 1 47 20.25L47 20.75A0.25 0.25 0 0 0 47.25 21L49.75 21A0.25 0.25 0 0 0 50 20.75L50 19.25A0.25 0.25 0 0 0 49.75 19L49.25 19A0.25 0.25 0 0 0 49 19.25L49 19.75A0.25 0.25 0 0 1 48.75 20L48.25 20A0.25 0.25 0 0 1 48 19.75L48 19.25A0.25 0.25 0 0 0 47.75 19L47.25 19A0.25 0.25 0 0 1 47 18.75L47 18.25A0.25 0.25 0 0 1 47.25 18L47.75 18A0.25 0.25 0 0 0 48 17.75L48 17.25A0.25 0.25 0 0 0 47.75 17L47.25 17A0.25 0.25 0 0 1 47 16.75L47 16.25A0.25 0.25 0 0 1 47.25 16L47.75 16A0.25 0.25 0 0 0 48 15.75L48 13.25A0.25 0.25 0 0 1 48.25 13L48.75 13A0.25 0.25 0 0 0 49 12.75L49 12.25A0.25 0.25 0 0 1 49.25 12L50.75 12A0.25 0.25 0 0 1 51 12.25L51 12.75A0.25 0.25 0 0 0 51.25 13L51.75 13A0.25 0.25 0 0 1 52 13.25L52 13.75A0.25 0.25 0 0 0 52.25 14L53.75 14A0.25 0.25 0 0 0 54 13.75L54 13.25A0.25 0.25 0 0 0 53.75 13L52.25 13A0.25 0.25 0 0 1 52 12.75L52 12.25A0.25 0.25 0 0 1 52.25 12L53.75 12A0.25 0.25 0 0 0 54 11.75L54 11.25A0.25 0.25 0 0 1 54.25 11L54.75 11A0.25 0.25 0 0 0 55 10.75L55 10.25A0.25 0.25 0 0 0 54.75 10L54.25 10A0.25 0.25 0 0 0 54 10.25L54 10.75A0.25 0.25 0 0 1 53.75 11L53.25 11A0.25 0.25 0 0 1 53 10.75L53 10.25A0.25 0.25 0 0 0 52.75 10L49.25 10A0.25 0.25 0 0 0 49 10.25L49 11.75A0.25 0.25 0 0 1 48.75 12L48.25 12A0.25 0.25 0 0 0 48 12.25L48 12.75A0.25 0.25 0 0 1 47.75 13L47.25 13A0.25 0.25 0 0 1 47 12.75L47 12.25A0.25 0.25 0 0 0 46.75 12L46.25 12A0.25 0.25 0 0 1 46 11.75L46 11.25A0.25 0.25 0 0 0 45.75 11L45.25 11A0.25 0.25 0 0 0 45 11.25L45 11.75A0.25 0.25 0 0 0 45.25 12L45.75 12A0.25 0.25 0 0 1 46 12.25L46 13.75A0.25 0.25 0 0 1 45.75 14L45.25 14A0.25 0.25 0 0 1 45 13.75L45 13.25A0.25 0.25 0 0 0 44.75 13L44.25 13A0.25 0.25 0 0 0 44 13.25L44 14.75A0.25 0.25 0 0 1 43.75 15L43.25 15A0.25 0.25 0 0 1 43 14.75L43 14.25A0.25 0.25 0 0 0 42.75 14L41.25 14A0.25 0.25 0 0 1 41 13.75L41 13.25A0.25 0.25 0 0 1 41.25 13L42.75 13A0.25 0.25 0 0 0 43 12.75L43 12.25A0.25 0.25 0 0 1 43.25 12L43.75 12A0.25 0.25 0 0 0 44 11.75L44 10.25A0.25 0.25 0 0 0 43.75 10L42.25 10A0.25 0.25 0 0 1 42 9.75L42 9.25A0.25 0.25 0 0 1 42.25 9L42.75 9A0.25 0.25 0 0 0 43 8.75L43 8.25A0.25 0.25 0 0 0 42.75 8L42.25 8A0.25 0.25 0 0 1 42 7.75L42 6.25A0.25 0.25 0 0 1 42.25 6L42.75 6A0.25 0.25 0 0 1 43 6.25L43 6.75A0.25 0.25 0 0 0 43.25 7L43.75 7A0.25 0.25 0 0 1 44 7.25L44 8.75A0.25 0.25 0 0 0 44.25 9L44.75 9A0.25 0.25 0 0 0 45 8.75L45 7.25A0.25 0.25 0 0 1 45.25 7L45.75 7A0.25 0.25 0 0 0 46 6.75L46 6.25A0.25 0.25 0 0 0 45.75 6L45.25 6A0.25 0.25 0 0 1 45 5.75L45 5.25A0.25 0.25 0 0 1 45.25 5L46.75 5A0.25 0.25 0 0 0 47 4.75L47 3.25A0.25 0.25 0 0 0 46.75 3L46.25 3A0.25 0.25 0 0 0 46 3.25L46 3.75A0.25 0.25 0 0 1 45.75 4L45.25 4A0.25 0.25 0 0 0 45 4.25L45 4.75A0.25 0.25 0 0 1 44.75 5L44.25 5A0.25 0.25 0 0 0 44 5.25L44 5.75A0.25 0.25 0 0 1 43.75 6L43.25 6A0.25 0.25 0 0 1 43 5.75L43 5.25A0.25 0.25 0 0 0 42.75 5L42.25 5A0.25 0.25 0 0 1 42 4.75L42 4.25A0.25 0.25 0 0 0 41.75 4L41.25 4A0.25 0.25 0 0 0 41 4.25L41 4.75A0.25 0.25 0 0 0 41.25 5L41.75 5A0.25 0.25 0 0 1 42 5.25L42 5.75A0.25 0.25 0 0 1 41.75 6L41.25 6A0.25 0.25 0 0 0 41 6.25L41 9.75A0.25 0.25 0 0 1 40.75 10L40.25 10A0.25 0.25 0 0 1 40 9.75L40 9.25A0.25 0.25 0 0 0 39.75 9L39.25 9A0.25 0.25 0 0 0 39 9.25L39 9.75A0.25 0.25 0 0 1 38.75 10L37.25 10A0.25 0.25 0 0 0 37 10.25L37 10.75A0.25 0.25 0 0 1 36.75 11L36.25 11A0.25 0.25 0 0 1 36 10.75L36 9.25A0.25 0.25 0 0 0 35.75 9L35.25 9A0.25 0.25 0 0 0 35 9.25L35 11.75A0.25 0.25 0 0 1 34.75 12L34.25 12A0.25 0.25 0 0 1 34 11.75L34 11.25A0.25 0.25 0 0 0 33.75 11L33.25 11A0.25 0.25 0 0 0 33 11.25L33 12.75A0.25 0.25 0 0 1 32.75 13L32.25 13A0.25 0.25 0 0 1 32 12.75L32 12.25A0.25 0.25 0 0 0 31.75 12L31.25 12A0.25 0.25 0 0 0 31 12.25L31 12.75A0.25 0.25 0 0 0 31.25 13L31.75 13A0.25 0.25 0 0 1 32 13.25L32 13.75A0.25 0.25 0 0 1 31.75 14L30.25 14A0.25 0.25 0 0 0 30 14.25L30 14.75A0.25 0.25 0 0 0 30.25 15L30.75 15A0.25 0.25 0 0 1 31 15.25L31 17.75A0.25 0.25 0 0 1 30.75 18L30.25 18A0.25 0.25 0 0 1 30 17.75L30 16.25A0.25 0.25 0 0 0 29.75 16L29.25 16A0.25 0.25 0 0 1 29 15.75L29 15.25A0.25 0.25 0 0 0 28.75 15L28.25 15A0.25 0.25 0 0 0 28 15.25L28 15.75A0.25 0.25 0 0 1 27.75 16L26.25 16A0.25 0.25 0 0 1 26 15.75L26 15.25A0.25 0.25 0 0 1 26.25 15L26.75 15A0.25 0.25 0 0 0 27 14.75L27 13.25A0.25 0.25 0 0 1 27.25 13L27.75 13A0.25 0.25 0 0 1 28 13.25L28 13.75A0.25 0.25 0 0 0 28.25 14L28.75 14A0.25 0.25 0 0 0 29 13.75L29 13.25A0.25 0.25 0 0 0 28.75 13L28.25 13A0.25 0.25 0 0 1 28 12.75L28 12.25A0.25 0.25 0 0 1 28.25 12L29.75 12A0.25 0.25 0 0 0 30 11.75L30 11.25A0.25 0.25 0 0 1 30.25 11L31.75 11A0.25 0.25 0 0 0 32 10.75L32 10.25A0.25 0.25 0 0 1 32.25 10L32.75 10A0.25 0.25 0 0 0 33 9.75L33 9.25A0.25 0.25 0 0 1 33.25 9L33.75 9A0.25 0.25 0 0 0 34 8.75L34 6.25A0.25 0.25 0 0 1 34.25 6L34.75 6A0.25 0.25 0 0 1 35 6.25L35 7.75A0.25 0.25 0 0 0 35.25 8L36.75 8A0.25 0.25 0 0 0 37 7.75L37 7.25A0.25 0.25 0 0 1 37.25 7L37.75 7A0.25 0.25 0 0 0 38 6.75L38 6.25A0.25 0.25 0 0 0 37.75 6L37.25 6A0.25 0.25 0 0 0 37 6.25L37 6.75A0.25 0.25 0 0 1 36.75 7L36.25 7A0.25 0.25 0 0 1 36 6.75L36 6.25A0.25 0.25 0 0 0 35.75 6L35.25 6A0.25 0.25 0 0 1 35 5.75L35 4.25A0.25 0.25 0 0 0 34.75 4L34.25 4A0.25 0.25 0 0 1 34 3.75L34 2.25A0.25 0.25 0 0 0 33.75 2L33.25 2A0.25 0.25 0 0 0 33 2.25ZM21 3.25L21 3.75A0.25 0.25 0 0 0 21.25 4L21.75 4A0.25 0.25 0 0 0 22 3.75L22 3.25A0.25 0.25 0 0 0 21.75 3L21.25 3A0.25 0.25 0 0 0 21 3.25ZM29 3.25L29 3.75A0.25 0.25 0 0 0 29.25 4L29.75 4A0.25 0.25 0 0 0 30 3.75L30 3.25A0.25 0.25 0 0 0 29.75 3L29.25 3A0.25 0.25 0 0 0 29 3.25ZM36 4.25L36 4.75A0.25 0.25 0 0 0 36.25 5L36.75 5A0.25 0.25 0 0 0 37 4.75L37 4.25A0.25 0.25 0 0 0 36.75 4L36.25 4A0.25 0.25 0 0 0 36 4.25ZM27 5.25L27 7.75A0.25 0.25 0 0 0 27.25 8L29.75 8A0.25 0.25 0 0 0 30 7.75L30 5.25A0.25 0.25 0 0 0 29.75 5L27.25 5A0.25 0.25 0 0 0 27 5.25ZM33 5.25L33 5.75A0.25 0.25 0 0 1 32.75 6L32.25 6A0.25 0.25 0 0 0 32 6.25L32 7.75A0.25 0.25 0 0 0 32.25 8L32.75 8A0.25 0.25 0 0 0 33 7.75L33 6.25A0.25 0.25 0 0 1 33.25 6L33.75 6A0.25 0.25 0 0 0 34 5.75L34 5.25A0.25 0.25 0 0 0 33.75 5L33.25 5A0.25 0.25 0 0 0 33 5.25ZM39 5.25L39 7.75A0.25 0.25 0 0 0 39.25 8L39.75 8A0.25 0.25 0 0 0 40 7.75L40 5.25A0.25 0.25 0 0 0 39.75 5L39.25 5A0.25 0.25 0 0 0 39 5.25ZM22 6.25L22 6.75A0.25 0.25 0 0 0 22.25 7L22.75 7A0.25 0.25 0 0 1 23 7.25L23 7.75A0.25 0.25 0 0 1 22.75 8L22.25 8A0.25 0.25 0 0 0 22 8.25L22 8.75A0.25 0.25 0 0 0 22.25 9L22.75 9A0.25 0.25 0 0 0 23 8.75L23 8.25A0.25 0.25 0 0 1 23.25 8L23.75 8A0.25 0.25 0 0 0 24 7.75L24 7.25A0.25 0.25 0 0 0 23.75 7L23.25 7A0.25 0.25 0 0 1 23 6.75L23 6.25A0.25 0.25 0 0 0 22.75 6L22.25 6A0.25 0.25 0 0 0 22 6.25ZM28 6.25L28 6.75A0.25 0.25 0 0 0 28.25 7L28.75 7A0.25 0.25 0 0 0 29 6.75L29 6.25A0.25 0.25 0 0 0 28.75 6L28.25 6A0.25 0.25 0 0 0 28 6.25ZM44 6.25L44 6.75A0.25 0.25 0 0 0 44.25 7L44.75 7A0.25 0.25 0 0 0 45 6.75L45 6.25A0.25 0.25 0 0 0 44.75 6L44.25 6A0.25 0.25 0 0 0 44 6.25ZM48 6.25L48 7.75A0.25 0.25 0 0 0 48.25 8L48.75 8A0.25 0.25 0 0 0 49 7.75L49 6.25A0.25 0.25 0 0 0 48.75 6L48.25 6A0.25 0.25 0 0 0 48 6.25ZM0 8.25L0 8.75A0.25 0.25 0 0 0 0.25 9L1.75 9A0.25 0.25 0 0 0 2 8.75L2 8.25A0.25 0.25 0 0 0 1.75 8L0.25 8A0.25 0.25 0 0 0 0 8.25ZM56 8.25L56 8.75A0.25 0.25 0 0 0 56.25 9L56.75 9A0.25 0.25 0 0 0 57 8.75L57 8.25A0.25 0.25 0 0 0 56.75 8L56.25 8A0.25 0.25 0 0 0 56 8.25ZM15 9.25L15 9.75A0.25 0.25 0 0 1 14.75 10L14.25 10A0.25 0.25 0 0 0 14 10.25L14 10.75A0.25 0.25 0 0 1 13.75 11L13.25 11A0.25 0.25 0 0 0 13 11.25L13 12.75A0.25 0.25 0 0 1 12.75 13L12.25 13A0.25 0.25 0 0 0 12 13.25L12 13.75A0.25 0.25 0 0 1 11.75 14L11.25 14A0.25 0.25 0 0 0 11 14.25L11 16.75A0.25 0.25 0 0 0 11.25 17L11.75 17A0.25 0.25 0 0 0 12 16.75L12 15.25A0.25 0.25 0 0 1 12.25 15L13.75 15A0.25 0.25 0 0 0 14 14.75L14 14.25A0.25 0.25 0 0 1 14.25 14L14.75 14A0.25 0.25 0 0 1 15 14.25L15 15.75A0.25 0.25 0 0 1 14.75 16L13.25 16A0.25 0.25 0 0 0 13 16.25L13 16.75A0.25 0.25 0 0 0 13.25 17L13.75 17A0.25 0.25 0 0 1 14 17.25L14 17.75A0.25 0.25 0 0 0 14.25 18L14.75 18A0.25 0.25 0 0 1 15 18.25L15 18.75A0.25 0.25 0 0 0 15.25 19L15.75 19A0.25 0.25 0 0 0 16 18.75L16 18.25A0.25 0.25 0 0 1 16.25 18L17.75 18A0.25 0.25 0 0 1 18 18.25L18 20.75A0.25 0.25 0 0 0 18.25 21L18.75 21A0.25 0.25 0 0 1 19 21.25L19 21.75A0.25 0.25 0 0 0 19.25 22L19.75 22A0.25 0.25 0 0 0 20 21.75L20 20.25A0.25 0.25 0 0 1 20.25 20L20.75 20A0.25 0.25 0 0 1 21 20.25L21 20.75A0.25 0.25 0 0 0 21.25 21L22.75 21A0.25 0.25 0 0 0 23 20.75L23 20.25A0.25 0.25 0 0 0 22.75 20L21.25 20A0.25 0.25 0 0 1 21 19.75L21 18.25A0.25 0.25 0 0 0 20.75 18L20.25 18A0.25 0.25 0 0 1 20 17.75L20 17.25A0.25 0.25 0 0 0 19.75 17L19.25 17A0.25 0.25 0 0 1 19 16.75L19 16.25A0.25 0.25 0 0 1 19.25 16L19.75 16A0.25 0.25 0 0 0 20 15.75L20 14.25A0.25 0.25 0 0 0 19.75 14L19.25 14A0.25 0.25 0 0 1 19 13.75L19 13.25A0.25 0.25 0 0 1 19.25 13L19.75 13A0.25 0.25 0 0 0 20 12.75L20 12.25A0.25 0.25 0 0 0 19.75 12L19.25 12A0.25 0.25 0 0 0 19 12.25L19 12.75A0.25 0.25 0 0 1 18.75 13L18.25 13A0.25 0.25 0 0 0 18 13.25L18 13.75A0.25 0.25 0 0 1 17.75 14L15.25 14A0.25 0.25 0 0 1 15 13.75L15 12.25A0.25 0.25 0 0 1 15.25 12L15.75 12A0.25 0.25 0 0 0 16 11.75L16 11.25A0.25 0.25 0 0 1 16.25 11L16.75 11A0.25 0.25 0 0 1 17 11.25L17 11.75A0.25 0.25 0 0 0 17.25 12L17.75 12A0.25 0.25 0 0 0 18 11.75L18 11.25A0.25 0.25 0 0 0 17.75 11L17.25 11A0.25 0.25 0 0 1 17 10.75L17 9.25A0.25 0.25 0 0 0 16.75 9L15.25 9A0.25 0.25 0 0 0 15 9.25ZM39 10.25L39 10.75A0.25 0.25 0 0 0 39.25 11L39.75 11A0.25 0.25 0 0 0 40 10.75L40 10.25A0.25 0.25 0 0 0 39.75 10L39.25 10A0.25 0.25 0 0 0 39 10.25ZM41 10.25L41 11.75A0.25 0.25 0 0 1 40.75 12L40.25 12A0.25 0.25 0 0 0 40 12.25L40 12.75A0.25 0.25 0 0 0 40.25 13L40.75 13A0.25 0.25 0 0 0 41 12.75L41 12.25A0.25 0.25 0 0 1 41.25 12L42.75 12A0.25 0.25 0 0 0 43 11.75L43 11.25A0.25 0.25 0 0 0 42.75 11L42.25 11A0.25 0.25 0 0 1 42 10.75L42 10.25A0.25 0.25 0 0 0 41.75 10L41.25 10A0.25 0.25 0 0 0 41 10.25ZM6 11.25L6 11.75A0.25 0.25 0 0 0 6.25 12L6.75 12A0.25 0.25 0 0 0 7 11.75L7 11.25A0.25 0.25 0 0 0 6.75 11L6.25 11A0.25 0.25 0 0 0 6 11.25ZM14 11.25L14 11.75A0.25 0.25 0 0 0 14.25 12L14.75 12A0.25 0.25 0 0 0 15 11.75L15 11.25A0.25 0.25 0 0 0 14.75 11L14.25 11A0.25 0.25 0 0 0 14 11.25ZM37 11.25L37 11.75A0.25 0.25 0 0 0 37.25 12L37.75 12A0.25 0.25 0 0 1 38 12.25L38 13.75A0.25 0.25 0 0 0 38.25 14L38.75 14A0.25 0.25 0 0 0 39 13.75L39 12.25A0.25 0.25 0 0 0 38.75 12L38.25 12A0.25 0.25 0 0 1 38 11.75L38 11.25A0.25 0.25 0 0 0 37.75 11L37.25 11A0.25 0.25 0 0 0 37 11.25ZM3 12.25L3 12.75A0.25 0.25 0 0 0 3.25 13L3.75 13A0.25 0.25 0 0 0 4 12.75L4 12.25A0.25 0.25 0 0 0 3.75 12L3.25 12A0.25 0.25 0 0 0 3 12.25ZM8 13.25L8 13.75A0.25 0.25 0 0 0 8.25 14L8.75 14A0.25 0.25 0 0 0 9 13.75L9 13.25A0.25 0.25 0 0 0 8.75 13L8.25 13A0.25 0.25 0 0 0 8 13.25ZM13 13.25L13 13.75A0.25 0.25 0 0 0 13.25 14L13.75 14A0.25 0.25 0 0 0 14 13.75L14 13.25A0.25 0.25 0 0 0 13.75 13L13.25 13A0.25 0.25 0 0 0 13 13.25ZM22 13.25L22 13.75A0.25 0.25 0 0 0 22.25 14L22.75 14A0.25 0.25 0 0 0 23 13.75L23 13.25A0.25 0.25 0 0 0 22.75 13L22.25 13A0.25 0.25 0 0 0 22 13.25ZM33 13.25L33 13.75A0.25 0.25 0 0 1 32.75 14L32.25 14A0.25 0.25 0 0 0 32 14.25L32 14.75A0.25 0.25 0 0 0 32.25 15L33.75 15A0.25 0.25 0 0 0 34 14.75L34 13.25A0.25 0.25 0 0 0 33.75 13L33.25 13A0.25 0.25 0 0 0 33 13.25ZM1 14.25L1 14.75A0.25 0.25 0 0 1 0.75 15L0.25 15A0.25 0.25 0 0 0 0 15.25L0 15.75A0.25 0.25 0 0 0 0.25 16L1.75 16A0.25 0.25 0 0 0 2 15.75L2 15.25A0.25 0.25 0 0 1 2.25 15L2.75 15A0.25 0.25 0 0 0 3 14.75L3 14.25A0.25 0.25 0 0 0 2.75 14L1.25 14A0.25 0.25 0 0 0 1 14.25ZM46 14.25L46 15.75A0.25 0.25 0 0 1 45.75 16L44.25 16A0.25 0.25 0 0 0 44 16.25L44 16.75A0.25 0.25 0 0 0 44.25 17L45.75 17A0.25 0.25 0 0 1 46 17.25L46 17.75A0.25 0.25 0 0 0 46.25 18L46.75 18A0.25 0.25 0 0 0 47 17.75L47 17.25A0.25 0.25 0 0 0 46.75 17L46.25 17A0.25 0.25 0 0 1 46 16.75L46 16.25A0.25 0.25 0 0 1 46.25 16L46.75 16A0.25 0.25 0 0 0 47 15.75L47 14.25A0.25 0.25 0 0 0 46.75 14L46.25 14A0.25 0.25 0 0 0 46 14.25ZM17 15.25L17 16.75A0.25 0.25 0 0 0 17.25 17L17.75 17A0.25 0.25 0 0 0 18 16.75L18 15.25A0.25 0.25 0 0 0 17.75 15L17.25 15A0.25 0.25 0 0 0 17 15.25ZM42 15.25L42 15.75A0.25 0.25 0 0 1 41.75 16L41.25 16A0.25 0.25 0 0 0 41 16.25L41 16.75A0.25 0.25 0 0 0 41.25 17L41.75 17A0.25 0.25 0 0 1 42 17.25L42 17.75A0.25 0.25 0 0 0 42.25 18L42.75 18A0.25 0.25 0 0 0 43 17.75L43 15.25A0.25 0.25 0 0 0 42.75 15L42.25 15A0.25 0.25 0 0 0 42 15.25ZM0 17.25L0 17.75A0.25 0.25 0 0 0 0.25 18L0.75 18A0.25 0.25 0 0 0 1 17.75L1 17.25A0.25 0.25 0 0 0 0.75 17L0.25 17A0.25 0.25 0 0 0 0 17.25ZM15 17.25L15 17.75A0.25 0.25 0 0 0 15.25 18L15.75 18A0.25 0.25 0 0 0 16 17.75L16 17.25A0.25 0.25 0 0 0 15.75 17L15.25 17A0.25 0.25 0 0 0 15 17.25ZM24 17.25L24 17.75A0.25 0.25 0 0 1 23.75 18L23.25 18A0.25 0.25 0 0 0 23 18.25L23 18.75A0.25 0.25 0 0 0 23.25 19L23.75 19A0.25 0.25 0 0 0 24 18.75L24 18.25A0.25 0.25 0 0 1 24.25 18L24.75 18A0.25 0.25 0 0 1 25 18.25L25 18.75A0.25 0.25 0 0 0 25.25 19L25.75 19A0.25 0.25 0 0 1 26 19.25L26 21.75A0.25 0.25 0 0 0 26.25 22L26.75 22A0.25 0.25 0 0 0 27 21.75L27 19.25A0.25 0.25 0 0 0 26.75 19L26.25 19A0.25 0.25 0 0 1 26 18.75L26 18.25A0.25 0.25 0 0 0 25.75 18L25.25 18A0.25 0.25 0 0 1 25 17.75L25 17.25A0.25 0.25 0 0 0 24.75 17L24.25 17A0.25 0.25 0 0 0 24 17.25ZM6 18.25L6 18.75A0.25 0.25 0 0 0 6.25 19L6.75 19A0.25 0.25 0 0 0 7 18.75L7 18.25A0.25 0.25 0 0 0 6.75 18L6.25 18A0.25 0.25 0 0 0 6 18.25ZM19 18.25L19 19.75A0.25 0.25 0 0 0 19.25 20L19.75 20A0.25 0.25 0 0 0 20 19.75L20 18.25A0.25 0.25 0 0 0 19.75 18L19.25 18A0.25 0.25 0 0 0 19 18.25ZM52 18.25L52 19.75A0.25 0.25 0 0 1 51.75 20L51.25 20A0.25 0.25 0 0 0 51 20.25L51 21.75A0.25 0.25 0 0 1 50.75 22L49.25 22A0.25 0.25 0 0 0 49 22.25L49 22.75A0.25 0.25 0 0 0 49.25 23L50.75 23A0.25 0.25 0 0 0 51 22.75L51 22.25A0.25 0.25 0 0 1 51.25 22L51.75 22A0.25 0.25 0 0 0 52 21.75L52 20.25A0.25 0.25 0 0 1 52.25 20L52.75 20A0.25 0.25 0 0 1 53 20.25L53 20.75A0.25 0.25 0 0 0 53.25 21L54.75 21A0.25 0.25 0 0 0 55 20.75L55 20.25A0.25 0.25 0 0 0 54.75 20L53.25 20A0.25 0.25 0 0 1 53 19.75L53 18.25A0.25 0.25 0 0 0 52.75 18L52.25 18A0.25 0.25 0 0 0 52 18.25ZM42 19.25L42 19.75A0.25 0.25 0 0 0 42.25 20L43.75 20A0.25 0.25 0 0 0 44 19.75L44 19.25A0.25 0.25 0 0 0 43.75 19L42.25 19A0.25 0.25 0 0 0 42 19.25ZM6 20.25L6 20.75A0.25 0.25 0 0 0 6.25 21L6.75 21A0.25 0.25 0 0 0 7 20.75L7 20.25A0.25 0.25 0 0 0 6.75 20L6.25 20A0.25 0.25 0 0 0 6 20.25ZM16 20.25L16 21.75A0.25 0.25 0 0 0 16.25 22L16.75 22A0.25 0.25 0 0 0 17 21.75L17 20.25A0.25 0.25 0 0 0 16.75 20L16.25 20A0.25 0.25 0 0 0 16 20.25ZM38 20.25L38 20.75A0.25 0.25 0 0 0 38.25 21L39.75 21A0.25 0.25 0 0 0 40 20.75L40 20.25A0.25 0.25 0 0 0 39.75 20L38.25 20A0.25 0.25 0 0 0 38 20.25ZM31 22.25L31 22.75A0.25 0.25 0 0 0 31.25 23L31.75 23A0.25 0.25 0 0 0 32 22.75L32 22.25A0.25 0.25 0 0 0 31.75 22L31.25 22A0.25 0.25 0 0 0 31 22.25ZM43 22.25L43 23.75A0.25 0.25 0 0 1 42.75 24L38.25 24A0.25 0.25 0 0 0 38 24.25L38 26.75A0.25 0.25 0 0 0 38.25 27L38.75 27A0.25 0.25 0 0 1 39 27.25L39 27.75A0.25 0.25 0 0 0 39.25 28L41.75 28A0.25 0.25 0 0 0 42 27.75L42 27.25A0.25 0.25 0 0 0 41.75 27L41.25 27A0.25 0.25 0 0 1 41 26.75L41 26.25A0.25 0.25 0 0 0 40.75 26L39.25 26A0.25 0.25 0 0 1 39 25.75L39 25.25A0.25 0.25 0 0 1 39.25 25L41.75 25A0.25 0.25 0 0 1 42 25.25L42 25.75A0.25 0.25 0 0 0 42.25 26L42.75 26A0.25 0.25 0 0 0 43 25.75L43 25.25A0.25 0.25 0 0 1 43.25 25L43.75 25A0.25 0.25 0 0 1 44 25.25L44 25.75A0.25 0.25 0 0 0 44.25 26L44.75 26A0.25 0.25 0 0 1 45 26.25L45 26.75A0.25 0.25 0 0 0 45.25 27L45.75 27A0.25 0.25 0 0 0 46 26.75L46 25.25A0.25 0.25 0 0 1 46.25 25L46.75 25A0.25 0.25 0 0 0 47 24.75L47 24.25A0.25 0.25 0 0 0 46.75 24L46.25 24A0.25 0.25 0 0 0 46 24.25L46 24.75A0.25 0.25 0 0 1 45.75 25L45.25 25A0.25 0.25 0 0 1 45 24.75L45 23.25A0.25 0.25 0 0 0 44.75 23L44.25 23A0.25 0.25 0 0 1 44 22.75L44 22.25A0.25 0.25 0 0 0 43.75 22L43.25 22A0.25 0.25 0 0 0 43 22.25ZM56 22.25L56 23.75A0.25 0.25 0 0 0 56.25 24L56.75 24A0.25 0.25 0 0 0 57 23.75L57 22.25A0.25 0.25 0 0 0 56.75 22L56.25 22A0.25 0.25 0 0 0 56 22.25ZM16 23.25L16 23.75A0.25 0.25 0 0 0 16.25 24L16.75 24A0.25 0.25 0 0 0 17 23.75L17 23.25A0.25 0.25 0 0 0 16.75 23L16.25 23A0.25 0.25 0 0 0 16 23.25ZM25 23.25L25 24.75A0.25 0.25 0 0 0 25.25 25L25.75 25A0.25 0.25 0 0 0 26 24.75L26 23.25A0.25 0.25 0 0 0 25.75 23L25.25 23A0.25 0.25 0 0 0 25 23.25ZM11 24.25L11 24.75A0.25 0.25 0 0 0 11.25 25L11.75 25A0.25 0.25 0 0 0 12 24.75L12 24.25A0.25 0.25 0 0 0 11.75 24L11.25 24A0.25 0.25 0 0 0 11 24.25ZM18 24.25L18 24.75A0.25 0.25 0 0 0 18.25 25L18.75 25A0.25 0.25 0 0 0 19 24.75L19 24.25A0.25 0.25 0 0 0 18.75 24L18.25 24A0.25 0.25 0 0 0 18 24.25ZM36 24.25L36 26.75A0.25 0.25 0 0 1 35.75 27L35.25 27A0.25 0.25 0 0 0 35 27.25L35 27.75A0.25 0.25 0 0 0 35.25 28L35.75 28A0.25 0.25 0 0 0 36 27.75L36 27.25A0.25 0.25 0 0 1 36.25 27L36.75 27A0.25 0.25 0 0 0 37 26.75L37 24.25A0.25 0.25 0 0 0 36.75 24L36.25 24A0.25 0.25 0 0 0 36 24.25ZM4 25.25L4 25.75A0.25 0.25 0 0 1 3.75 26L3.25 26A0.25 0.25 0 0 0 3 26.25L3 26.75A0.25 0.25 0 0 0 3.25 27L3.75 27A0.25 0.25 0 0 0 4 26.75L4 26.25A0.25 0.25 0 0 1 4.25 26L4.75 26A0.25 0.25 0 0 0 5 25.75L5 25.25A0.25 0.25 0 0 0 4.75 25L4.25 25A0.25 0.25 0 0 0 4 25.25ZM20 25.25L20 25.75A0.25 0.25 0 0 0 20.25 26L20.75 26A0.25 0.25 0 0 0 21 25.75L21 25.25A0.25 0.25 0 0 0 20.75 25L20.25 25A0.25 0.25 0 0 0 20 25.25ZM52 25.25L52 25.75A0.25 0.25 0 0 0 52.25 26L52.75 26A0.25 0.25 0 0 0 53 25.75L53 25.25A0.25 0.25 0 0 0 52.75 25L52.25 25A0.25 0.25 0 0 0 52 25.25ZM5 27.25L5 29.75A0.25 0.25 0 0 0 5.25 30L7.75 30A0.25 0.25 0 0 0 8 29.75L8 27.25A0.25 0.25 0 0 0 7.75 27L5.25 27A0.25 0.25 0 0 0 5 27.25ZM20 27.25L20 27.75A0.25 0.25 0 0 0 20.25 28L20.75 28A0.25 0.25 0 0 0 21 27.75L21 27.25A0.25 0.25 0 0 0 20.75 27L20.25 27A0.25 0.25 0 0 0 20 27.25ZM27 27.25L27 29.75A0.25 0.25 0 0 0 27.25 30L29.75 30A0.25 0.25 0 0 0 30 29.75L30 27.25A0.25 0.25 0 0 0 29.75 27L27.25 27A0.25 0.25 0 0 0 27 27.25ZM49 27.25L49 29.75A0.25 0.25 0 0 0 49.25 30L51.75 30A0.25 0.25 0 0 0 52 29.75L52 27.25A0.25 0.25 0 0 0 51.75 27L49.25 27A0.25 0.25 0 0 0 49 27.25ZM6 28.25L6 28.75A0.25 0.25 0 0 0 6.25 29L6.75 29A0.25 0.25 0 0 0 7 28.75L7 28.25A0.25 0.25 0 0 0 6.75 28L6.25 28A0.25 0.25 0 0 0 6 28.25ZM22 28.25L22 29.75A0.25 0.25 0 0 0 22.25 30L22.75 30A0.25 0.25 0 0 0 23 29.75L23 29.25A0.25 0.25 0 0 1 23.25 29L23.75 29A0.25 0.25 0 0 0 24 28.75L24 28.25A0.25 0.25 0 0 0 23.75 28L22.25 28A0.25 0.25 0 0 0 22 28.25ZM28 28.25L28 28.75A0.25 0.25 0 0 0 28.25 29L28.75 29A0.25 0.25 0 0 0 29 28.75L29 28.25A0.25 0.25 0 0 0 28.75 28L28.25 28A0.25 0.25 0 0 0 28 28.25ZM50 28.25L50 28.75A0.25 0.25 0 0 0 50.25 29L50.75 29A0.25 0.25 0 0 0 51 28.75L51 28.25A0.25 0.25 0 0 0 50.75 28L50.25 28A0.25 0.25 0 0 0 50 28.25ZM54 28.25L54 28.75A0.25 0.25 0 0 0 54.25 29L54.75 29A0.25 0.25 0 0 0 55 28.75L55 28.25A0.25 0.25 0 0 0 54.75 28L54.25 28A0.25 0.25 0 0 0 54 28.25ZM40 29.25L40 29.75A0.25 0.25 0 0 0 40.25 30L40.75 30A0.25 0.25 0 0 0 41 29.75L41 29.25A0.25 0.25 0 0 0 40.75 29L40.25 29A0.25 0.25 0 0 0 40 29.25ZM36 30.25L36 31.75A0.25 0.25 0 0 0 36.25 32L36.75 32A0.25 0.25 0 0 0 37 31.75L37 30.25A0.25 0.25 0 0 0 36.75 30L36.25 30A0.25 0.25 0 0 0 36 30.25ZM54 30.25L54 30.75A0.25 0.25 0 0 0 54.25 31L55.75 31A0.25 0.25 0 0 0 56 30.75L56 30.25A0.25 0.25 0 0 0 55.75 30L54.25 30A0.25 0.25 0 0 0 54 30.25ZM49 31.25L49 31.75A0.25 0.25 0 0 0 49.25 32L49.75 32A0.25 0.25 0 0 1 50 32.25L50 32.75A0.25 0.25 0 0 1 49.75 33L49.25 33A0.25 0.25 0 0 0 49 33.25L49 33.75A0.25 0.25 0 0 0 49.25 34L50.75 34A0.25 0.25 0 0 1 51 34.25L51 35.75A0.25 0.25 0 0 0 51.25 36L51.75 36A0.25 0.25 0 0 0 52 35.75L52 34.25A0.25 0.25 0 0 0 51.75 34L51.25 34A0.25 0.25 0 0 1 51 33.75L51 31.25A0.25 0.25 0 0 0 50.75 31L49.25 31A0.25 0.25 0 0 0 49 31.25ZM14 32.25L14 32.75A0.25 0.25 0 0 1 13.75 33L13.25 33A0.25 0.25 0 0 0 13 33.25L13 33.75A0.25 0.25 0 0 1 12.75 34L11.25 34A0.25 0.25 0 0 0 11 34.25L11 35.75A0.25 0.25 0 0 1 10.75 36L10.25 36A0.25 0.25 0 0 1 10 35.75L10 35.25A0.25 0.25 0 0 0 9.75 35L9.25 35A0.25 0.25 0 0 0 9 35.25L9 35.75A0.25 0.25 0 0 0 9.25 36L9.75 36A0.25 0.25 0 0 1 10 36.25L10 36.75A0.25 0.25 0 0 0 10.25 37L10.75 37A0.25 0.25 0 0 1 11 37.25L11 37.75A0.25 0.25 0 0 0 11.25 38L11.75 38A0.25 0.25 0 0 0 12 37.75L12 37.25A0.25 0.25 0 0 0 11.75 37L11.25 37A0.25 0.25 0 0 1 11 36.75L11 36.25A0.25 0.25 0 0 1 11.25 36L11.75 36A0.25 0.25 0 0 0 12 35.75L12 35.25A0.25 0.25 0 0 1 12.25 35L13.75 35A0.25 0.25 0 0 0 14 34.75L14 33.25A0.25 0.25 0 0 1 14.25 33L14.75 33A0.25 0.25 0 0 1 15 33.25L15 33.75A0.25 0.25 0 0 0 15.25 34L15.75 34A0.25 0.25 0 0 1 16 34.25L16 34.75A0.25 0.25 0 0 1 15.75 35L15.25 35A0.25 0.25 0 0 0 15 35.25L15 36.75A0.25 0.25 0 0 1 14.75 37L14.25 37A0.25 0.25 0 0 1 14 36.75L14 36.25A0.25 0.25 0 0 0 13.75 36L13.25 36A0.25 0.25 0 0 0 13 36.25L13 36.75A0.25 0.25 0 0 0 13.25 37L13.75 37A0.25 0.25 0 0 1 14 37.25L14 39.75A0.25 0.25 0 0 0 14.25 40L14.75 40A0.25 0.25 0 0 1 15 40.25L15 41.75A0.25 0.25 0 0 1 14.75 42L13.25 42A0.25 0.25 0 0 0 13 42.25L13 42.75A0.25 0.25 0 0 0 13.25 43L14.75 43A0.25 0.25 0 0 0 15 42.75L15 42.25A0.25 0.25 0 0 1 15.25 42L17.75 42A0.25 0.25 0 0 0 18 41.75L18 41.25A0.25 0.25 0 0 0 17.75 41L17.25 41A0.25 0.25 0 0 1 17 40.75L17 40.25A0.25 0.25 0 0 0 16.75 40L16.25 40A0.25 0.25 0 0 1 16 39.75L16 38.25A0.25 0.25 0 0 1 16.25 38L16.75 38A0.25 0.25 0 0 0 17 37.75L17 36.25A0.25 0.25 0 0 1 17.25 36L17.75 36A0.25 0.25 0 0 1 18 36.25L18 36.75A0.25 0.25 0 0 0 18.25 37L18.75 37A0.25 0.25 0 0 1 19 37.25L19 37.75A0.25 0.25 0 0 0 19.25 38L20.75 38A0.25 0.25 0 0 0 21 37.75L21 35.25A0.25 0.25 0 0 1 21.25 35L21.75 35A0.25 0.25 0 0 1 22 35.25L22 37.75A0.25 0.25 0 0 0 22.25 38L22.75 38A0.25 0.25 0 0 0 23 37.75L23 37.25A0.25 0.25 0 0 1 23.25 37L23.75 37A0.25 0.25 0 0 0 24 36.75L24 34.25A0.25 0.25 0 0 1 24.25 34L24.75 34A0.25 0.25 0 0 1 25 34.25L25 34.75A0.25 0.25 0 0 0 25.25 35L25.75 35A0.25 0.25 0 0 0 26 34.75L26 34.25A0.25 0.25 0 0 1 26.25 34L26.75 34A0.25 0.25 0 0 1 27 34.25L27 34.75A0.25 0.25 0 0 0 27.25 35L27.75 35A0.25 0.25 0 0 1 28 35.25L28 35.75A0.25 0.25 0 0 1 27.75 36L26.25 36A0.25 0.25 0 0 0 26 36.25L26 36.75A0.25 0.25 0 0 0 26.25 37L26.75 37A0.25 0.25 0 0 1 27 37.25L27 37.75A0.25 0.25 0 0 0 27.25 38L27.75 38A0.25 0.25 0 0 0 28 37.75L28 37.25A0.25 0.25 0 0 1 28.25 37L28.75 37A0.25 0.25 0 0 0 29 36.75L29 34.25A0.25 0.25 0 0 1 29.25 34L29.75 34A0.25 0.25 0 0 1 30 34.25L30 34.75A0.25 0.25 0 0 0 30.25 35L30.75 35A0.25 0.25 0 0 1 31 35.25L31 35.75A0.25 0.25 0 0 0 31.25 36L31.75 36A0.25 0.25 0 0 0 32 35.75L32 34.25A0.25 0.25 0 0 0 31.75 34L31.25 34A0.25 0.25 0 0 1 31 33.75L31 33.25A0.25 0.25 0 0 0 30.75 33L28.25 33A0.25 0.25 0 0 1 28 32.75L28 32.25A0.25 0.25 0 0 0 27.75 32L27.25 32A0.25 0.25 0 0 0 27 32.25L27 32.75A0.25 0.25 0 0 1 26.75 33L26.25 33A0.25 0.25 0 0 0 26 33.25L26 33.75A0.25 0.25 0 0 1 25.75 34L25.25 34A0.25 0.25 0 0 1 25 33.75L25 33.25A0.25 0.25 0 0 0 24.75 33L23.25 33A0.25 0.25 0 0 0 23 33.25L23 34.75A0.25 0.25 0 0 1 22.75 35L22.25 35A0.25 0.25 0 0 1 22 34.75L22 34.25A0.25 0.25 0 0 0 21.75 34L21.25 34A0.25 0.25 0 0 1 21 33.75L21 32.25A0.25 0.25 0 0 0 20.75 32L20.25 32A0.25 0.25 0 0 0 20 32.25L20 32.75A0.25 0.25 0 0 1 19.75 33L19.25 33A0.25 0.25 0 0 0 19 33.25L19 33.75A0.25 0.25 0 0 1 18.75 34L17.25 34A0.25 0.25 0 0 1 17 33.75L17 33.25A0.25 0.25 0 0 0 16.75 33L15.25 33A0.25 0.25 0 0 1 15 32.75L15 32.25A0.25 0.25 0 0 0 14.75 32L14.25 32A0.25 0.25 0 0 0 14 32.25ZM47 32.25L47 32.75A0.25 0.25 0 0 0 47.25 33L47.75 33A0.25 0.25 0 0 0 48 32.75L48 32.25A0.25 0.25 0 0 0 47.75 32L47.25 32A0.25 0.25 0 0 0 47 32.25ZM35 33.25L35 33.75A0.25 0.25 0 0 0 35.25 34L35.75 34A0.25 0.25 0 0 0 36 33.75L36 33.25A0.25 0.25 0 0 0 35.75 33L35.25 33A0.25 0.25 0 0 0 35 33.25ZM3 34.25L3 34.75A0.25 0.25 0 0 0 3.25 35L3.75 35A0.25 0.25 0 0 0 4 34.75L4 34.25A0.25 0.25 0 0 0 3.75 34L3.25 34A0.25 0.25 0 0 0 3 34.25ZM20 34.25L20 34.75A0.25 0.25 0 0 0 20.25 35L20.75 35A0.25 0.25 0 0 0 21 34.75L21 34.25A0.25 0.25 0 0 0 20.75 34L20.25 34A0.25 0.25 0 0 0 20 34.25ZM16 35.25L16 35.75A0.25 0.25 0 0 0 16.25 36L16.75 36A0.25 0.25 0 0 0 17 35.75L17 35.25A0.25 0.25 0 0 0 16.75 35L16.25 35A0.25 0.25 0 0 0 16 35.25ZM49 35.25L49 35.75A0.25 0.25 0 0 0 49.25 36L49.75 36A0.25 0.25 0 0 0 50 35.75L50 35.25A0.25 0.25 0 0 0 49.75 35L49.25 35A0.25 0.25 0 0 0 49 35.25ZM19 36.25L19 36.75A0.25 0.25 0 0 0 19.25 37L19.75 37A0.25 0.25 0 0 0 20 36.75L20 36.25A0.25 0.25 0 0 0 19.75 36L19.25 36A0.25 0.25 0 0 0 19 36.25ZM54 36.25L54 36.75A0.25 0.25 0 0 0 54.25 37L54.75 37A0.25 0.25 0 0 0 55 36.75L55 36.25A0.25 0.25 0 0 0 54.75 36L54.25 36A0.25 0.25 0 0 0 54 36.25ZM4 37.25L4 37.75A0.25 0.25 0 0 0 4.25 38L4.75 38A0.25 0.25 0 0 0 5 37.75L5 37.25A0.25 0.25 0 0 0 4.75 37L4.25 37A0.25 0.25 0 0 0 4 37.25ZM48 37.25L48 37.75A0.25 0.25 0 0 0 48.25 38L48.75 38A0.25 0.25 0 0 1 49 38.25L49 38.75A0.25 0.25 0 0 1 48.75 39L48.25 39A0.25 0.25 0 0 0 48 39.25L48 39.75A0.25 0.25 0 0 0 48.25 40L51.75 40A0.25 0.25 0 0 0 52 39.75L52 39.25A0.25 0.25 0 0 0 51.75 39L51.25 39A0.25 0.25 0 0 1 51 38.75L51 38.25A0.25 0.25 0 0 0 50.75 38L49.25 38A0.25 0.25 0 0 1 49 37.75L49 37.25A0.25 0.25 0 0 0 48.75 37L48.25 37A0.25 0.25 0 0 0 48 37.25ZM34 38.25L34 38.75A0.25 0.25 0 0 1 33.75 39L33.25 39A0.25 0.25 0 0 0 33 39.25L33 39.75A0.25 0.25 0 0 1 32.75 40L32.25 40A0.25 0.25 0 0 0 32 40.25L32 41.75A0.25 0.25 0 0 0 32.25 42L32.75 42A0.25 0.25 0 0 0 33 41.75L33 41.25A0.25 0.25 0 0 1 33.25 41L33.75 41A0.25 0.25 0 0 1 34 41.25L34 41.75A0.25 0.25 0 0 0 34.25 42L34.75 42A0.25 0.25 0 0 0 35 41.75L35 40.25A0.25 0.25 0 0 1 35.25 40L35.75 40A0.25 0.25 0 0 0 36 39.75L36 38.25A0.25 0.25 0 0 0 35.75 38L34.25 38A0.25 0.25 0 0 0 34 38.25ZM56 38.25L56 42.75A0.25 0.25 0 0 0 56.25 43L56.75 43A0.25 0.25 0 0 0 57 42.75L57 38.25A0.25 0.25 0 0 0 56.75 38L56.25 38A0.25 0.25 0 0 0 56 38.25ZM1 39.25L1 40.75A0.25 0.25 0 0 1 0.75 41L0.25 41A0.25 0.25 0 0 0 0 41.25L0 43.75A0.25 0.25 0 0 0 0.25 44L0.75 44A0.25 0.25 0 0 0 1 43.75L1 41.25A0.25 0.25 0 0 1 1.25 41L1.75 41A0.25 0.25 0 0 0 2 40.75L2 39.25A0.25 0.25 0 0 0 1.75 39L1.25 39A0.25 0.25 0 0 0 1 39.25ZM12 39.25L12 39.75A0.25 0.25 0 0 0 12.25 40L12.75 40A0.25 0.25 0 0 0 13 39.75L13 39.25A0.25 0.25 0 0 0 12.75 39L12.25 39A0.25 0.25 0 0 0 12 39.25ZM34 39.25L34 39.75A0.25 0.25 0 0 0 34.25 40L34.75 40A0.25 0.25 0 0 0 35 39.75L35 39.25A0.25 0.25 0 0 0 34.75 39L34.25 39A0.25 0.25 0 0 0 34 39.25ZM38 40.25L38 40.75A0.25 0.25 0 0 0 38.25 41L39.75 41A0.25 0.25 0 0 0 40 40.75L40 40.25A0.25 0.25 0 0 0 39.75 40L38.25 40A0.25 0.25 0 0 0 38 40.25ZM50 41.25L50 41.75A0.25 0.25 0 0 0 50.25 42L50.75 42A0.25 0.25 0 0 1 51 42.25L51 42.75A0.25 0.25 0 0 1 50.75 43L50.25 43A0.25 0.25 0 0 0 50 43.25L50 43.75A0.25 0.25 0 0 1 49.75 44L49.25 44A0.25 0.25 0 0 0 49 44.25L49 45.75A0.25 0.25 0 0 1 48.75 46L48.25 46A0.25 0.25 0 0 1 48 45.75L48 44.25A0.25 0.25 0 0 0 47.75 44L47.25 44A0.25 0.25 0 0 0 47 44.25L47 45.75A0.25 0.25 0 0 0 47.25 46L47.75 46A0.25 0.25 0 0 1 48 46.25L48 46.75A0.25 0.25 0 0 1 47.75 47L47.25 47A0.25 0.25 0 0 0 47 47.25L47 47.75A0.25 0.25 0 0 0 47.25 48L47.75 48A0.25 0.25 0 0 0 48 47.75L48 47.25A0.25 0.25 0 0 1 48.25 47L48.75 47A0.25 0.25 0 0 1 49 47.25L49 47.75A0.25 0.25 0 0 0 49.25 48L49.75 48A0.25 0.25 0 0 0 50 47.75L50 45.25A0.25 0.25 0 0 1 50.25 45L50.75 45A0.25 0.25 0 0 0 51 44.75L51 43.25A0.25 0.25 0 0 1 51.25 43L51.75 43A0.25 0.25 0 0 1 52 43.25L52 44.75A0.25 0.25 0 0 0 52.25 45L52.75 45A0.25 0.25 0 0 0 53 44.75L53 43.25A0.25 0.25 0 0 1 53.25 43L53.75 43A0.25 0.25 0 0 0 54 42.75L54 41.25A0.25 0.25 0 0 0 53.75 41L53.25 41A0.25 0.25 0 0 0 53 41.25L53 42.75A0.25 0.25 0 0 1 52.75 43L52.25 43A0.25 0.25 0 0 1 52 42.75L52 41.25A0.25 0.25 0 0 0 51.75 41L50.25 41A0.25 0.25 0 0 0 50 41.25ZM22 43.25L22 43.75A0.25 0.25 0 0 0 22.25 44L22.75 44A0.25 0.25 0 0 0 23 43.75L23 43.25A0.25 0.25 0 0 0 22.75 43L22.25 43A0.25 0.25 0 0 0 22 43.25ZM25 43.25L25 43.75A0.25 0.25 0 0 0 25.25 44L25.75 44A0.25 0.25 0 0 0 26 43.75L26 43.25A0.25 0.25 0 0 0 25.75 43L25.25 43A0.25 0.25 0 0 0 25 43.25ZM13 44.25L13 44.75A0.25 0.25 0 0 0 13.25 45L13.75 45A0.25 0.25 0 0 1 14 45.25L14 45.75A0.25 0.25 0 0 0 14.25 46L14.75 46A0.25 0.25 0 0 0 15 45.75L15 45.25A0.25 0.25 0 0 1 15.25 45L15.75 45A0.25 0.25 0 0 0 16 44.75L16 44.25A0.25 0.25 0 0 0 15.75 44L15.25 44A0.25 0.25 0 0 0 15 44.25L15 44.75A0.25 0.25 0 0 1 14.75 45L14.25 45A0.25 0.25 0 0 1 14 44.75L14 44.25A0.25 0.25 0 0 0 13.75 44L13.25 44A0.25 0.25 0 0 0 13 44.25ZM17 44.25L17 44.75A0.25 0.25 0 0 0 17.25 45L17.75 45A0.25 0.25 0 0 0 18 44.75L18 44.25A0.25 0.25 0 0 0 17.75 44L17.25 44A0.25 0.25 0 0 0 17 44.25ZM2 45.25L2 45.75A0.25 0.25 0 0 1 1.75 46L1.25 46A0.25 0.25 0 0 0 1 46.25L1 46.75A0.25 0.25 0 0 0 1.25 47L1.75 47A0.25 0.25 0 0 0 2 46.75L2 46.25A0.25 0.25 0 0 1 2.25 46L2.75 46A0.25 0.25 0 0 1 3 46.25L3 46.75A0.25 0.25 0 0 0 3.25 47L4.75 47A0.25 0.25 0 0 0 5 46.75L5 45.25A0.25 0.25 0 0 0 4.75 45L4.25 45A0.25 0.25 0 0 0 4 45.25L4 45.75A0.25 0.25 0 0 1 3.75 46L3.25 46A0.25 0.25 0 0 1 3 45.75L3 45.25A0.25 0.25 0 0 0 2.75 45L2.25 45A0.25 0.25 0 0 0 2 45.25ZM6 45.25L6 45.75A0.25 0.25 0 0 0 6.25 46L6.75 46A0.25 0.25 0 0 0 7 45.75L7 45.25A0.25 0.25 0 0 0 6.75 45L6.25 45A0.25 0.25 0 0 0 6 45.25ZM31 45.25L31 45.75A0.25 0.25 0 0 1 30.75 46L30.25 46A0.25 0.25 0 0 0 30 46.25L30 46.75A0.25 0.25 0 0 0 30.25 47L30.75 47A0.25 0.25 0 0 0 31 46.75L31 46.25A0.25 0.25 0 0 1 31.25 46L31.75 46A0.25 0.25 0 0 0 32 45.75L32 45.25A0.25 0.25 0 0 0 31.75 45L31.25 45A0.25 0.25 0 0 0 31 45.25ZM43 46.25L43 46.75A0.25 0.25 0 0 0 43.25 47L43.75 47A0.25 0.25 0 0 0 44 46.75L44 46.25A0.25 0.25 0 0 0 43.75 46L43.25 46A0.25 0.25 0 0 0 43 46.25ZM21 47.25L21 47.75A0.25 0.25 0 0 0 21.25 48L21.75 48A0.25 0.25 0 0 0 22 47.75L22 47.25A0.25 0.25 0 0 0 21.75 47L21.25 47A0.25 0.25 0 0 0 21 47.25ZM27 47.25L27 47.75A0.25 0.25 0 0 0 27.25 48L27.75 48A0.25 0.25 0 0 0 28 47.75L28 47.25A0.25 0.25 0 0 0 27.75 47L27.25 47A0.25 0.25 0 0 0 27 47.25ZM33 47.25L33 47.75A0.25 0.25 0 0 0 33.25 48L33.75 48A0.25 0.25 0 0 0 34 47.75L34 47.25A0.25 0.25 0 0 0 33.75 47L33.25 47A0.25 0.25 0 0 0 33 47.25ZM18 48.25L18 48.75A0.25 0.25 0 0 0 18.25 49L19.75 49A0.25 0.25 0 0 0 20 48.75L20 48.25A0.25 0.25 0 0 0 19.75 48L18.25 48A0.25 0.25 0 0 0 18 48.25ZM24 49.25L24 49.75A0.25 0.25 0 0 0 24.25 50L24.75 50A0.25 0.25 0 0 0 25 49.75L25 49.25A0.25 0.25 0 0 0 24.75 49L24.25 49A0.25 0.25 0 0 0 24 49.25ZM27 49.25L27 51.75A0.25 0.25 0 0 0 27.25 52L29.75 52A0.25 0.25 0 0 0 30 51.75L30 49.25A0.25 0.25 0 0 0 29.75 49L27.25 49A0.25 0.25 0 0 0 27 49.25ZM49 49.25L49 51.75A0.25 0.25 0 0 0 49.25 52L51.75 52A0.25 0.25 0 0 0 52 51.75L52 49.25A0.25 0.25 0 0 0 51.75 49L49.25 49A0.25 0.25 0 0 0 49 49.25ZM28 50.25L28 50.75A0.25 0.25 0 0 0 28.25 51L28.75 51A0.25 0.25 0 0 0 29 50.75L29 50.25A0.25 0.25 0 0 0 28.75 50L28.25 50A0.25 0.25 0 0 0 28 50.25ZM42 50.25L42 50.75A0.25 0.25 0 0 0 42.25 51L42.75 51A0.25 0.25 0 0 0 43 50.75L43 50.25A0.25 0.25 0 0 0 42.75 50L42.25 50A0.25 0.25 0 0 0 42 50.25ZM50 50.25L50 50.75A0.25 0.25 0 0 0 50.25 51L50.75 51A0.25 0.25 0 0 0 51 50.75L51 50.25A0.25 0.25 0 0 0 50.75 50L50.25 50A0.25 0.25 0 0 0 50 50.25ZM17 51.25L17 51.75A0.25 0.25 0 0 0 17.25 52L17.75 52A0.25 0.25 0 0 1 18 52.25L18 52.75A0.25 0.25 0 0 1 17.75 53L16.25 53A0.25 0.25 0 0 0 16 53.25L16 54.75A0.25 0.25 0 0 0 16.25 55L16.75 55A0.25 0.25 0 0 0 17 54.75L17 54.25A0.25 0.25 0 0 1 17.25 54L17.75 54A0.25 0.25 0 0 0 18 53.75L18 53.25A0.25 0.25 0 0 1 18.25 53L18.75 53A0.25 0.25 0 0 0 19 52.75L19 51.25A0.25 0.25 0 0 0 18.75 51L17.25 51A0.25 0.25 0 0 0 17 51.25ZM38 51.25L38 51.75A0.25 0.25 0 0 1 37.75 52L37.25 52A0.25 0.25 0 0 0 37 52.25L37 52.75A0.25 0.25 0 0 0 37.25 53L37.75 53A0.25 0.25 0 0 1 38 53.25L38 53.75A0.25 0.25 0 0 0 38.25 54L38.75 54A0.25 0.25 0 0 1 39 54.25L39 55.75A0.25 0.25 0 0 0 39.25 56L39.75 56A0.25 0.25 0 0 0 40 55.75L40 53.25A0.25 0.25 0 0 1 40.25 53L40.75 53A0.25 0.25 0 0 1 41 53.25L41 53.75A0.25 0.25 0 0 0 41.25 54L41.75 54A0.25 0.25 0 0 0 42 53.75L42 53.25A0.25 0.25 0 0 0 41.75 53L41.25 53A0.25 0.25 0 0 1 41 52.75L41 51.25A0.25 0.25 0 0 0 40.75 51L40.25 51A0.25 0.25 0 0 0 40 51.25L40 51.75A0.25 0.25 0 0 1 39.75 52L39.25 52A0.25 0.25 0 0 1 39 51.75L39 51.25A0.25 0.25 0 0 0 38.75 51L38.25 51A0.25 0.25 0 0 0 38 51.25ZM38 52.25L38 52.75A0.25 0.25 0 0 0 38.25 53L38.75 53A0.25 0.25 0 0 0 39 52.75L39 52.25A0.25 0.25 0 0 0 38.75 52L38.25 52A0.25 0.25 0 0 0 38 52.25ZM25 53.25L25 53.75A0.25 0.25 0 0 1 24.75 54L24.25 54A0.25 0.25 0 0 0 24 54.25L24 54.75A0.25 0.25 0 0 0 24.25 55L27.75 55A0.25 0.25 0 0 1 28 55.25L28 55.75A0.25 0.25 0 0 0 28.25 56L28.75 56A0.25 0.25 0 0 0 29 55.75L29 55.25A0.25 0.25 0 0 0 28.75 55L28.25 55A0.25 0.25 0 0 1 28 54.75L28 54.25A0.25 0.25 0 0 1 28.25 54L28.75 54A0.25 0.25 0 0 0 29 53.75L29 53.25A0.25 0.25 0 0 0 28.75 53L28.25 53A0.25 0.25 0 0 0 28 53.25L28 53.75A0.25 0.25 0 0 1 27.75 54L26.25 54A0.25 0.25 0 0 1 26 53.75L26 53.25A0.25 0.25 0 0 0 25.75 53L25.25 53A0.25 0.25 0 0 0 25 53.25ZM32 53.25L32 53.75A0.25 0.25 0 0 0 32.25 54L32.75 54A0.25 0.25 0 0 0 33 53.75L33 53.25A0.25 0.25 0 0 0 32.75 53L32.25 53A0.25 0.25 0 0 0 32 53.25ZM48 53.25L48 53.75A0.25 0.25 0 0 1 47.75 54L47.25 54A0.25 0.25 0 0 0 47 54.25L47 54.75A0.25 0.25 0 0 1 46.75 55L46.25 55A0.25 0.25 0 0 0 46 55.25L46 55.75A0.25 0.25 0 0 0 46.25 56L46.75 56A0.25 0.25 0 0 0 47 55.75L47 55.25A0.25 0.25 0 0 1 47.25 55L47.75 55A0.25 0.25 0 0 0 48 54.75L48 54.25A0.25 0.25 0 0 1 48.25 54L48.75 54A0.25 0.25 0 0 0 49 53.75L49 53.25A0.25 0.25 0 0 0 48.75 53L48.25 53A0.25 0.25 0 0 0 48 53.25ZM33 56.25L33 56.75A0.25 0.25 0 0 0 33.25 57L33.75 57A0.25 0.25 0 0 0 34 56.75L34 56.25A0.25 0.25 0 0 0 33.75 56L33.25 56A0.25 0.25 0 0 0 33 56.25ZM0 0L7 0L7 7L0 7ZM1 1L1 6L6 6L6 1ZM2 2L5 2L5 5L2 5ZM50 0L57 0L57 7L50 7ZM51 1L51 6L56 6L56 1ZM52 2L55 2L55 5L52 5ZM0 50L7 50L7 57L0 57ZM1 51L1 56L6 56L6 51ZM2 52L5 52L5 55L2 55Z" fill="#ffffff"/></g></g></svg>
