<?xml version="1.0" encoding="UTF-8"?>
<svg version="1.1" xmlns="http://www.w3.org/2000/svg" width="200" height="200">
<path d="M0 0 C10.33914054 9.70561477 16.12757155 22.40380511 17.3125 36.4375 C17.44223905 40.56317885 17.42921006 44.68512962 17.41015625 48.8125 C17.4087413 49.9775708 17.40732635 51.1426416 17.40586853 52.34301758 C17.40029916 56.0412052 17.38775231 59.73933087 17.375 63.4375 C17.36998104 65.95442621 17.36541883 68.47135337 17.36132812 70.98828125 C17.35033976 77.13804174 17.33363228 83.28776644 17.3125 89.4375 C9.71411928 89.5308739 2.1157993 89.60160227 -5.48302746 89.64474869 C-9.01290076 89.66547466 -12.54237675 89.6935106 -16.07202148 89.73925781 C-20.14570559 89.79171564 -24.2189835 89.81056869 -28.29296875 89.828125 C-29.5382988 89.84877014 -30.78362885 89.86941528 -32.06669617 89.89068604 C-46.29510167 89.89426754 -58.55860553 85.84725056 -69.16015625 76.18359375 C-80.11553467 64.78926861 -84.14154171 52.0393341 -84.12133789 36.57128906 C-83.86432707 24.29875566 -80.07025436 14.5246875 -71.6875 5.4375 C-71.11515625 4.75171875 -70.5428125 4.0659375 -69.953125 3.359375 C-51.99947423 -16.74257586 -20.43771058 -15.63437768 0 0 Z " fill="#000000" transform="translate(136.6875,53.5625)"/>
</svg>
